<?xml version="1.0" standalone="no"?>
<!DOCTYPE svg PUBLIC "-//W3C//DTD SVG 1.1//EN" "http://www.w3.org/Graphics/SVG/1.1/DTD/svg11.dtd" >
<svg xmlns="http://www.w3.org/2000/svg">
<metadata></metadata>
<defs>
<font id="journal_dingbats_2regular" horiz-adv-x="2162" >
<font-face units-per-em="2048" ascent="1638" descent="-410" />
<missing-glyph horiz-adv-x="208" />
<glyph horiz-adv-x="0" />
<glyph unicode="&#xd;" horiz-adv-x="681" />
<glyph unicode=" "  horiz-adv-x="208" />
<glyph unicode="&#x09;" horiz-adv-x="208" />
<glyph unicode="&#xa0;" horiz-adv-x="208" />
<glyph unicode="!" horiz-adv-x="360" d="M102 1217q0 139 74 139q82 0 82 -133q0 -88 -9 -196.5t-17.5 -169t-30 -207t-25.5 -175.5q-6 47 -23.5 177t-25.5 199t-16.5 173t-8.5 193zM104 315q0 72 70 72q72 0 72 -72h2q0 -33 -20.5 -52t-51.5 -19t-51.5 21.5t-20.5 49.5z" />
<glyph unicode="&#x22;" horiz-adv-x="1615" d="M102 422q12 23 47 89.5t57.5 112.5t41.5 93q-16 0 -53 -27q12 123 231 123q57 0 80.5 -14.5t66.5 -65.5l-112 -289l76 -30q0 -74 40.5 -116t114.5 -42l4 -23h-368q-94 0 -129 37t-17 131zM213 555q0 -18 15.5 -33.5t34 -15.5t31.5 15.5t13 33.5q0 47 -49 47 q-45 0 -45 -47zM233 545q0 16 15 16q12 0 12 -12q0 -16 -14 -17q-12 0 -13 13zM324 1079l84 170q51 102 51 121q-6 -2 -19 -2q0 39 51.5 66.5t83.5 11.5q31 18 66 18q78 0 134 -51t56 -127q23 -6 32 -27.5t1 -44.5q68 0 47 -94q43 -18 43 -53q0 -51 -28 -70q-49 12 -76 13 q-158 0 -184 -105q-59 -43 -66 -110q-39 45 -55 110q-74 0 -113 41t-29 113zM430 1212q0 -18 15.5 -32.5t33.5 -14.5q45 0 45 47q0 20 -14 34t-35 14q-45 0 -45 -48zM451 1202q0 16 14 17q12 -1 12 -13q0 -16 -14 -16q-12 0 -12 12zM500 467q0 2 13 39t26.5 72.5t33 87 t38 90.5t40 71.5t37.5 42.5q31 102 168 103q16 0 30.5 -4t32 -13.5t27.5 -13.5q51 -20 78 -32.5t57.5 -36t48 -56.5t25.5 -80q-143 -223 -168 -418q90 -31 107 -86h-351q-23 23 -22 60q-76 0 -114 41t-27 112zM635 641q0 -18 15.5 -32.5t33.5 -14.5q45 0 45 47t-49 47 q-45 0 -45 -47zM655 631q0 16 15 16q12 0 12 -12q0 -16 -14 -17q-12 0 -13 13zM891 1309l166 247q-4 10 -10 13h-11q49 68 85 89t110 9q-39 25 -43 33l10 2q27 0 57 -6l29 -29q59 -10 105.5 -53.5t46.5 -100.5q0 -39 -52 -131l9 -49q-55 59 -129 60q-129 0 -138 -68 q-33 -16 -60.5 -59t-37.5 -84q-25 0 -45 47t-20 78zM971 999q135 270 184 293q0 61 90 62q45 0 65.5 -8.5t47.5 -40.5q55 0 94 -33t39 -88q0 -27 -14 -56q36 -48 36 -73q0 -53 -16 -88q14 -25 14 -45l-2 -23l-8 -8t-8 -10q10 -31 10 -66q0 -27 -30 -49q-68 23 -111 22 q-100 0 -176 -36q-6 61 -47 114.5t-99 79.5v53h-69zM1018 1442q0 -18 15.5 -32.5t33.5 -14.5q45 0 45 47q0 20 -14.5 33.5t-34.5 13.5q-45 0 -45 -47zM1032 344q6 84 78 241.5t145 157.5q20 0 61.5 1t61.5 1q66 0 113 -40v-472h-354q-4 12 -8.5 23.5t-7.5 19t-11 15.5 t-10 11t-13.5 10t-14.5 9.5t-19.5 11.5t-20.5 11zM1038 1432q0 16 15 16q12 0 12 -12q0 -16 -14 -17q-12 0 -13 13zM1069 1114q0 -18 15.5 -32.5t33.5 -14.5q20 0 32.5 13.5t12.5 33.5q0 49 -49 49q-45 0 -45 -49zM1090 1104q0 16 14 16q12 0 12 -12q0 -16 -14 -16 q-12 0 -12 12zM1141 512q0 -18 15 -32.5t34 -14.5q45 0 45 47q0 49 -49 49q-45 0 -45 -49zM1161 502q0 18 15 18q12 0 12 -14q0 -16 -14 -17q-12 0 -13 13z" />
<glyph unicode="#" horiz-adv-x="1554" d="M104 1737h598v-703q0 -2 -8 -19.5t-17 -38t-11 -24.5q-88 -193 -148 -407q-57 -217 -78 -328v776q88 14 88 133q0 57 -37.5 94t-97.5 37q-53 0 -90 -32.5t-37 -85.5q0 -70 22.5 -101.5t86.5 -44.5v-776q-37 264 -156 567q-6 18 -33.5 79t-52 115t-24.5 56q-4 94 -5 703z M850 475v961h61v-965q0 -82 74 -132t160 -50q92 0 171 46t79 132v1055q0 68 -56.5 102.5t-128.5 34.5q-68 0 -124 -40t-56 -106v-860q0 -45 36 -71.5t83 -26.5q51 0 87 24.5t36 73.5v783h57v-783q0 -70 -53 -109.5t-127 -39.5q-63 0 -115.5 43t-52.5 106v860 q0 92 66.5 147.5t162.5 55.5q90 0 166 -54t76 -140v-1055q0 -106 -97.5 -171t-209.5 -65q-109 0 -202 69t-93 175z" />
<glyph unicode="$" horiz-adv-x="1564" d="M102 0v1292h52v260l61 7v55h473q10 66 51 123t101 57q63 0 109 -57.5t57 -122.5h456v-1335h-49v-62h-287v-217h-1024zM135 33h959v184h-940v1043h-19v-1227zM270 334h824v416l-283 -287l-502 508l269 268h61l-264 -268l436 -447l283 285v438h-697l2 13h-129v-926z M270 1292h136q14 63 43.5 95t62.5 38.5t64.5 11.5t58.5 31.5t35 83.5h-400v-260zM477 1305h727q-6 41 -32.5 56t-57.5 15t-65.5 18.5t-55.5 61.5q-6 12 -30.5 94t-53 132.5t-69.5 50.5q-43 0 -73 -61.5t-53.5 -145.5t-40 -108.5t-67.5 -31t-90 -20.5t-39 -61zM803 1583 q0 37 37 37q16 0 27.5 -12.5t11.5 -28.5q0 -39 -37 -39q-39 0 -39 43zM1024 1552q14 -59 44 -85.5t63.5 -30.5t67.5 -13.5t60.5 -51.5t36.5 -124h-170v-8h48l202 -205l-250 -252v-448h281v1218h-383zM1126 842l191 192l-191 195v-387z" />
<glyph unicode="%" horiz-adv-x="1822" d="M102 852q0 68 124 332t167 313v-434h189v688l401 -688h737v-426h-491l233 -418h-880v418h-189v-426q-59 59 -175 310t-116 331zM393 702h189v304h-189v-304zM639 283h715l-197 354h-160l107 -188h-342v702l53 -88h98l-274 459v-1239zM819 522h172l-69 119h-103v-119z M819 702h844v299h-844v-299zM1538 852q0 37 35 37q39 0 39 -37t-35 -37q-39 0 -39 37z" />
<glyph unicode="&#x26;" horiz-adv-x="1900" d="M102 166v264h1104v-264h-1104zM184 760l430 213l4 145l193 90q170 -292 254 -708l-209 -62l-78 107l-465 -107zM1290 160v147l508 -84v-63h-508z" />
<glyph unicode="'" horiz-adv-x="1761" d="M102 489v510h136v-254h1280v121h141v-377h-141v132h-1280v-132h-136zM266 870q0 47 26.5 75t74.5 28q45 0 73.5 -29t28.5 -76t-26.5 -73.5t-73.5 -26.5q-43 0 -73 29.5t-30 72.5zM492 795q0 27 7 46t25.5 31.5t30.5 20.5t42 12t40 6t44 3t36 1q301 16 338 17 q92 0 237.5 -14.5t163.5 -40.5q25 -39 25 -76q0 -18 -8 -29h-959q-23 0 -22 23z" />
<glyph unicode="(" horiz-adv-x="1765" d="M102 1055q109 0 268.5 59.5t178.5 59.5q31 0 66.5 -11.5t58 -24t62.5 -36t55 -31.5l868 25v-178l-866 16l-17 -6q-16 -6 -42.5 -16.5t-56.5 -19.5t-62.5 -15.5t-55.5 -6.5q-106 0 -243.5 55.5t-213.5 129.5zM104 1632h474q33 -55 104 -55q37 0 69.5 29.5t63.5 43 t137 -9.5v64h711v-57h-651v-146h651v-57h-711l-2 86h-28q-45 0 -111 -65.5t-111 -65.5q-25 0 -61.5 8t-72.5 19.5t-85 31t-85 34.5t-88 41t-77.5 38t-71.5 34.5t-55 26.5zM406 186v543h1249v-55h-1192v-58l672 -311l520 279v-76l-348 -180l94 -142h-74l-78 111l-114 -57 l-119 49l-74 -103h-74l95 133l-500 228v-361h-57zM885 952l73 -2v105l-73 -2v-101zM1008 950l299 -2v115l-299 -6v-107z" />
<glyph unicode=")" horiz-adv-x="1155" d="M102 666q0 8 11.5 17t19.5 9q25 0 78 -16.5t61 -18.5q-8 57 -8 127q0 31 13.5 87.5t13.5 82.5q0 4 -2 9.5t-4 12.5t-2 9q-14 10 -59.5 23.5t-61.5 33.5q20 18 82.5 42t91.5 22q14 53 47 63q-29 43 -29 60l6 4q2 -2 35 -57l31 18l-8 41l14 2q0 -4 2 -8q2 -23 12 -23h7h12 v-10l-4 -6q-2 -2 -22.5 -9t-30 -12.5t-23.5 -13.5t-20.5 -19.5t-6.5 -23.5q35 -14 45 -37q-10 -16 -20 -32.5t-13 -20.5t-7.5 -15.5t-4.5 -24.5v-42q0 -78 60.5 -123t135.5 -57t153.5 -26.5t103.5 -35.5q18 -16 27.5 -34.5t10.5 -29.5t-1 -39t-2 -40q0 -8 10 -29 q59 -39 88 -89t32 -88t19.5 -68.5t55.5 -36.5l2 -19q-45 0 -77 37t-61.5 104.5t-37.5 79.5q-20 10 -65.5 19.5t-68.5 21.5q-51 29 -96 54.5t-51 33t-33.5 14.5t-36 6t-67 -2t-113.5 -1q-35 0 -89 17.5t-73 21.5l-16 -6q-6 -12 -6 -19q0 -31 56 -81t65 -66l-13 -6 q-51 16 -109.5 87.5t-58.5 125.5z" />
<glyph unicode="*" horiz-adv-x="1830" d="M102 166v74h158v94q0 4 -53 157.5t-64 178.5l463 223l-6 156l203 94q225 -387 268 -746l-221 -63l-82 110l-260 -55v-149h579v-74h-985zM1196 160v151l533 -94v-57h-533z" />
<glyph unicode="+" horiz-adv-x="1650" d="M102 334v391q100 66 221 252t203 354h596q86 -174 206 -357t220 -249v-391h-166v-174h-165v174h-781v-174h-166v174h-168zM244 539q0 -45 31.5 -67.5t76.5 -22.5t76 23.5t31 66.5h2q0 41 -33 65.5t-74 24.5q-43 0 -76.5 -24.5t-33.5 -65.5zM336 872h977l-189 342h-596z M344 1606l33 49h639q20 59 75.5 98t116.5 39q90 0 149.5 -59.5t59.5 -149.5t-58.5 -149.5t-148.5 -59.5q-78 0 -134 46t-70 122h-50l-36 -45l-33 59h-53l-41 -59l-37 49h-111l-45 -49l-49 4l-37 51l-78 -51zM1190 539q0 -41 31.5 -65.5t74.5 -24.5q47 0 79 23.5t32 66.5 q0 41 -33 65.5t-74 24.5q-43 0 -76.5 -24.5t-33.5 -65.5zM1235 1583.5q0 -20.5 20.5 -33t42.5 -12.5q20 0 41 12.5t21 30.5h2q0 43 -64 43q-23 0 -43 -10t-20 -30.5z" />
<glyph unicode="," horiz-adv-x="1843" d="M102 965q2 0 18.5 9t20.5 9q72 0 146.5 -49t87 -49t73 25.5t132 57t82.5 36.5l-252 198q10 4 29.5 13.5t26.5 11.5t20.5 7t22.5 6t24.5 2t35.5 1q74 0 256.5 -37t212.5 -41q158 72 224.5 99.5t192.5 61.5t241 36q12 0 16 -10q-27 -61 -118 -121t-192.5 -103t-221 -112.5 t-189.5 -147.5l-160 45q-29 -10 -103.5 -38.5t-113.5 -42t-100 -34t-115.5 -32.5t-107.5 -21l6 25zM184 377v45h1557v-45h-1557z" />
<glyph unicode="-" horiz-adv-x="1601" d="M102 346q47 51 145.5 165t157 180.5t146.5 156.5t166 160q-6 10 -17 16l-34 4q-10 8 -86 72.5t-143.5 127t-145.5 141.5t-125 151.5t-47 121.5q0 25 4 33q10 0 31.5 3t29.5 3q41 0 320.5 -284.5t308.5 -345.5q109 74 159 132t52 89t9 75t34 80q25 35 71 75t76.5 61.5 t98 65.5t78.5 50q-8 -8 -46 -39.5t-59.5 -51t-53.5 -50.5t-53.5 -56.5t-33.5 -47.5q45 20 91 57t99.5 88t81.5 74q-150 -162 -227 -267q45 31 87 68t99.5 91t79.5 75q-10 -12 -69.5 -77.5t-93 -109.5t-56.5 -90q16 8 33.5 21.5t39 33t38 36t40 43t35 40t35 39t27.5 31.5 q-98 -150 -170 -229.5t-120 -103t-90 -37t-105.5 -61.5t-143.5 -144q111 -92 236 -219t198.5 -212t208.5 -245l-53 -64q-406 342 -629 588l-6 64q-63 -84 -154.5 -182.5t-141.5 -147.5t-183 -175t-154 -145z" />
<glyph unicode="." horiz-adv-x="1775" d="M102 377v45h1557v-45h-1557zM135 1419q59 -4 88 -46t47.5 -98t40.5 -77q41 -16 91.5 -28.5t116 -24.5t95.5 -19l-92 310q111 -25 119 -31q29 -18 200 -189.5t175 -175.5l182 -39q459 -96 475 -192q-29 -37 -143 -37q-80 0 -240 40t-233 40q-35 0 -78 -5t-93 -12.5 t-77 -9.5l-104 131q-14 4 -68.5 17.5t-72 18.5t-65.5 17.5t-72 19.5t-64.5 20.5t-69.5 24.5t-63.5 25.5t-65.5 28.5q0 18 20 19q-47 258 -49 272zM688 805q0 14 12.5 26.5t28.5 12.5t26.5 -11.5t10.5 -27.5q0 -14 -12.5 -26.5t-28.5 -12.5q-37 0 -37 39zM823 768 q0 14 12.5 26.5t29 12.5t26.5 -11.5t10 -27.5q0 -14 -12 -26.5t-29 -12.5q-37 0 -37 39zM1409 705q0 16 12.5 28t28.5 12q37 1 37 -40q0 -14 -12.5 -26.5t-28.5 -12.5q-37 0 -37 39z" />
<glyph unicode="/" horiz-adv-x="1798" d="M102 367v22h185v440h194v86h121v152h154q0 141 24.5 171t149.5 48v-332h131v250h250v-332h229v-483h156l-2 -22h-1592zM307 389h25l2 426h-27v-426zM358 389h25l2 426h-27v-426zM408 389h26l2 426h-28v-426zM457 389h24l2 426h-26v-426zM623 918h77v-242h54l2 373h-133 v-131zM651 389h191v275h-191v-275zM795 1194h12l2 25h-14v-25zM821 1194h13l2 25h-15v-25zM850 1194h12l2 25h-14v-25zM850 1237h12l2 25h-14v-25zM877 1194h14v25h-14v-25zM877 1237h12l2 25h-14v-25zM905 1194h15v25h-15v-25zM905 1237h13l2 25h-15v-25zM930 389h131 l2 541h-133v-541zM1081 426h152v20h-152v-20zM1081 467h152v20h-152v-20zM1081 508h152v20h-152v-20zM1081 549h152v20h-152v-20zM1081 590h152v20h-152v-20zM1081 631h152v20h-152v-20zM1081 672h152v20h-152v-20zM1081 713h152v20h-152v-20zM1081 754h152v20h-152v-20z M1081 795h150v14h61l-211 6v-20zM1081 836h211v20h-211v-20zM1081 877h211v20h-211v-20zM1081 918h211v20h-211v-20zM1081 958h211v21h-211v-21zM1081 999h211v21h-211v-21zM1081 1040h211v21h-211v-21zM1081 1081h211v21h-211v-21zM1081 1122h211v21h-211v-21zM1081 1163 h209l2 21h-211v-21zM1311 809h65v-420h142v459h-207v-39z" />
<glyph unicode="0" horiz-adv-x="1937" d="M102 969l19 14l51 -4q20 -45 66 -55q68 147 462 147q4 0 71 1t103.5 0t93 -5t87 -15.5t39.5 -27.5q18 -8 38.5 -9t49 2t39.5 3q86 0 133 -49q-18 47 -29 84l10 16l25 4l22 -24l-2 -33l11 -21q20 4 24 25l27 12l41 -10l6 -6q-66 -37 -82 -74q35 -57 93.5 -94t113.5 -55.5 t106.5 -40t83 -61t31.5 -105.5q0 -188 -211 -189q-25 0 -50.5 6.5t-44 14.5t-46 24.5t-39.5 25.5l-42 31.5l-38 28.5l-6 -6q-4 -68 -25.5 -95.5t-83.5 -53.5l-6 -25q0 -16 3 -49t3 -49q10 -4 21 -25h-213l6 82q2 18 -6 60q-31 25 -72 24q-35 0 -105.5 -9t-107.5 -9l-4 -10 q-4 -8 -4 -13q0 -18 4 -54t4 -46q10 -4 21 -25h-213q8 14 8 47q0 63 -8 95q-45 0 -50 2q0 -2 -3 -7.5t-4 -10.5t-1 -7q0 -18 4 -53t4 -45q14 -6 21 -21h-213q12 86 12 176l-4 9q-197 90 -196 266q0 94 73 223q-33 37 -54.5 50.5t-66.5 17.5zM1468.5 770.5 q-0.5 -22.5 20.5 -22.5q22 0 22 22.5t-22 22.5q-20 0 -20.5 -22.5z" />
<glyph unicode="1" horiz-adv-x="1456" d="M102 356q0 4 9.5 20.5t9.5 18.5q43 12 49 13q49 0 100 -41q-82 121 -82 208q0 176 107.5 304.5t279.5 128.5q39 0 113 -21.5t109 -21.5q57 0 120.5 41t106.5 94q-205 29 -342 110.5t-205 253.5q215 -104 508 -286q-88 129 -317 282q20 33 104 33q80 0 134.5 -25.5 t85 -71.5t50 -93.5t42 -111t46.5 -101.5q167 -43 224 -154q-2 -27 -72 -66t-84 -55q-27 -29 -43 -100q-14 -59 -64.5 -154.5t-58.5 -118.5q8 -55 35 -94t54.5 -53t53 -31.5t31.5 -34.5l-6 -6h-176q-59 70 -94 154q-35 -2 -76 -28.5t-53 -57.5q68 0 67 -68h-196q-4 0 -88 -5 t-151.5 -3t-150.5 12.5t-131.5 43t-48.5 85.5zM1169 995q0 -16 29 -16q10 0 10 12q0 20 -26 21q-2 0 -7.5 -7.5t-5.5 -9.5z" />
<glyph unicode="2" horiz-adv-x="1894" d="M102 580q16 -16 64.5 -85t94.5 -111t91 -42q92 0 147.5 89t80 215t46 252t66.5 215t121 89q55 0 150.5 -46t156.5 -46q121 0 221.5 93t149.5 216l-14 11l-78 -9q-43 20 -76 60q47 0 80 8q-10 29 -14 92q70 -45 212 -179t175 -155l16 -43l-27 -28q-8 2 -55 12t-70 10 q-33 0 -62.5 -21.5t-52 -62.5t-35.5 -69.5t-29.5 -77.5t-18.5 -56q-14 -37 -57.5 -85t-55.5 -74q-10 -25 -12 -88.5t-21 -96.5l-59 -20q33 86 39 112l-27 17q-215 -51 -245 -64q-96 -37 -127 -127q-23 -72 -23 -213q0 -25 16.5 -37t33 -13t46 2t35.5 3q109 0 152 -82h-494 q162 279 162 412q0 29 -27 55l-47 11l-29 -15q-29 -76 -65.5 -147.5t-106 -148t-137.5 -76.5q-31 0 -63.5 20t-56 46t-54.5 73t-46 72.5t-41 75.5t-30 57zM1571 1370q0 -23 20 -22q19 0 19 18q0 23 -21 23q-18 0 -18 -19z" />
<glyph unicode="3" horiz-adv-x="1570" d="M102 1036q0 43 35 71t78 28q33 0 54.5 -13.5t38 -32t34.5 -37t53 -31.5t84 -13q66 -82 127 -82q51 0 86 26.5t43 75.5q100 20 161.5 64.5t61.5 132.5q0 4 -13 33.5t-15 39.5q162 -77 162 -321q0 -209 -171 -379t-380 -170q-172 0 -172 72q0 39 43 70.5t93 52t93 51.5 t43 65q0 27 -55.5 44.5t-134 31.5t-158.5 34.5t-135.5 69t-55.5 117.5zM238 1163q0 37 8 63.5t15 38t38 52.5q19 6 23 6q-72 -78 -72 -180q-12 8 -12 20zM297 1395q0 55 45 99t100 44q29 0 52.5 -15t23.5 -42q0 -45 -56 -97.5t-104 -52.5q-23 0 -42 20.5t-19 43.5zM397 1139 q0 39 37 80t76 41q18 0 32.5 -12.5t14.5 -30.5q0 -31 -68 -130q-10 -16 -40 -16q-51 0 -52 68zM475 1214l6 -18q2 -8 21 -8q26 0 26 26.5t-26.5 26.5t-26.5 -27zM520 1440q45 37 105 37q88 0 106 -35l-2 -2q-12 4 -30.5 11t-34 11t-31.5 4q-49 0 -107 -32zM555 1008 q0 25 23 24q12 0 24 -12h8q12 12 23 12q20 0 20 -20q0 -29 -53 -66l2 -2h-4l2 2q-45 31 -45 62zM670 1229q0 39 43 39q35 0 63.5 -33t28.5 -68q0 -20 -23.5 -52t-42.5 -32q-4 6 -6 12.5t-5 14.5t-5 12t-27.5 41t-25.5 66zM692 1221l6 -19q2 -8 21 -8q26 0 26 26.5 t-26.5 26.5t-26.5 -26zM721 373q0 74 94 73q20 0 63.5 -8t63.5 -8q49 0 77 26.5t38 64.5t21.5 76t42 64.5t85.5 26.5q49 0 83 -32.5t49.5 -87t20.5 -100.5t5 -93q0 -39 -7 -67.5t-28.5 -45t-35 -26t-52.5 -13.5t-53 -4h-64q-29 0 -89 11.5t-83 13.5q-8 0 -46 3t-54 5t-47 10 t-45.5 20.5t-26.5 36t-12 54.5zM739 1473q0 33 27 50t61 17q57 0 80 -28t23 -85q0 -82 -56 -81q-12 0 -32 26q-18 25 -42 27t-38 20q-23 27 -23 54zM1047 1219q154 -96 287.5 -275.5t133.5 -341.5q0 -102 -84 -262q49 197 49.5 281t-46 177t-88.5 145t-138 153.5t-114 122.5 z" />
<glyph unicode="4" horiz-adv-x="2025" d="M102 991l25 15h25l20 -2q14 -27 70 -48q90 102 467 103q68 0 160 -4t208.5 -18.5t134.5 -39.5q10 0 35 5.5t39 5.5q16 0 45 -13.5t33 -15.5q18 18 43 102l25 17q31 0 43 -39l-11 -62l4 -10q25 25 37 55l31 13l37 -8l16 -33q-2 -12 -17.5 -61.5t-15.5 -73.5 q0 -43 48.5 -79t95.5 -48l51 14q4 4 32.5 44t40 50t40 25.5t59.5 15.5q-37 -100 -43 -138t-6 -145q0 -86 -63.5 -180t-145.5 -94q-47 0 -147.5 68.5t-180.5 68.5q-43 0 -88 -24q-8 -23 -8 -74l4 -156l21 -26h-203q6 59 6 178q0 61 -2 74q-45 23 -82 22q-35 0 -145.5 -13 t-167.5 -5q-10 -35 -10 -66q0 -27 3 -82t3 -82l20 -26h-203q16 109 9 200l-5 52l-49 2q-8 -23 -8 -70l4 -162l21 -22h-203l8 295q-51 92 -62.5 207.5t19.5 216.5q-23 31 -57 65zM1565 686q0 -31 30.5 -31t30.5 31t-30.5 31t-30.5 -31z" />
<glyph unicode="5" horiz-adv-x="1531" d="M102 936q0 47 32 81t82 49t95 21.5t90 6.5q68 0 201 -23.5t201 -23.5q78 0 176 65.5t98 138.5q-10 -12 -33 -16q-35 12 -57 41q10 8 33 8l-10 12l-6 43q55 -59 98 -57q-86 123 -86 174q0 57 45 125q-57 0 -105 35q10 23 17 22q4 0 25.5 -15t39.5 -15q53 0 54 45 q0 12 -33 67l28 9q25 -14 31 -89l8 -8l64 19l6 -17l-4 -8q-143 -43 -143 -160q0 -18 19 -73.5t30 -55.5l10 15q4 6 26.5 35.5t22.5 48.5q0 2 -9 14t-20.5 26.5t-13.5 18.5q6 16 19 16q10 -23 34 -36q18 8 38 23t41.5 34.5t33.5 30.5l18 -23l-65 -61q68 18 137 77 q10 -8 10 -32q-106 -86 -186 -86q-70 -88 -70 -135l6 -17q111 -12 291 -4q9 -17 9 -29q-23 -23 -127.5 -50t-135.5 -77q-37 -55 -50 -147t-44 -176t-117 -148l-4 -381q10 -18 33 -18l16 -29h-57l-29 39q0 23 -11 140.5t-7 173.5q-23 -111 -23 -306q8 -14 31 -18l17 -29h-56 q-25 20 -41 170t-16 244q-8 6 -30.5 8t-43 2t-47 -1t-31.5 -1q-170 0 -237 58q-23 -23 -68 -90.5t-45 -88.5q0 -43 101 -254q10 -8 30 -16l15 -31h-56q-31 25 -97.5 191t-61.5 211l-35 -21l-4 -63q-2 -39 86 -271q10 -10 30 -14l17 -33h-58q-14 10 -40.5 69.5t-50 123 t-44.5 123.5l-22 59q2 20 16 63.5t14 65.5q0 104 -10 178l-12 -24l6 -76h-12q-16 70 -17 127zM1192 1253q0 -16 16 -16q15 0 15 14q0 16 -17 17q-14 0 -14 -15z" />
<glyph unicode="6" horiz-adv-x="1933" d="M102 459q0 12 27 131t27 231q0 264 164.5 465t418.5 201q94 0 273.5 -50.5t271.5 -50.5q31 0 88.5 18.5t87.5 18.5q145 0 258 -169.5t113 -325.5q0 -444 -270 -445l-23 2l-14 27q0 20 6 39q78 0 120 54t42 134q0 61 -27 113l-43 22l-27 -14q2 -4 7.5 -11t10.5 -14.5 t5 -9.5l-8 -4l-103 17q-33 -18 -107.5 -83t-84.5 -89q10 -27 59 -89.5t49 -99.5l-14 -51q-10 -20 -37 -47q-16 -16 -36.5 -38t-29 -31t-19.5 -29.5t-19 -51.5l-6 -8q-33 14 -80 65.5t-60 86.5q12 31 33 43l16 30q-8 33 -81 93l-3 -191l3 -69q39 -25 38 -54l-219 -2 q-8 14 -2 113.5t6 114.5q0 39 -25.5 62.5t-70.5 29.5t-85 6t-92 -4t-69 -4q-39 0 -65 -11q-12 -82 -10 -153l4 -96q39 -25 39 -54l-220 -2q-4 33 -4 69t2 81t2 69q0 8 -120 385l-4 2q-6 -10 -7.5 -40.5t0.5 -75.5t2 -49q0 -39 -2 -62.5t-9 -55.5t-26.5 -54.5t-50.5 -34.5z M1669 1147l6 -21q2 -8 21 -8q20 0 24 27q-18 25 -26 26q-25 0 -25 -24z" />
<glyph unicode="7" horiz-adv-x="1521" d="M102 788q39 18 58 33q16 27 36.5 115t45.5 104q35 23 222 145t261 171t209 141t242 170q-2 10 -15 23l4 41q16 -20 21 -43q4 0 29.5 21.5t29.5 23.5q-10 -12 -18 -37l4 -6q51 -29 116.5 -80t71.5 -80l-18 -23l-37 -10q-82 61 -147 62q-43 0 -194 -102.5t-157 -141.5 q-8 -51 -9 -106.5t2 -128t3 -105.5q0 -76 -20.5 -241t-18.5 -249l2 -213l23 -18l6 -27h-59l8 37q-8 12 -8 23q0 309 -11 463q0 150 -39 149v-8l3 -141q0 -47 -9.5 -141.5t-7.5 -143.5l2 -193q8 -10 25 -18l6 -27h-59l6 37q-8 8 -7 307t-22 324l-102 27 q-47 -12 -106.5 -106.5t-59.5 -145.5q0 -41 223 -443h-59q-20 94 -106.5 242.5t-109.5 204.5q2 29 13.5 62.5t30 79.5t24.5 63q-37 -14 -77 -91t-40 -120q0 -37 45 -125t103.5 -188.5t70.5 -127.5h-59q-2 8 -2 43q0 23 -43 99.5t-96 169t-70 131.5q2 29 24.5 77t22.5 76 q0 8 -33.5 79t-37.5 106q-18 -45 -26.5 -86t-17 -60.5t-34.5 -40.5q-23 -33 -58 -33zM1253 1638q0 -14 12.5 -14t12.5 14q0 12 -12.5 12.5t-12.5 -12.5z" />
<glyph unicode="8" horiz-adv-x="927" d="M102 778q0 -143 68 -290.5t184 -194.5q-25 94 -24 143q0 127 39 199t149 113q-111 25 -176 129q39 0 103.5 -28t80.5 -32l13 10q-2 4 -15.5 41t-24 68t-10.5 43q106 -72 107 -223q18 -18 59 -19q25 0 78 4q-16 6 -54 45t-40 52q2 -14 41 -51t57 -46q0 4 2 13.5t3 16.5 t1 13v2q-2 16 -12 25q-8 8 -14 12q-2 4 -7 8.5t-8 8.5q-14 14 -16 30q6 -20 16 -30q2 -4 7.5 -8.5t7.5 -8.5q6 -4 14 -12q10 -12 12 -25q2 -12 2 -45l19 -10l10 -20l-6 -9l49 -36q8 -25 8 -62q0 12 -1 19.5t-2 15.5t-2 12t-4 9.5t-4 7.5t-8 7t-9 7t-12.5 8t-16.5 10l-14 -8 q29 -35 28 -65q0 -4 -2 -14.5t-2 -16.5l-22 -4l20 4q0 6 2 16.5t2 16.5q0 27 -28 63q-92 -74 -93 -114q0 -25 19.5 -40.5t34 -19.5t47.5 -10v-12q-10 -6 -74 0q41 -45 74 -50v-12q-14 -6 -74 0q0 -41 -13.5 -68.5t-39 -56t-37.5 -51.5q10 0 30.5 3t30.5 3q41 0 41 -37h-342 q-10 0 -56 38t-60 54q-135 145 -136 459zM582 717q0 -18 16 -19q14 1 14 15q0 20 -16 20q-14 0 -14 -16z" />
<glyph unicode="9" horiz-adv-x="1310" d="M102 870q0 82 74 143.5t156 61.5q123 0 192.5 -97t69.5 -224q0 -45 -15.5 -135.5t-15.5 -137.5q0 -141 101 -192q-82 109 -82 243q0 150 100 237t252 87q12 14 27.5 48t33.5 52q-37 66 -34 101q45 -8 73 -49l23 53l8 6q23 -25 22 -72q49 -18 72.5 -34.5t48.5 -57.5 q-6 -25 -21.5 -41t-28.5 -21t-44 -16q-59 -78 -74 -123q6 -20 42 -57t36 -78q0 -31 -20 -55l-37 68q-33 12 -53 12q-51 0 -82 -94q18 -8 38.5 -13.5t30 -8.5t18.5 -12t12 -27.5t3 -51.5q0 -35 -37 -98q29 16 68 16q59 0 76 -78h-201h-84.5t-80.5 2t-87 7.5t-77 15.5 t-75.5 25.5t-58.5 40t-51.5 55t-28.5 73.5t-12 97q0 23 7 63.5t7 61.5q0 113 -61 133l-21 -25l-4 -35q0 -31 47 -82q-90 20 -171 79t-81 134zM1098 932q0 -27 24 -27q15 1 15 17q0 27 -25 26q-14 0 -14 -16z" />
<glyph unicode=":" horiz-adv-x="2140" d="M102 977q0 430 270.5 703.5t698.5 273.5t697.5 -274.5t269.5 -702.5t-270.5 -703.5t-696.5 -275.5t-697.5 276.5t-271.5 702.5zM248 989q0 -365 230.5 -605.5t592.5 -240.5q279 0 463 125l-1165 1174q-121 -207 -121 -453zM500 1591l1179 -1198q104 113 159.5 266.5 t55.5 311.5q0 360 -232 597.5t-593 237.5q-326 0 -569 -215z" />
<glyph unicode=";" horiz-adv-x="1753" d="M102 952q0 344 215 562.5t560 218.5q342 0 558 -218.5t216 -562.5t-216 -564t-558 -220t-558.5 221t-216.5 563zM217 963q0 -291 184.5 -485.5t475.5 -194.5q225 0 370 102l-934 938q-96 -160 -96 -360zM420 1444l944 -961q170 195 170 463q0 291 -184.5 480.5 t-475.5 189.5q-258 0 -454 -172z" />
<glyph unicode="&#x3c;" horiz-adv-x="1744" d="M102 969l217 223v-158h693v-135h-690v-154zM399 1180v397h1243v-1219h-1230v408h143v-258l940 4v915h-938v-247h-158z" />
<glyph unicode="=" horiz-adv-x="1687" d="M102 403v105h1483v-98h-651v-254h-166v247h-666zM127 702v392q102 66 223 254t201 354h596q84 -170 205 -356.5t221 -251.5v-392h-166v-172h-166v172h-780v-172h-166v172h-168zM268 907q0 -43 32 -65.5t77 -22.5q47 0 76.5 22.5t29.5 65.5h2q0 43 -31.5 67.5t-74.5 24.5 q-45 0 -78 -24.5t-33 -67.5zM360 1243h979l-190 342h-596zM1214 907q0 -41 33 -64.5t74 -23.5q45 0 78 22.5t33 65.5t-32 67.5t-75 24.5q-45 0 -78 -24.5t-33 -67.5z" />
<glyph unicode="&#x3e;" horiz-adv-x="1708" d="M102 899v135h691v158l219 -223l-217 -224v154h-693zM362 1180v397h1244v-1219h-1231v408h143v-258h940v919h-938v-247h-158z" />
<glyph unicode="?" horiz-adv-x="1478" d="M102 606v582q0 55 32 89t88.5 42t106.5 8t114.5 -5t84.5 -5q2 12 0 35.5t-2 31.5q0 109 68 109h291q25 0 40 -12.5t20 -36t6 -43t0 -48t-1 -36.5q23 0 88.5 5t115.5 6t105.5 -8t86 -42t30.5 -90v-588q0 -59 -31.5 -94t-91.5 -35h-268l-457 4q-23 0 -88 -6t-115.5 -6 t-105.5 8t-86 42t-31 93zM547 1047h67q0 53 31 83.5t82 30.5q61 0 89 -26.5t28 -87.5q0 -25 -23.5 -49.5t-51.5 -48t-51.5 -86t-23.5 -152.5h68q0 76 23.5 130t51 78.5t51 57.5t23.5 70q0 182 -186 182q-84 0 -131 -49.5t-47 -132.5zM590 1319h305q0 117 -47 117 q-35 0 -105.5 -1t-107.5 -1q-45 0 -45 -115zM690 559h72v74h-72v-74z" />
<glyph unicode="@" horiz-adv-x="1599" d="M102 901q0 35 176.5 227.5t364.5 369.5t219 177q16 0 32.5 -7t26 -15t26 -23.5t24.5 -21.5q-25 16 -60 16q-41 0 -107.5 -50t-117.5 -105.5t-113.5 -126t-68.5 -78.5l-70 -66q-72 -66 -127 -120t-107.5 -122.5t-52.5 -103.5q0 -37 21 -57l-10 10t-10.5 10t-10.5 10 t-9 11.5t-8 11.5t-7 11t-5.5 12.5t-4.5 14.5t-1 15zM182 817q0 51 355.5 412.5t404.5 361.5q23 0 39 -9t38 -30.5t32 -29.5q-25 16 -60 16q-41 0 -108.5 -50t-118.5 -105.5t-112.5 -126t-67.5 -76.5q-4 -4 -50.5 -46t-92.5 -88.5t-97 -100.5t-84 -102t-33 -75q0 -33 23 -61 q-2 4 -20.5 23.5t-24.5 27.5t-14.5 25.5t-8.5 33.5zM258 733q0 47 184.5 241.5t371.5 366.5t202 172q57 -14 269 -224t212 -261q0 -43 -354.5 -408.5t-411.5 -365.5q-31 0 -252 214t-221 265zM336 735q0 -49 172 -224t217 -175q51 0 369.5 322.5t318.5 371.5t-182 225.5 t-213 176.5q-16 0 -185 -158t-333 -331t-164 -208zM406 766l40 41l162 -166l-43 -37zM915 1157l41 41l240 -240l-41 -40zM997 1313l41 43l308 -320l-41 -39z" />
<glyph unicode="A" horiz-adv-x="1470" d="M102 946q0 453 377 453q76 0 143.5 -44t112.5 -114q78 90 142.5 133t160.5 43h2q250 0 328 -239q-96 -27 -145 -112t-49 -189q0 -98 40.5 -182.5t122.5 -121.5q0 -88 -131 -217t-217 -129q-27 0 -85 27t-95 27q-43 0 -124 -18.5t-122 -18.5q-104 0 -215.5 136t-178.5 301 t-67 265zM176 942q0 -86 57.5 -232.5t152.5 -270.5t183 -124q43 0 124 19.5t122 19.5q29 0 83 -26.5t85 -26.5q68 0 161 88t101 156q-74 35 -106.5 132t-32.5 200q0 223 174 327q-66 143 -213 144q-29 0 -52.5 -2.5t-47 -10.5t-39 -12t-36 -20.5t-30.5 -22.5t-31.5 -28.5 t-27.5 -30t-32 -37t-32 -37.5q-2 2 -23.5 26.5t-24.5 27.5t-22.5 24.5t-25.5 25.5t-24.5 19.5t-28.5 19.5t-28.5 14.5t-33 13.5t-33 6t-38.5 3q-281 0 -281 -385zM721 1413q0 111 72 202t176 120q0 -289 -232 -432q-16 74 -16 110zM764 1370q121 137 162 301l-24.5 -14 t-21 -16.5t-16.5 -15.5t-16 -18.5t-13.5 -18.5t-15.5 -22.5t-16 -23.5q-39 -55 -39 -172z" />
<glyph unicode="B" horiz-adv-x="1662" d="M102 350v1174l58 -2v114h573q47 0 75 -36.5t28 -83.5q49 120 93 120h1h573v-114l58 2v-1174q-12 0 -89 1t-155 1h-164t-145.5 -3t-71.5 -7q-33 -53 -100 -53l-52 6l-55 47q-12 4 -71.5 7t-145.5 3h-165t-155.5 -1t-89.5 -1zM211 514h502q27 0 84 -57q-2 166 -2 997 q-8 47 -33 92t-62 45h-489v-1077zM864 1163l2 -706q57 57 84 57h502v1077h-489q-35 0 -62 -45t-37 -92v-291z" />
<glyph unicode="C" horiz-adv-x="1671" d="M102 958q0 326 205 533t529 207q326 0 529.5 -207t203.5 -533q0 -328 -204 -534.5t-529 -206.5q-322 0 -528 209t-206 532zM207 956.5q0 -276.5 175 -454.5t451.5 -178t451.5 178t175 454q0 281 -173 457t-453 176q-276 0 -451.5 -178t-175.5 -454.5zM264 940v49l164 2 v-49zM573 1202l62 -16l176 -195l369 365h53l-12 -51l-414 -394q-6 6 -41 40t-64.5 66t-62.5 69.5t-51 68.5q-15 25 -16 41q0 3 1 6zM807 403v166h49v-166h-49zM807 1356v164h49v-164h-49zM1231 936v49l164 2v-49z" />
<glyph unicode="D" horiz-adv-x="2160" d="M102 0v1933h1956l-2 -467h-102v-125h98l-4 -1341h-1946zM205 104h1741l4 1127h-99v352h103l2 248h-1751v-1727zM266 1427v332h799v-332h-799zM317 1468h707v238h-707v-238zM748 963q0 135 86 222t221 87t221 -87t86 -222.5t-86 -223.5t-221 -88q-133 0 -220 89t-87 223z M813 965q0 -113 75 -182.5t187 -69.5q98 0 165 75t67 173q0 113 -74 181t-189 68q-98 0 -164.5 -72.5t-66.5 -172.5zM971 238v223q0 47 22.5 79.5t67.5 32.5q43 0 66.5 -33.5t23.5 -78.5v-223q0 -51 -20.5 -77t-69.5 -26q-45 0 -67.5 29t-22.5 74zM1008 254q0 -88 53 -88 q27 0 39 13.5t14 27.5t2 43v192q0 96 -55 97q-53 0 -53 -97v-188z" />
<glyph unicode="E" horiz-adv-x="1662" d="M102 406v1052h1459v-1052h-1459zM203 592l336 336l-336 340v-676zM285 1356l538 -547l539 547h-1077zM291 512h1065l-322 328l-211 -211l-209 211zM1110 936l340 -344v688z" />
<glyph unicode="F" horiz-adv-x="1179" d="M102 821q0 23 15.5 38t38.5 15q53 0 53 -53q0 -51 -53.5 -51t-53.5 51zM141 913l262 441h367l262 -441l-94 -57l-193 320l-69 -146l258 -495h-250v-357h-195v357h-249l258 495l-70 146l-192 -320zM428 1573q0 68 45 113t113 45q70 0 114.5 -44t44.5 -116q0 -70 -44 -115 t-113.5 -45t-114.5 46t-45 116zM971 821q0 23 15 38t38 15q53 0 53 -53q0 -51 -53 -51t-53 51z" />
<glyph unicode="G" horiz-adv-x="1671" d="M102 958q0 324 206 532t528 208q324 0 528.5 -208t204.5 -531.5t-205 -532.5t-528 -209q-319 0 -526.5 211t-207.5 530zM176 956.5q0 -288.5 185.5 -478t472.5 -189.5q291 0 474 188t183 479q0 293 -183.5 478.5t-473.5 185.5q-289 0 -473.5 -187.5t-184.5 -476zM266 760 v409h352v355h398v-355h352v-409h-352v-357h-398v357h-352z" />
<glyph unicode="H" horiz-adv-x="1724" d="M102 692q0 160 106.5 315.5t256.5 184.5l4 -117q-119 -47 -194.5 -157.5t-75.5 -237.5q0 -174 133 -294t309 -120q135 0 246.5 78t159.5 207h116q-8 -100 -94 -189.5t-199.5 -137.5t-214.5 -48q-217 0 -385 150.5t-168 365.5zM590 700v799q0 78 47 136.5t123 58.5 q74 0 122 -48.5t48 -121.5q0 -94 -78 -146q-43 -29 -88 -29q-37 0 -76 19v-262h467v-115h-467v-174h569l259 -475h106v-113h-233q7 16 7 39q0 63 -56 178q-76 156 -144 254h-606z" />
<glyph unicode="I" horiz-adv-x="811" d="M102 1315q0 35 129 135t138 119q6 18 9 60t7 59q8 10 21 14q24 -12 24 -48q0 -32 10 -69q10 -39 60 -63q49 -27 129 -100.5t80 -108.5l-9 -13l-32 -12v-1067h-525v1067q-41 8 -41 27zM195 1190h172v-64h-168v-57h110v-65h-110v-58h168v-63h-168v-58h110v-61h-110v-59h168 v-62h-168v-57h110v-62h-110v-59h168v-62h-168v-129h409v1014h-413v-98z" />
<glyph unicode="J" horiz-adv-x="1802" d="M102 465q18 18 92 81.5t120 118t46 99.5q0 57 -48 117.5t-115.5 123t-90.5 97.5q8 8 37 8q86 0 162 -51t146.5 -116.5t126.5 -84.5q51 33 121.5 85t105.5 74.5t93 49.5t125 37t161 10q166 0 281.5 -67.5t234.5 -208.5q-106 -53 -106 -111t106 -113 q-88 -123 -242.5 -202.5t-302.5 -79.5q-131 0 -219 27.5t-129 62.5t-117 111.5t-141 128.5q-51 -12 -183.5 -106.5t-230.5 -94.5zM1350 813q0 -29 17 -47t46 -18q27 0 46.5 19t19.5 46q0 29 -18.5 47.5t-47.5 18.5q-63 0 -63 -66zM1354 1286q20 -10 94 -20q10 -10 22.5 -38 t26.5 -44.5t39 -16.5t40 26t15 52v516h54v-516q0 -53 -31 -93t-82 -40q-33 0 -52.5 22.5t-36 58.5t-28.5 50q-6 6 -61 43z" />
<glyph unicode="K" horiz-adv-x="1644" d="M102 365v1224q0 37 30 64.5t67 27.5h250v-114h-175v-64h175v-61h-175v-62h175v-63h-175v-62h175v-61h-175v-64h175v-61h-175v-61h175v-62h-175v-63h175v-62h-175v-61h175v-64h-175v-61h175v-62h-175v-63h175v-61h-175v-62h175v-117h-250q-37 0 -67 29t-30 66zM588 469 q0 51 43 88t94 55.5t94 54t43 85.5l2 626v213l2 131q59 0 102.5 -27.5t68 -80.5t40 -108.5t19.5 -133.5t4 -129t-2 -122.5t-2 -92.5q0 -94 46 -163.5t111.5 -110.5t131 -80t111.5 -97.5t46 -136.5q0 -92 -61.5 -149.5t-155.5 -57.5q-88 0 -152.5 88.5t-64.5 180.5 q0 33 20.5 101.5t20.5 105.5q0 35 -31 63.5t-67.5 28.5t-61 -28t-24.5 -64q0 -45 28.5 -123t28.5 -117q0 -88 -60.5 -157.5t-148.5 -69.5t-156.5 69.5t-68.5 157.5zM659 461q0 -51 53.5 -103.5t102.5 -52.5q55 0 98 48.5t43 103.5q0 57 -34.5 90t-92 33t-114 -32t-56.5 -87z M924 1073h69q2 14 2 43v78q0 451 -57 451h-14v-572zM926 946.5q0 -20.5 13 -36t33.5 -15.5t34 15.5t13.5 35.5q0 47 -47 47q-20 0 -33.5 -13t-13.5 -33.5zM1184 465q0 -59 41 -110.5t100 -51.5q63 0 102 32t39 93q0 74 -45 126t-118 52q-55 0 -87 -42t-32 -99z" />
<glyph unicode="L" horiz-adv-x="1361" d="M102 1454q0 76 60.5 132t136.5 56q78 0 128 -53t50 -133q0 -51 -25.5 -98t-68.5 -72v-659h526v49l-102 92l274 283l179 -174l-175 -183v-235l-86 -56h-870l-2 125v279l2 305q0 18 3 43t11.5 55.5t24.5 48t39 11.5v18q-45 18 -75 67.5t-30 98.5z" />
<glyph unicode="M" horiz-adv-x="1179" d="M102 821q0 23 15.5 38t38.5 15q53 0 53 -53q0 -51 -53.5 -51t-53.5 51zM141 913l262 441h367l262 -441l-94 -57l-168 256l-74 -268l328 -674h-209l-219 451l-221 -451h-217l327 674l-90 268l-159 -256zM428 1569q0 68 45 112.5t113 44.5q70 0 114.5 -44t44.5 -115.5 t-43 -115.5t-114 -44q-70 0 -115 46t-45 116zM971 821q0 23 15 38t38 15q53 0 53 -53q0 -51 -53 -51t-53 51z" />
<glyph unicode="N" horiz-adv-x="1236" d="M102 821v223h861v-223h-861zM156 862h127v142h-127v-142zM328 862h585v142h-585v-142zM799 1450q43 -16 55 -39q8 -10 20 -35l39 -39q14 -14 45 -36.5t41 -30.5q23 -16 48.5 -69.5t25.5 -80.5l-4 -6l-8 4q-37 18 -70 55t-46 60.5t-44 81.5q-10 20 -27 61q-49 49 -75 74z M1016 827v211h119v-211h-119z" />
<glyph unicode="O" horiz-adv-x="1734" d="M102 203v80l2 28q25 12 97.5 70.5t89.5 60.5q29 -8 58.5 -45t51.5 -39q20 8 53 46t64 38q27 0 62.5 -36.5t54.5 -45.5q27 8 57.5 45t57.5 37q29 0 64.5 -36.5t51.5 -45.5q23 8 54.5 44t62.5 36q37 0 63.5 -40t53.5 -40q16 0 52 41t65 41q35 0 62.5 -42t53.5 -42 q18 0 49 35t50 41q27 -12 85 -67.5t113 -55.5l2 -69l-2 -68q-55 0 -112.5 55.5t-85.5 67.5q-18 -6 -47 -40t-52 -36q-20 8 -53 46t-63.5 38t-66.5 -41t-50 -41q-27 0 -53.5 40t-63.5 40q-31 0 -62.5 -36t-54.5 -44q-16 8 -52 45t-64 37q-25 0 -58 -37t-57 -45l-27 8 q-6 8 -18 24.5t-19.5 25t-21.5 16.5t-31 8q-31 0 -63.5 -38t-53.5 -46q-23 2 -52.5 39t-57.5 45q-37 -14 -97.5 -64.5t-89.5 -66.5zM102 471l2 70q31 12 97.5 70.5t89.5 60.5q18 -8 48 -31t56.5 -36t55.5 -13q49 0 79 62q18 37 19 66q0 19 -8 36q-6 10 -63.5 122.5t-111 215 t-53.5 104.5v143h113v181h115l2 118h225l31 144h121l30 -144h226l2 -118h114v-181h113v-143q0 -2 -53.5 -104.5t-110.5 -215t-63 -122.5q-8 -17 -8 -36q0 -30 20 -66q32 -60 80 -60q29 0 54.5 10t61 31.5t46.5 28.5q31 -10 86 -66.5t112 -56.5l2 -70l-2 -68 q-53 0 -113.5 56.5t-84.5 68.5q-16 -6 -48 -40.5t-51 -36.5q-25 10 -54.5 42.5t-61.5 43.5q-31 -8 -63 -41t-54 -43q-16 6 -53 44t-64 38q-23 0 -60.5 -38t-56.5 -44q-20 10 -52 42.5t-64 41.5q-25 -8 -58 -42t-57 -42l-27 8q-8 8 -19 23.5t-17.5 20.5t-19.5 14t-34 18 q-33 -10 -62.5 -43t-54.5 -43q-16 2 -56 39.5t-54 46.5q-37 -12 -97.5 -64.5t-89.5 -69.5zM481 1341h119v64h119v76h285v-76h118v-64h119v125h-117v117h-526v-117h-117v-125z" />
<glyph unicode="P" horiz-adv-x="1644" d="M102 582l2 153l635 488q0 10 -4 75.5t-4 125t5 131t27.5 127t59.5 77.5q37 -20 59.5 -75.5t27.5 -127.5q4 -60 4 -114v-20q-1 -62 -5 -126.5t-4 -72.5l635 -488l2 -153l-635 235v-364l168 -179v-106l-203 145q-2 -8 -4 -36.5t-4 -44t-11 -35t-26 -29.5q-10 6 -17 14 t-13 19.5t-9.5 19.5t-6.5 24.5t-4 22.5t-3 23.5t-2 21.5l-203 -145v106l168 179v364z" />
<glyph unicode="Q" horiz-adv-x="1495" d="M102 1405l66 57h750l282 299h98l-294 -299h323l66 -57l-584 -596l2 -463h274v-125l-671 4v125h274v459zM311 1348l430 -437l430 437h-860zM578 1122q0 41 27.5 66.5t68.5 25.5t66.5 -28.5t25.5 -71.5q0 -41 -27.5 -65.5t-68.5 -24.5t-66.5 28.5t-25.5 69.5z" />
<glyph unicode="R" horiz-adv-x="1638" d="M102 1300v402h50v-402l22 -34l39 -15l43 15l23 34v402h49v-402l22 -34l43 -15l41 17l21 32v402h49v-402q0 -14 -5 -29.5t-12.5 -27.5t-21.5 -27.5t-23.5 -24.5t-28 -24.5t-26.5 -20.5t-28.5 -19.5t-22.5 -16.5q6 -98 23.5 -407.5t29.5 -477.5h-172q33 590 53 885 q-47 33 -72.5 51.5t-60.5 60.5t-35 78zM625 928v772q74 -43 118.5 -127t57 -198.5t14.5 -204.5v-42q0 -76 -5 -170q-7 -122 -7 -157v-576h-119v187q0 23 12 161q6 64 6 116q0 60 -8 105q-14 83 -69 134zM920 297q0 49 2 74q231 0 359 174t128 415.5t-128 413.5t-359 172 q-2 25 -2 76q0 49 2 74q199 0 341 -106.5t207.5 -269t65.5 -357.5q0 -193 -65.5 -357t-209 -272.5t-339.5 -108.5q-2 25 -2 72zM920 655v613l2 211q193 0 301 -160t108 -362.5t-107.5 -357.5t-301.5 -155z" />
<glyph unicode="S" horiz-adv-x="1771" d="M102 635l1094 1120l373 -1120h-348v-62h321q-4 -4 -34.5 -30.5t-43 -38.5t-36 -35t-37 -43t-19.5 -41l25 -14q33 49 76 63q29 -10 83 -66.5t111 -56.5l2 -69l-2 -68q-53 0 -112.5 56.5t-86.5 66.5q-20 -6 -48.5 -40t-49.5 -36q-25 10 -53.5 42t-63.5 42 q-27 -12 -61.5 -42t-54.5 -40q-18 6 -55.5 43t-61.5 37q-27 0 -63.5 -37t-53.5 -43q-23 10 -57.5 40t-59.5 42q-27 -8 -58.5 -41t-55.5 -41q-23 10 -57.5 40t-59.5 42q-35 -10 -64.5 -43t-52.5 -41q-20 2 -56 39t-54 45q-27 -4 -93.5 -61.5t-93.5 -69.5l-2 68l2 69 q29 12 95.5 70.5t91.5 60.5q16 -8 55 -45t55 -39q20 8 53 41t60 41l59 -26l-174 159h731v62h-1065zM254 696h913v936zM1221 696h254l-254 799v-799z" />
<glyph unicode="T" horiz-adv-x="1648" d="M102 406v391q102 66 223 254t201 354h105v123h387v-123h104q84 -170 204 -356.5t220 -251.5v-391h-166v-175h-166v175h-780v-175h-166v175h-166zM244 610q0 -43 31.5 -65.5t76.5 -22.5t76 22.5t31 65.5t-31 66.5t-76 23.5q-43 0 -75.5 -24.5t-32.5 -65.5zM336 946h977 l-191 340h-596zM674 1405h301v86h-301v-86zM1190 610q0 -41 32.5 -64.5t73.5 -23.5q109 0 109 88q0 41 -32 65.5t-75 24.5t-75.5 -24.5t-32.5 -65.5z" />
<glyph unicode="U" horiz-adv-x="2160" d="M102 0v1932h1956v-1932h-1956zM223 672l4 -307h111v-179h1499v179h119l2 307h-184v-305l-64 -64l-237 2v182h-82v-182h-607v182h-82v-182l-237 -2l-64 64v305h-178zM440 608h140l75 66v67h-137v-67h-78v-66zM463 852h59v-57h1139v59h63v791q-288 154 -622 154l-2 -1 q-336 0 -637 -153v-793zM584 1157v420q276 133 518 133q254 0 506 -133v-416zM705 518h104v-51h29v299h-29v-47h-104v-201zM877 610h118l33 -61h125l33 61h119v109h-185l-30 -60l-29 60h-184v-109zM1339 467h29v51h105v201h-105v47h-29v-299zM1530 674l69 -66h140v66h-78v67 h-131v-67z" />
<glyph unicode="V" horiz-adv-x="1837" d="M102 190v115h590q-104 21 -104 118q0 27 8 60q-125 4 -377 4h-82v86h49q0 115 1 194t11.5 154.5t18.5 123t36 91.5t49.5 67.5t73.5 44t94 27.5t125 11q66 3 124 3h27q68 -1 190 -3l-303 146l375 174l-23 34h88l-22 -34l374 -174l-303 -146h559v-799l-335 -2 q12 -61 12 -63q0 -86 -109 -117h486v-115h-1633zM256 956h201l108 283q-4 0 -11 1t-11 1h-41q-135 0 -191 -125q-55 -127 -55 -160zM737 1432q209 -104 219 -105h152l215 105l-293 133zM739 305h463q-53 14 -79.5 40t-26.5 77q-20 0 -62.5 1t-63 1t-62.5 -1t-62 -1 q0 -53 -25.5 -76.5t-81.5 -40.5z" />
<glyph unicode="W" horiz-adv-x="1531" d="M102 1399l41 33h263v276l32 45l29 -45v-338h-328zM170 1130v58l51 51h55v-49l-57 -60h-49zM170 1612v55h49l57 -57v-49h-55zM174 602q0 57 31 96t72.5 56.5t106.5 25.5q58 7 101 7h11q47 -1 111.5 -4t82.5 -3h359l36 123q35 115 59.5 221.5t59.5 280.5t45 221 q2 14 24.5 25.5t37.5 11.5q80 0 119 -29q-12 -152 -92 -517q-78 -352 -78 -549v-15h-910v-68l944 2v410h119v-711h-119v183h-942v-183h-112v367h-60q-6 20 -6 49zM406 1065v119h57v-119h-57zM596 1184v55h49l57 -57v-52h-55zM596 1561v49l57 57h49v-55l-51 -51h-55z" />
<glyph unicode="X" horiz-adv-x="1810" d="M102 1530l91 35q18 -182 157 -290t328 -108q-84 78 -84 193q0 119 66.5 193.5t183.5 74.5q125 0 196.5 -80t71.5 -207q0 -96 -88 -174q145 61 226 145.5t81 221.5q0 66 -18 127l395 -602q-53 20 -117 20q-80 0 -171 -33.5t-160.5 -75.5t-162.5 -76t-175 -34 q-293 0 -528.5 190.5t-291.5 479.5zM307 199v596h1254v-596h-1254zM377 311l299 211l-299 156v-367zM422 256h1048l-315 231l-209 -98l-209 98zM430 729l516 -262l504 262h-1020zM692 1372q0 -72 46 -118t118 -46q70 0 113 45t43 115q0 74 -45 118t-119 44q-68 0 -112 -45 t-44 -113zM1212 522l299 -211v367z" />
<glyph unicode="Y" horiz-adv-x="1916" d="M102 213v242h84q59 0 60 -62q0 -39 -27 -61q27 -33 27 -119h-25q0 102 -26 102h-68v-102h-25zM129 342h70q24 23 24 51.5t-12 30.5l-23 6h-59v-88zM270 213v242h123v-27h-96v-86h96v-27h-96v-75h96v-27h-123zM414 285h24v-7q0 -38 43 -38q55 0 56 28q0 27 -61.5 60.5 t-61.5 64.5q0 61 67 62q74 0 74 -62h-27q0 35 -47 35q-43 0 -43 -31q0 -20 31 -36.5t62.5 -38t31.5 -52.5q0 -57 -82 -57q-67 0 -67 63v9zM483 715q0 125 82 125l353 -2l290 -2q23 125 131 415q6 18 28 93t37 115t55 79t93 39q33 0 65.5 -20.5t24.5 -51.5 q-45 -152 -133 -454.5t-133 -454.5l-811 -4q-82 0 -82 123zM575 213v242h123v-27h-96v-86h96v-27h-96v-75h96v-27h-123zM664 1026v483h221q61 0 101 -30.5t40 -87.5q0 -12 1 -39t0 -34t-4 -23.5t-10 -22.5t-21.5 -14.5t-35.5 -16.5q70 0 70 -61v-154h-121q0 14 1 39t1 35 t-3 24.5t-10 20.5t-21.5 10t-36.5 4h-60v-133h-112zM727 213v242h84q27 0 43 -17.5t16 -44t-4 -36t-22 -25.5q26 -33 26 -119h-24q0 102 -27 102h-67v-102h-25zM754 342h69q25 23 25 51.5t-12 30.5l-23 6h-59v-88zM776 1266h94q18 6 21 6q12 2 12 20v74q0 14 -12 20l-19 9 h-96v-129zM879 455h28l41 -207l39 207h29l-49 -242h-39zM1006 213l49 242h43l49 -242h-31l-20 102h-39l-21 -102h-30zM1061 342h31l-15 78zM1133 428v27h131v-27h-52v-215h-28v215h-51zM1288 213v242h29v-242h-29zM1339 336q0 43 16.5 81t53.5 38t56.5 -39t19.5 -82 t-17.5 -82t-54.5 -39q-39 0 -56.5 39t-17.5 84zM1362 336q0 -98 49 -98q51 0 51 96t-53 96q-47 0 -47 -94zM1507 213v242h33l74 -205v205h26v-242h-38l-68 180v-180h-27zM1665 285h25v-7q0 -38 43 -38q55 0 55 28q0 27 -61.5 60.5t-61.5 64.5q0 61 68 62q74 0 73 -62h-26 q0 35 -47 35q-43 0 -43 -31q0 -23 62.5 -55.5t62.5 -71.5q0 -57 -82 -57q-68 0 -68 65v7z" />
<glyph unicode="Z" horiz-adv-x="1812" d="M102 203v1349l142 177l143 -177v-1349h-285zM160 258h170v113h-170v-113zM160 428h170v1042h-170v-1042zM160 1528h172l-51 76h-68zM518 786v856h176v-57h684l37 -47v-442h66v360l61 62h168v-115h-115v-422h-180v-616h119v-162h-832v162h537v247h-528l-70 62v112h-123z M575 1581l5 -729h49v729h-54z" />
<glyph unicode="[" horiz-adv-x="1572" d="M102 209q0 33 20.5 52.5t53.5 19.5t51.5 -19.5t18.5 -52.5t-20.5 -52.5t-53.5 -19.5q-31 0 -50.5 20.5t-19.5 51.5zM209 311v1049h1229v-39h32v-57h-32v-949h-21v-104q-23 25 -31 74t-2 84h-1122v-158q-45 63 -33 100h-20zM262 414h1122v526h-1122v-526zM262 985h1122 v320h-1122v-320zM1257 209q0 33 20.5 52.5t53.5 19.5t51.5 -19.5t18.5 -52.5t-20.5 -52.5t-53.5 -19.5q-31 0 -50.5 20.5t-19.5 51.5z" />
<glyph unicode="\" d="M102 2v1933h1958v-1933h-1958zM205 106h1753v1727h-1753v-1727z" />
<glyph unicode="]" horiz-adv-x="1773" d="M102 1206.5q0 20.5 15.5 33.5t36.5 13q23 0 37 -16t14 -39q0 -20 -14.5 -33.5t-36.5 -13.5q-20 0 -36 17.5t-16 38zM160 1034q0 102 177 212t288 110q35 0 58.5 -10.5t35.5 -25.5t19 -43t8.5 -49.5t1.5 -56.5q0 -45 -21.5 -80.5t-52.5 -61t-61.5 -53.5t-52 -71t-21.5 -98 q0 -47 28.5 -99.5t57 -122t28.5 -159.5q0 -39 -4 -77t-17.5 -84t-42 -73.5t-69.5 -27.5q-238 0 -237 541q0 55 -61.5 184t-61.5 145zM188 1308.5q0 20.5 15.5 35t36.5 14.5q23 0 37 -17.5t14 -40.5q0 -20 -14.5 -33.5t-36.5 -13.5q-20 0 -36 17.5t-16 38zM287 1398.5 q0 24.5 17.5 40t41.5 15.5q27 0 44.5 -19t17.5 -46q0 -23 -17.5 -40.5t-42 -17.5t-43 21.5t-18.5 46zM418 1468q0 29 21.5 48.5t50 19.5t48 -23.5t19.5 -52t-21.5 -48t-50 -19.5t-48 22.5t-19.5 52.5zM578 1524q0 51 21.5 98t66.5 47t67.5 -50t22.5 -101q0 -121 -90 -121 q-43 0 -65.5 41t-22.5 86zM1018 1518q0 51 23.5 101t66.5 50t65.5 -48t22.5 -97t-21.5 -88t-66.5 -39q-47 0 -68.5 35.5t-21.5 85.5zM1028 1173.5q0 49.5 2 74t13.5 54t37 42t68.5 12.5q115 0 290 -109t175 -213q0 -29 -29 -90t-58.5 -146t-29.5 -171q0 -63 -9 -132 t-32.5 -149t-76 -131t-126.5 -51q-51 0 -82.5 51t-41 104.5t-9.5 106.5q0 109 57.5 220.5t57.5 160.5q0 59 -21.5 102t-52.5 69t-60.5 50.5t-51 60t-21.5 85zM1217 1460q0 29 19 52.5t48 23.5t50.5 -19.5t21.5 -48.5q0 -31 -18.5 -53t-49.5 -22t-51 18.5t-20 48.5z M1366 1388.5q0 24.5 18.5 45t43 20.5t42 -15.5t17.5 -40t-18.5 -46t-43 -21.5t-42 16.5t-17.5 41zM1483 1300q0 23 15 40.5t35.5 17.5t36 -14.5t15.5 -34.5q0 -23 -14.5 -39.5t-36.5 -16.5q-20 0 -35.5 13.5t-15.5 33.5zM1569 1198.5q0 20.5 15 37.5t36 17q23 0 37 -13.5 t14 -33.5q0 -23 -14.5 -39t-36.5 -16q-20 0 -35.5 13.5t-15.5 34z" />
<glyph unicode="^" horiz-adv-x="1642" d="M102 1186v495h117v-180h123v174h1192v-55h-1143v-373h1143v-55h-1192v174h-123v-180h-117zM342 336q0 53 32 85t85 32q51 0 83.5 -33t32.5 -84t-32.5 -85t-83.5 -34t-84 34t-33 85zM342 950.5q0 53.5 32 85t85 31.5q51 0 83.5 -33t32.5 -84q0 -55 -30.5 -87t-85.5 -32 q-51 0 -84 33t-33 86.5zM526 633q0 51 33 85t84 34t84 -34t33 -85q0 -49 -34 -84t-83 -35q-51 0 -84 34t-33 85zM705 336q0 53 32.5 85t83.5 32t84 -33t33 -84t-33 -85t-84 -34t-83.5 34t-32.5 85zM705 950.5q0 53.5 32.5 85t83.5 31.5t84 -33t33 -84q0 -55 -30.5 -87 t-86.5 -32q-51 0 -83.5 33t-32.5 86.5zM883 633q0 51 32.5 85t84 34t84 -34t32.5 -85q0 -49 -33.5 -84t-83 -35t-83 35t-33.5 84zM1067 336q0 53 31.5 85t85.5 32q51 0 83.5 -33t32.5 -84t-32.5 -85t-83.5 -34t-84 34t-33 85zM1067 950.5q0 53.5 31.5 85t85.5 31.5 q51 0 83.5 -33t32.5 -84q0 -55 -30.5 -87t-85.5 -32q-51 0 -84 33t-33 86.5zM1245 633q0 51 33 85t84 34t84 -34t33 -85q0 -49 -34 -84t-83 -35t-83 35t-34 84zM1423 336q0 45 36 81t81 36v-236q-117 0 -117 119zM1423 950q0 45 36 81t81 36v-236q-117 0 -117 119z" />
<glyph unicode="_" horiz-adv-x="1806" d="M102 1008q0 162 101.5 268t263.5 106q125 0 221 -71.5t135 -190.5q20 0 134 4t218.5 4t224.5 -3t201.5 -20.5t102.5 -45.5v-66l-123 -96l-49 68h-90l-45 -68l-49 68h-91l-45 -68l-110 100l-115 -133l-168 -2q-39 -104 -137 -166.5t-213 -62.5q-162 0 -264.5 105.5 t-102.5 269.5zM197 995q0 -53 30.5 -84.5t81.5 -31.5q49 0 80 31.5t31 80.5q0 53 -31 84t-82 31q-49 0 -79.5 -31t-30.5 -80z" />
<glyph unicode="a" horiz-adv-x="1470" d="M102 946q0 127 10.5 199t46.5 137.5t109.5 92t194.5 26.5q72 0 171 -54.5t142 -64.5q96 127 295 127q109 0 185.5 -61t111.5 -170q-96 -27 -145 -112t-49 -189q0 -100 39.5 -183.5t123.5 -120.5q0 -88 -131 -217t-217 -129q-25 0 -85 27t-95 27q-43 0 -124 -18.5 t-122 -18.5q-104 0 -215.5 136t-178.5 301t-67 265zM725 1313q0 154 82.5 262.5t234.5 126.5q-63 -242 -317 -389z" />
<glyph unicode="b" horiz-adv-x="1687" d="M102 373v516q0 86 6.5 171t22.5 193.5t25.5 159.5t37 191.5t31.5 167.5q57 0 194.5 6t211.5 6h426q74 0 211 -6t194 -6q6 -31 33 -167.5t36 -189.5t25.5 -160.5t22.5 -192.5t6 -171v-518h-176v-191h-172v191h-786v-191h-172v191h-177zM219 903l60 -51h466l70 53l2 672 q-334 0 -500 2q-39 -127 -68.5 -333t-29.5 -343zM313 573q0 -45 31 -67.5t78 -22.5q45 0 75.5 23.5t30.5 66.5t-30.5 67t-75.5 24q-43 0 -76 -24t-33 -67zM594 1642h477v91h-477v-91zM881 905l69 -53h467l60 51q-29 426 -99 672l-387 2h-108zM1217 573q0 -43 30.5 -66.5 t77.5 -23.5q45 0 76 23.5t31 66.5t-31 67t-76 24q-43 0 -75.5 -24t-32.5 -67z" />
<glyph unicode="c" horiz-adv-x="1533" d="M102 1020h1135q-147 -319 -227 -440q-102 -162 -209 -232h-219q-53 0 -129 84t-149 207t-123 218t-79 163zM111 244v49h1241v-49h-1241zM301 899q29 -66 75 -154t118.5 -186t119.5 -98h142q122 73 284 438h-739zM406 1085q2 29 2 89q0 31 30.5 30.5t30.5 28.5q0 14 -6 27 q-8 4 -25.5 6t-23.5 8t-6 24v117q0 31 30.5 31t30.5 29q0 14 -6 26q-8 4 -25.5 6t-23.5 8.5t-6 24.5v137q14 6 30 11l25 -11q-1 -9 -1 -21q0 -24 3 -59q2 -18 11 -24t19.5 -4t19.5 -5.5t9 -25.5v-121q0 -31 -30.5 -31t-30.5 -28q0 -16 6 -29q4 0 13.5 -1t13.5 -2t10 -3 t10 -6t6 -10.5t2 -16.5v-114q0 -14 -4 -20.5t-8 -7.5t-16 -1h-11q-22 0 -22 -57v-5q-14 -8 -29 -8q-16 0 -28 8zM647 1677l29 11l29 -11q2 -47 6 -51q8 -6 34 -6q20 0 21 -31v-116q0 -14 -6 -27q-8 -4 -25.5 -8t-19.5 -4q-10 -14 -10 -27q0 -29 30.5 -29t30.5 -30v-123 q0 -29 -29.5 -29t-29.5 -29q0 -12 -1 -40.5t-1 -41.5l-25 -10q-16 4 -31 10v138q0 16 8 26q6 2 22.5 6.5t25.5 8.5q6 10 6 24q0 18 -9.5 24.5t-21.5 4.5t-21.5 5t-9.5 28v114q0 16 8 27q6 2 22.5 6t25.5 8q6 10 6 25q0 20 -9.5 26.5t-20.5 3t-21.5 4t-10.5 27.5q-3 38 -3 64 q0 12 1 22zM884 1156q1 9 3 21.5t7 19.5t15 7q14 0 20.5 1t12.5 7.5t6 20.5t-6 27q-8 4 -25.5 6t-23.5 8t-6 24v117q0 31 30.5 31t30.5 29q0 14 -6 26q-8 4 -25.5 6t-23.5 8.5t-6 24.5v137q14 6 31 11l24 -11q0 -14 1 -40.5t1 -39.5q0 -18 9.5 -24t20.5 -4t20.5 -4t9.5 -27 v-121q0 -31 -31 -31t-31 -28q0 -16 6 -29q4 0 19.5 -3t19.5 -5t10.5 -9t6.5 -22v-114q0 -14 -4.5 -20.5t-8.5 -7.5t-16 -1h-10q-23 0 -23 -62q-14 -8 -29 -8q-16 0 -28 8v35v15q-1 8 -1 15v6zM1053 541l37 71q6 -2 43 -2q86 0 153.5 32t67.5 108q0 68 -29 97.5t-96 29.5 l41 81h2q160 0 160 -206q0 -111 -82 -163t-201 -52q-35 0 -96 4z" />
<glyph unicode="d" horiz-adv-x="1849" d="M103 642v22q0 25 1 59q2 51 2 68l-2 421v263q0 74 57.5 129t131.5 55h1253q78 0 125 -51.5t60.5 -139.5t14.5 -164v-20q0 -70 -6 -150q-7 -92 -7 -110l6 -475q2 -74 -55.5 -129t-133.5 -55h-1253q-47 0 -83 14t-56.5 46t-32.5 61.5t-16.5 77.5t-5.5 78zM212 1351v-13 q0 -40 5 -96q6 -66 6 -95v-156q0 -92 -6 -229q-1 -34 -1 -64q0 -155 35 -184q42 -35 296 -35h71h635q23 0 83 -5q50 -4 87 -4h14q40 1 87 9t70.5 39t23.5 84q0 40 4 264q2 112 2 211.5t-2 186.5q-4 174 -20 233q-35 31 -52.5 37t-62.5 6h-1127q-59 0 -94 -24.5t-44 -73.5 t-10 -91zM274 808q0 50 1 108.5t1 66.5v449q0 6 6.5 22t6.5 21q25 10 49 10h1163q23 0 47 -10q10 -14 15 -194.5t4.5 -427.5t-0.5 -261q0 -4 -7.5 -21.5t-7.5 -19.5q-29 -12 -47 -12h-837h-326q-25 0 -49 10q-6 10 -10 50t-6.5 99.5t-2.5 109.5zM305 1364q53 -10 53 -37 q-1 -38 -1 -92t1 -124q2 -140 2 -185q0 -14 4.5 -62.5t4.5 -76t-14.5 -56.5t-48.5 -35v-30q9 1 22 1q18 0 44 -2q42 -3 58 -3q207 0 336 86.5t129 281.5q0 131 -75 218q-76 87 -182 120q-95 29 -205 29h-27l-97 -2zM520 1337h31q12 0 48 -33.5t52 -52.5q62 -72 62 -209 q0 -164 -60 -229q-18 -20 -53 -49t-51 -29h-27zM899 678l6 -10q39 0 116 -1t116 -1q61 0 103 2t104.5 14t101.5 33.5t67.5 65t28.5 104.5q0 72 -41 118t-112 46q104 12 104 159q0 63 -33 105.5t-91 60t-106.5 22.5t-113.5 5q-2 0 -242 -6l-4 -31q53 -10 53 -37v-217 q0 -61 -2 -186t-2 -187q0 -31 -49 -37q-4 -16 -4 -22zM1124 1094v243q244 0 244 -127q0 -116 -240 -116h-4zM1126 731v277q246 0 246 -154q0 -123 -246 -123z" />
<glyph unicode="e" horiz-adv-x="1939" d="M102 799l1004 1016l563 -568l-479 -481q74 -74 74 -191q0 -113 -74 -190.5t-184 -77.5q-115 0 -189 68l6 -6l-147 -150zM733 580q0 22 2 32h-2v-30v-2zM768 717q29 53 80 84q-47 -27 -78 -80zM788 580q0 -96 60.5 -155.5t157.5 -59.5q88 0 146 60t58 150q0 94 -61.5 155 t-155.5 61q-92 0 -148.5 -59.5t-56.5 -151.5zM899 498h45q10 -20 47 -21q49 0 49 47q0 57 -57 58q-29 0 -39 -17h-41l8 166h179v-51h-132l-2 -68q20 4 37 4q94 0 94 -92q0 -41 -28.5 -65.5t-69.5 -24.5q-76 0 -90 64zM930 838h2h-2zM948 1423q0 -125 128 -253t253 -128 q74 0 123 52.5t49 126.5q0 127 -130 248.5t-257 121.5q-70 0 -118 -48t-48 -120zM1053 1421q0 31 19.5 50.5t49.5 19.5q80 0 177.5 -96t97.5 -176q0 -33 -18.5 -52.5t-51.5 -19.5q-80 0 -177 98t-97 176zM1276 381q0 92 56.5 151.5t148.5 59.5q96 0 156.5 -59.5t60.5 -155.5 q0 -90 -58.5 -150.5t-146.5 -60.5q-96 0 -156.5 60.5t-60.5 154.5zM1317 379q0 -78 48 -125t126 -47q74 0 119 48t45 122t-50.5 123t-123.5 49q-72 0 -118 -49t-46 -121zM1386 788v103l173 166h110l168 -166v-103l-168 -174h-102zM1403 438l57 58h53v-236h-51v189l-35 -35z M1509 713h47v258h-47v-258zM1606 844q0 -43 17 -87t52 -44t52.5 40t17.5 81q0 45 -16.5 91t-53.5 46q-39 0 -54 -41t-15 -86zM1645 844q0 80 30.5 80t30.5 -88q0 -80 -30.5 -80t-30.5 88z" />
<glyph unicode="f" horiz-adv-x="1300" d="M102 1198q0 246 154 406.5t397 160.5q236 0 390.5 -150.5t154.5 -383.5q0 -475 -491 -565v-119h356v-117h-356v-240h-119v240h-357v117h357v115q-215 31 -350.5 176t-135.5 360zM215 1200q0 -182 123 -303t305 -121q197 0 317.5 127t120.5 324q0 186 -119.5 305 t-308.5 119q-199 0 -318.5 -126t-119.5 -325z" />
<glyph unicode="g" horiz-adv-x="1404" d="M102 252v113h177v1277l65 62h594l66 -66v-108q72 -49 107.5 -77t89.5 -80t78 -109.5t24 -122.5v-619q0 -39 -39 -63.5t-80 -24.5q-43 0 -70 17.5t-35 52.5t-10 64q-1 9 -1 21q0 23 3 55q4 48 4 67q0 117 -12 146.5t-57 76.5v-569h237l-2 -115zM344 1217h598v364h-598 v-364zM397 791h488v309h-488v-309zM459 852v61h61v68h-61v53h61v-53h62v53h114v-53h66v53h61v-53h-61v-68h61v-57h-61v57h-66v-57h-114v57h-62v-61h-61zM1004 1124l2 -131q10 -8 23 -17t30.5 -20.5t25.5 -17.5q18 -12 29.5 -49t13.5 -88t2 -95t-2 -92.5t-2 -56.5 q0 -23 18.5 -46.5t41.5 -23.5q25 0 41 13.5t20 38t5 44t-1 49.5t-2 38q0 98 4 291q0 31 -18 47t-47 30.5t-41 26.5q-10 10 -12 41q-1 12 -1 27q0 21 2 47q3 43 3 47q0 145 -131 229q-4 -138 -4 -256v-76z" />
<glyph unicode="h" horiz-adv-x="1769" d="M102 1534l31 31h109q141 0 310 -10.5t290 -21.5t315.5 -30.5t294.5 -29.5l31 -31l-31 -27q-373 0 -631 53v-311h62l141 119h152l-2 -51q-82 -2 -177 -133q16 -2 97 -2l153 4q41 184 203 184q94 0 155.5 -59.5t61.5 -153.5q0 -96 -60.5 -152.5t-156.5 -56.5 q-158 0 -197 162q-96 0 -202.5 -53.5t-106.5 -139.5v-278q72 2 213 2q31 0 64 -25l22 -63l-22 -62q-20 -14 -104.5 -21t-204.5 -9q-80 -1 -154 -1h-72q-108 1 -219 3t-135 2q-8 0 -15.5 1t-13.5 3t-11 6t-9 7t-8.5 9.5t-6.5 9.5t-6 11t-5 11t-5 13.5t-6 12.5l22 63 q23 16 57.5 24.5t61.5 7.5t70 -3t59 -2v123q-59 -16 -117 -17q-113 0 -198.5 81t-85.5 194q0 141 110.5 245.5t251.5 104.5q180 0 283 -119v314q-338 33 -554 33q-39 0 -73 -1zM188 950q0 -106 148 -106q51 0 153.5 1t151.5 1h64v268q-35 45 -96.5 70.5t-125.5 25.5 q-102 0 -198.5 -79.5t-96.5 -180.5zM1292 1094h193v-52l-189 -16q12 -55 58.5 -90t103.5 -35q70 0 115 46t45 116q0 76 -45 122t-121 46q-59 0 -105.5 -39t-54.5 -98z" />
<glyph unicode="i" horiz-adv-x="1826" d="M102 979q0 356 226.5 586.5t580.5 230.5q358 0 586.5 -231.5t228.5 -589.5q0 -356 -226 -586.5t-580 -230.5q-356 0 -586 232.5t-230 588.5zM549 1092q37 0 58.5 -3.5t42 -20.5t20.5 -52v-455q0 -78 -117 -78l4 -121h741v125q-49 0 -76.5 13.5t-36.5 44t-10 57.5v12 q0 26 3 67q4 52 4 83l-2 453l-631 -3v-122zM664 1528q0 -117 76.5 -189.5t193.5 -72.5q106 0 176 76t70 182q0 121 -75 192.5t-196 71.5q-109 0 -177 -75t-68 -185z" />
<glyph unicode="j" horiz-adv-x="1810" d="M102 1513l17 5q6 -29 47 -33l-6 26q-16 -6 -17 -18l-12 8q2 2 2 4q2 4 2 6q6 12 19 19l-7 29l506 137l181 -695l-504 -137l-11 35q-45 4 -61 31q0 4 -2 8t-2 8q-6 18 -6 21v37q6 -4 14 -9q-2 -16 4 -37q0 -6 2 -10q6 -29 47 -33l-6 29q-16 -10 -16 -22q-10 4 -14 10 q2 2 2 4q2 4 2 6q4 8 20 21l-8 30q-57 4 -66 45q-2 4 -2 11l-4 12v35l13 -6q2 -4 2 -13.5v-13.5q0 -6 4 -10q0 -6 2 -11q6 -29 47 -32l-8 28q-16 -8 -17 -18l-12 8q2 2 2 4q2 4 2 6q6 10 21 19l-9 30q-49 4 -65 48l-8 22v29q0 2 1 6l1 4q4 -6 14 -10q-4 -41 7 -60.5 t46 -21.5l-8 31q-16 -12 -16 -23l-13 8q2 2 2 4q2 4 2 6q8 14 21 23l-10 33q-51 4 -64 43q0 2 -3 10t-3 12v37q4 -6 14 -10q-2 -18 7 -43q0 -2 1 -6t3 -8q12 -18 43 -19l-9 27q-14 -8 -14 -21q-10 4 -14 9q2 2 2 4q2 4 2 6q4 8 20 20l-8 31q-51 4 -65 45q-6 12 -6 23v38 l12 -8q2 -4 2 -26q0 -10 6 -23q0 -2 1 -6t3 -8q10 -14 43 -19l-8 29q-16 -12 -16 -20l-13 8q8 23 25 30l-10 35q-49 4 -64 43q-8 16 -8 23v37q4 -6 14 -11q2 -2 2 -24q2 -29 14.5 -40t36.5 -13l-8 30q-14 -10 -14 -22l-12 8q8 23 22 31l-8 30q-59 4 -68 45zM117 319l508 515 l22 10q23 8 45.5 17t26.5 11q0 -29 -47 -92t-123 -142t-146.5 -149.5t-143.5 -140t-87 -86.5zM147 330l35 -37l43 47l-32 33zM164 1544l2 -10h6q55 0 55 -23q0 -14 -12 -28.5t-27 -14.5h-6l8 -26h7q55 0 55 -23q0 -43 -39 -43h-6l8 -30h6q57 0 58 -23q0 -18 -10.5 -31.5 t-28.5 -13.5h-7l7 -27h6q57 0 57 -22q0 -43 -39 -43h-6l6 -29h6q55 0 56 -22q0 -16 -10.5 -32t-26.5 -16h-6l8 -26h6q55 0 55 -23q0 -18 -10 -31.5t-29 -13.5h-6l8 -26h7q55 0 55 -21q0 -16 -11.5 -31.5t-27.5 -15.5h-6l4 -10l475 127l-172 657zM170 1518l10 -35h6 q21 -1 21 26q-8 8 -31 9h-6zM195 1427l8 -36h8q20 -1 20 24q0 12 -30 12h-6zM215 395l33 -33l391 396l-35 35zM219 1327l10 -33h7q22 0 22 25q-10 10 -31 10q-4 0 -8 -2zM244 1235l10 -35h8q21 0 21 25q0 12 -31 12q-4 0 -8 -2zM268 877v26l2 8l13 -8v-24zM270 1141l9 -37h6 q22 -1 22 24q-10 12 -33 13h-4zM295 1044l8 -34h6q23 -1 23 26q-8 8 -31 8h-6zM319 950l11 -37h6q20 0 20 27q-10 10 -30 10h-7zM627 815l35 -35l16 39l-12 12zM776 1561q0 84 47 132t131 48q187 0 187 -180q0 -41 -23.5 -73t-51.5 -53.5t-51.5 -75.5t-23.5 -134h-67 q0 92 23.5 154.5t51 85t51 47t23.5 49.5q0 61 -27.5 86.5t-89.5 25.5q-51 0 -81.5 -29.5t-30.5 -82.5h-68zM786 254v500q0 29 26 45t68 19q25 2 50 2q16 0 32 -1q39 -2 81 -5t53 -3q0 127 45 127h211q49 0 49 -127q10 0 87 2q26 1 49 1q47 0 84 -3q56 -4 75 -18 q0 -2 6 -18.5t6 -20.5v-500q0 -25 -16.5 -40t-38.5 -15h-811q-25 0 -40.5 15t-15.5 40zM920 1071v76h71v-76h-71zM1112 1133q4 53 7 80.5t13.5 56t18.5 41t33.5 55.5t48.5 80l131 225q12 12 37 12q20 0 39 -26l37 65l24 13q35 -8 35 -31q10 14 39 14t39 -13t10 -42l-18 -33 q16 -2 34 -14q13 -8 13 -18q0 -4 -2 -9l-95 -166q41 23 60 23q12 0 29 -8q-23 -41 -54.5 -103.5t-51 -97.5t-49.5 -80t-65.5 -81t-83.5 -70l-88 51q0 2 6.5 12t10.5 21l6 10q0 20 -10 41l-13 4q-27 -4 -53 -62zM1133 1145l61 -37q23 57 66 57q6 0 18 -4q12 -14 20 -57 l-22 -37l65 -37q41 31 74 63.5t61.5 75.5t46 72t49.5 90.5t48 91.5q-8 4 -14 4q-25 0 -49.5 -23.5t-36.5 -45.5l-17 8l131 223l-8 17l-20 6l-15 -4l-127 -219l-18 12l153 262q0 16 -10 33q-8 4 -14 4q-23 0 -57.5 -54.5t-75.5 -135t-43 -83.5l-21 9l146 247q0 16 -17 29 q-12 0 -30.5 -21.5t-40 -56.5t-39 -67.5t-34.5 -65.5t-22 -41l-14 8l98 170q-14 18 -22 23q-23 0 -31 -6q-18 -31 -72.5 -115t-82 -132t-55 -123t-29.5 -140zM1139 811h219q0 82 -33 82q-14 0 -38.5 -1t-37.5 -1h-37.5h-30.5t-19.5 -3t-14.5 -12.5t-5 -24.5t-3 -40z" />
<glyph unicode="k" horiz-adv-x="2160" d="M102 0v1933h1956v-1933h-1956zM205 104l250 2v797h-66v928h-184v-1727zM504 106h184v797h-57v928h-70v-928h-57v-797zM745 106h181v1725h-123v-928h-58v-797zM995 106h181v797h-66v928h-115v-1725zM1225 106h184v797h-57v928h-70v-928h-57v-797zM1466 106h185v797h-58 v928h-69v-928h-58v-797zM1708 106l248 -2v1727h-191v-928h-57v-797z" />
<glyph unicode="l" horiz-adv-x="1798" d="M102 369l4 118h115v-118h-119zM283 803v592q0 55 31.5 89t87 42t105.5 8t114.5 -5t87.5 -5q-2 6 -2 45q0 131 67 131h291q47 0 61 -62q8 -36 9 -68q0 -24 -5 -46q23 0 87.5 5t114.5 6h10q46 0 96 -8q56 -9 87 -42t31 -90v-588q0 -59 -29.5 -93t-83.5 -44.5t-100.5 -10.5 t-112 6.5t-87.5 6.5l-402 -2q-20 0 -91.5 -6.5t-124 -6.5t-114 9.5t-95 44t-33.5 92.5zM348 369l4 118h115v-118h-119zM594 369l4 118h115v-118h-119zM770 1526h305q0 116 -46 116h-1q-37 0 -107.5 -1t-105.5 -1q-10 0 -18.5 -4t-13.5 -13t-8 -16.5t-4 -21.5t-1 -21.5v-21.5 v-16zM840 369l4 118h114v-118h-118zM1085 369l5 118h114v-118h-119zM1331 369l4 118h115v-118h-119zM1577 369l4 118h115v-118h-119z" />
<glyph unicode="m" horiz-adv-x="1726" d="M102 795q0 209 170 381t379 172q188 0 359 -136l434 424h-352v113h532v-524h-106v334l-426 -431q121 -160 120 -356q0 -211 -166.5 -378t-379.5 -167q-221 0 -392.5 173t-171.5 395zM221 788q0 -176 135.5 -311t311.5 -135q172 0 303 134t131 306q0 176 -135.5 311.5 t-311.5 135.5q-168 0 -301 -135.5t-133 -305.5z" />
<glyph unicode="n" horiz-adv-x="1486" d="M102 1212l4 99q471 39 596 102l-16 8q-16 10 -32.5 22.5t-31 39t-14.5 59.5q0 53 39 88t94.5 35t90 -37t34.5 -94q0 -45 -19.5 -71.5t-43 -37t-23.5 -12.5q133 -67 604 -102l-4 -99h-462q0 -4 -20.5 -129t-20.5 -182q0 -98 16 -222t44 -276.5t38 -224.5h-111l-123 641 l-123 -641h-110q10 72 37.5 224.5t44 276.5t16.5 222q0 43 -7 96.5t-18.5 118t-15.5 96.5h-463z" />
<glyph unicode="o" horiz-adv-x="1589" d="M102 260v1030h373q6 2 17.5 12.5t9.5 16.5q-23 16 -84.5 33.5t-93 47.5t-31.5 97q0 61 40 110.5t99 49.5q61 0 94 -24.5t66 -76t59 -75.5q16 14 17.5 36.5t-5 53.5t-6.5 43q0 66 41 113t107 47q57 0 96 -41t39 -101q0 -25 -12.5 -66.5t-14.5 -60.5l23 -26 q29 23 58.5 71.5t63.5 75.5t95 27q59 0 101 -52.5t42 -113.5q0 -68 -31.5 -96.5t-92 -43t-82.5 -28.5q0 -23 24 -31h373v-1030zM160 319h540v359h-540v-359zM160 868h540v361h-540v-361zM401 1501q0 -59 65.5 -109.5t129.5 -50.5q43 0 43 23q0 53 -68.5 117.5t-121.5 64.5 q-18 0 -33 -13t-15 -32zM719 1507q0 -47 20.5 -84t63.5 -37q80 0 80 119q0 55 -21.5 110.5t-66.5 55.5q-37 0 -56.5 -58.5t-19.5 -105.5zM889 317h541v359h-541v-359zM889 866h541v361h-541v-361zM946 1364q0 -23 45 -23q61 0 129 49.5t68 108.5q0 18 -15.5 31.5t-33.5 13.5 q-51 0 -122 -64.5t-71 -115.5z" />
<glyph unicode="p" horiz-adv-x="1699" d="M102 977q0 291 186.5 480.5t477.5 189.5q295 0 479.5 -187.5t184.5 -482.5q0 -293 -186.5 -482.5t-477.5 -189.5q-289 0 -476.5 190.5t-187.5 481.5zM532 977q0 -102 66 -169t166 -67q104 0 167.5 65.5t63.5 170t-63.5 169t-167.5 64.5q-100 0 -166 -66.5t-66 -166.5z M707 972.5q0 22.5 16 39t39 16.5q25 0 40 -15.5t15 -40t-15.5 -42t-39.5 -17.5q-23 0 -39 18.5t-16 41zM1249 281l238 227v811h-49v328h53v153h49v-153h57v-328h-53v-922l-205 -211z" />
<glyph unicode="q" horiz-adv-x="1499" d="M102 637q23 61 28 187q3 79 3 158q0 47 -1 95q-2 95 -2 187v61q1 121 21.5 196.5t67.5 75.5h266l609 -2q-80 -35 -80 -151v-391q-2 0 -57.5 5t-112.5 6h-19q-48 0 -101 -4q-65 -5 -104.5 -28.5t-39.5 -64.5q0 -25 28 -72q-12 -39 -45 -75t-54.5 -75.5t-21.5 -105.5 l-96 -2h-289zM156 1157l118 57l121 -57l121 57l121 -57l121 57l121 -57l118 57v117l-118 -57l-121 57l-121 -57l-121 57l-121 -57l-121 57l-118 -55v-119zM506 559q0 82 15.5 136.5t34.5 76t42 54t31 71.5q-27 59 -27 70q0 63 129 63h440q37 0 57.5 -1t46 -16.5t25.5 -45.5 q0 -18 -13 -43t-13 -27q0 -10 30.5 -53t61.5 -119t31 -166q0 -78 -41 -159t-115 -81h-579q-74 0 -115 80t-41 160zM514 575l133 -57l123 57l123 -57l123 57l123 -57l123 57l122 -57v117l-122 57l-123 -57l-123 57l-123 -57l-123 57l-123 -57l-123 57z" />
<glyph unicode="r" horiz-adv-x="1357" d="M102 211v616l88 111v418q0 10 -12 47l-20 18q-10 66 -11 117l5 199h106l4 -215v-7q0 -33 -18 -83q-20 -54 -19 -76q0 -70 -1 -209t-1 -209l82 -111v-616h-203zM649 356q0 63 17.5 102.5t33 52.5t70.5 40t80 41q20 23 20 706q0 8 -16 41q-29 20 -77 45t-67.5 39.5t-36 52 t-16.5 101.5q0 74 41 143h123v-231l125 -70l125 70v231h143q41 -71 41 -143q0 -51 -6 -84t-27.5 -54.5t-37 -31.5t-59.5 -29.5t-68 -31.5q-10 -10 -15.5 -46t-6.5 -86.5t-1 -93.5t1 -91t1 -56q0 -6 -1 -56.5t-1 -95.5t1 -97t6.5 -88t13.5 -46q14 -8 56 -28.5t51 -27 t34 -24.5t31 -35.5t13 -48.5t7 -70q0 -70 -41 -145h-143v231l-125 70l-125 -70v-231h-123q-41 76 -41 145z" />
<glyph unicode="s" horiz-adv-x="1822" d="M102 180v969v395h381v262l707 -397v-405h6v2h516l8 -572l-233 -180v180h-137l-45 168l-115 -113v-49l-156 -104l-63 -66v21l-162 -111v563h-326v-303zM111 743h372v254zM483 997l9 7h317v145h-326v-152zM483 1409h326v135h-326v-135zM809 1149l381 260h-381v-260z M1190 784h65l-59 220l-6 -7v-213z" />
<glyph unicode="t" horiz-adv-x="1697" d="M102 846l502 880l488 -284l-88 -150l225 86l366 -1011l-589 -217l-256 692l-160 -279zM162 850l45 -27l45 80l-43 29zM233 809l46 -27l45 80l-45 27zM305 768l43 -27l47 80l-45 27zM342 928l35 -21l117 203l-41 23l-76 -21l10 -35l47 13zM375 727l45 -29l45 82l-43 27z M387 1243l45 -24l45 79l-43 25zM446 684l43 -27l48 82l-45 27zM459 1202l45 -24l45 79l-45 25zM469 1389l45 -27l72 125l-45 24zM516 643l45 -27l47 80l-45 29zM530 1161l43 -26l48 82l-46 24zM541 1348l45 -29l71 127l-45 24zM582 1585l45 -26l45 79l-43 27zM612 1305 l43 -27l72 127l-43 25zM629 1169l47 15l-29 16zM653 1542l45 -26l45 81l-45 27zM680 1145l346 -955l528 193l-344 952zM682 1264l45 -27l72 127l-45 25zM725 1501l43 -26l47 81l-45 27zM739 1128l49 21l31 -88l-47 -21zM754 1223l12 -6l51 16l51 88l-43 27zM795 1460l45 -26 l45 79l-43 27zM801 967l47 16l49 -135l-47 -21zM817 1157l47 21l33 -91l-49 -18zM862 1249l78 31l-45 25zM866 1419l43 -26l47 80l-45 26zM874 762l48 16l30 -88l-47 -18zM877 993l49 17l49 -136l-49 -18zM893 1186l49 18l31 -88l-47 -18zM936 1378l45 -26l47 80l-45 26z M950 788l47 19l33 -90l-49 -17zM954 1022l47 16l50 -135l-47 -18zM971 1214l49 19l31 -86l-50 -21zM977 586q0 53 33 65l47 19q29 0 50 -18.5t21 -47.5q0 -25 -36.5 -71t-36.5 -54q0 -23 6 -35l117 41l8 -28l-148 -56q-18 37 -18 80q0 20 37 63.5t37 65.5q0 25 -33 25 q-29 -10 -33 -12q-16 -6 -16 -33q0 -8 4 -25l-35 -12q0 4 -2 16.5t-2 16.5zM1026 817l49 17l31 -86l-47 -17zM1028 334l49 18l29 -90l-45 -18zM1030 1051l49 16l49 -133l-49 -21zM1049 1243l47 19l32 -88l-49 -19zM1104 846l49 16l31 -86l-49 -16zM1106 360l47 19l31 -88 l-47 -19zM1108 1077l49 17l49 -133l-49 -19zM1124 1270l50 18l30 -86l-47 -18zM1182 389l47 19l31 -86l-48 -21zM1182 874l47 17l33 -88l-50 -17zM1186 1106l47 16l49 -133l-47 -18zM1257 901l50 17l30 -87l-47 -16zM1260 418l47 18l30 -88l-49 -18zM1335 444l47 19l33 -86 l-49 -19zM1411 473l49 19l31 -86l-47 -19z" />
<glyph unicode="u" horiz-adv-x="1792" d="M102 403q0 375 232.5 751t562.5 618q188 -104 374.5 -352.5t302.5 -534t116 -502.5q-264 -215 -791 -215q-236 0 -426 54t-371 181zM180 442q178 -117 341 -165t376 -48q221 0 390 41t323 154q0 195 -104.5 452t-272.5 480t-338 317q-291 -207 -503 -553t-212 -678z M360 993l289 -61l-18 6q0 104 16 164q-31 -10 -63 -10q-45 0 -67.5 33.5t-22.5 82.5q0 121 219 121q45 0 127 -38t129 -38q41 0 105.5 25t90.5 25q49 0 97.5 -36t48.5 -83q0 -37 -19.5 -57.5t-42 -27.5t-42 -33t-19.5 -73q0 -104 10 -176l322 -67l-1143 -179l135 187z M530 1206q0 -25 13.5 -53.5t34.5 -28.5q29 0 102 35l-14 -229l135 -29v135q0 96 4 121q37 0 129 -7t102 -22l-14 -274l139 -29q-8 51 -8 156q0 61 20.5 94t45 39t45 23.5t20.5 52.5q0 39 -40 61.5t-81 22.5q-31 0 -96.5 -22.5t-103.5 -22.5q-53 0 -132 33.5t-104 33.5 q-197 0 -197 -90zM627 553v35q0 4 1 11t1 11l30 4q-4 -70 -4 -104q0 -86 26 -126t103 -40q41 0 52.5 23.5t11.5 68.5q0 68 -25 203l33 6q21 -136 21 -199q0 -47 -4.5 -70.5t-26 -41t-66.5 -17.5q-43 0 -72.5 13.5t-46 32t-24.5 53.5t-9 62.5t-1 74.5zM834 893l159 -33 l13 242q-20 18 -99 18h-45q-4 0 -12 -1t-14 -1q1 -25 1 -59q0 -67 -3 -166zM983 592v45q0 4 1 13t1 14l31 4q-6 -41 -6 -123q0 -94 23.5 -139.5t105.5 -45.5q29 0 44 17.5t17 34t2 51.5q0 80 -24 231l32 4q21 -151 21 -223q0 -39 -2 -57.5t-10.5 -42t-29 -32.5t-54.5 -9 l-62 6q-90 8 -90 252z" />
<glyph unicode="v" horiz-adv-x="1482" d="M102 156q0 16 9 24q53 0 87.5 44t34.5 100q0 69 -46 69h-1q-43 0 -43 -71q0 -29 11.5 -62t31.5 -39q-12 -14 -28 -24q-27 6 -41.5 48t-14.5 79q0 45 21.5 81.5t64.5 36.5q39 0 62.5 -37.5t23.5 -80.5q0 -70 -49 -127.5t-116 -57.5q-6 12 -7 17zM207 168l26 27 q14 -12 66 -13h51q57 0 90 41t33 101q0 69 -46 69h-1q-43 0 -43 -71q0 -29 11.5 -62t31.5 -39q-12 -14 -29 -24q-27 6 -41 48t-14 79q0 45 21.5 81.5t64.5 36.5q39 0 62.5 -37.5t23.5 -80.5q0 -180 -217 -181q-49 0 -90 25zM451 168l26 27q14 -12 66 -13h51q57 0 90 41 t33 101q0 69 -46 69h-1q-43 0 -43 -71q0 -29 11 -62t32 -39q-12 -14 -29 -24q-25 6 -40 50t-15 77q0 45 21.5 81.5t64.5 36.5q39 0 62.5 -37.5t23.5 -80.5q0 -180 -217 -181q-49 0 -90 25zM633 1055q0 96 39 252.5t120.5 302t178.5 153.5q164 16 188 17q14 0 26.5 -2 t27 -7.5t23.5 -8.5t24.5 -12t21.5 -13t23.5 -15.5t21.5 -13.5l4 -10q-10 -63 -65.5 -185t-98.5 -155q-80 4 -118.5 20.5t-46 35t-24.5 46t-52 45.5q-57 0 -81 -132t-24 -232q0 -508 172 -609q29 27 49.5 52.5t25.5 36t21.5 20.5t44 15.5t87.5 13.5q47 -39 97 -156t62 -195 q-74 -51 -122 -63t-152 -12q-35 0 -87 25.5t-75 29.5q-20 -18 -46 -61t-53.5 -69t-70.5 -26q-47 0 -80 25l27 27q8 -12 55 -13q39 16 80 61.5t41 84.5q0 31 -65.5 137t-132 267t-66.5 323z" />
<glyph unicode="w" horiz-adv-x="1839" d="M102 952l45 90l70 -61h123l4 102l-123 84v58h58l4 61h57v-127l127 -176h53l62 70v59h61v129q-63 -49 -176 -61v123h45v63h-164v119h-69v53h69v72h53v-72h119v-164h62v45l127 -2q-23 -117 -62 -176l123 -2v59h49l70 64v53l-176 127h-127v60l61 4v57h58l81 -125l103 4v125 l-62 70l91 47l90 -47l-62 -70v-125l103 -4l81 125h58v-57l61 -4v-60h-127l-176 -127v-53l70 -68h57v-61h115q-31 68 -49 178h123v-45h61v164h119v72h53v-72h70v-53h-70v-119h-164v-64h45l-2 -127q-113 23 -174 62l-2 -125h59v-49l62 -70h53l127 178v127h57l5 -61h57v-58 l-123 -84l4 -102h123l70 62l45 -91l-45 -92l-70 62h-123l-4 -103l123 -82v-59h-57l-5 -61h-57v129l-127 176h-53l-62 -70l7 -53h-62l-10 -125q63 47 176 63v-125h-45v-61h164v-121h69v-53h-69v-70h-53v70h-119v166h-62v-47l-127 2q23 117 62 176l-123 2v-59h-49l-70 -62v-55 l176 -127h127v-58l-61 -4v-59h-58l-81 125l-103 -4v-125l62 -70l-90 -45l-91 45l62 70v125l-103 4l-81 -125h-58v59l-61 4v58h127l176 127v55l-70 62l-53 -7v62h-127q49 -66 61 -178h-122v47h-62v-166l-119 -2v-72h-53v72h-70v53h70v121l164 2v61h-45l2 129q119 -27 174 -63 l2 125h-59v49l-62 70h-53l-127 -179v-129h-57l-4 62h-58v59l123 82l-4 103h-123l-70 -62zM381 414h37v37h-37v-37zM385 1464h37v37h-37v-37zM643 862h62v-110h110v-72l78 2v133h-123v111l-127 -2v-62zM647 997h123v115h119v125h-62v-61h-110v-113h-70v-66zM889 932h57v61 h-57v-61zM946 682h62v63h110v111h70v80h-123v-121h-119v-133zM946 1104h119v-119h131v62h-61v112h-111v70h-78v-125zM1413 418h37v37h-37v-37zM1421 1456h37v37h-37v-37z" />
<glyph unicode="x" horiz-adv-x="1845" d="M102 993l406 -16l29 156h79l13 333h24l-12 -333h88l14 -39h164l25 123h147l86 -121h152l37 -82h102l12 426h25l-12 -426h61v-47h78v-82h123q0 -20 -5 -44t-10.5 -38.5t-20.5 -43t-19.5 -34.5t-24.5 -41l-23 -33l-278 -2h-815l-279 2q0 164 -166 342zM168 965 q14 -18 55 -82h416l944 2v49h-74v49h-178l-41 80h-571l-14 41h-144l-26 -150zM662 948v49h180v-49h-180zM903 948v49h180v-49h-180zM1139 948v49h155l21 -49h-176z" />
<glyph unicode="y" horiz-adv-x="1601" d="M102 -2v1292h310l16 17h70l-17 -17h78q-49 4 -70 4l13 11q98 -12 110 -15h514v-63h215l-12 -10h-203v-240h35v-12h-35v-47h37v126l262 263h74v-263l-39 -38h-71v22l-111 -110v-95l-41 -43h-74v88h-37v-196q27 10 98.5 36.5t131 48t69.5 25.5h74v-247h-74v73h-299v-610 h-1024zM135 31h959v577h-865v-73h-65v131q100 0 307 -6.5t315.5 -6.5t307.5 11v204h-856v-88h-74v262l215 215h-244v-1226zM238 918h856v47h-852v12h229q-59 70 -227 70l10 12q156 0 217 -64l236 236q-10 10 -35 26h-223l-211 -213v-126zM379 1257h70l32 33h-69zM471 977 h623v240h-387zM559 1290q68 -6 113 -33h22q-33 23 -82 33h-53zM694 1257q23 -14 33 -30h367v30h-400zM1094 608h32v64q-16 -6 -20 -6l-12 -2v-56zM1094 868h32v50h-32v-50zM1094 965h32v12h-32v-12zM1094 1217h32v10h-32v-10z" />
<glyph unicode="z" horiz-adv-x="1458" d="M102 158v1634h1254v-1634h-1254zM164 219h1130v1510h-1130v-1510zM413 503q-1 35 -1 76q0 53 2 119q4 114 4 138q0 35 10 55q20 10 43 10h537q23 0 49 -10q8 -33 8 -51v-410q0 -29 -6 -55q-29 -13 -74 -17q-27 -3 -63 -2q-24 0 -52 1q-70 3 -73 3q-8 0 -74 -1t-116 -2 h-16q-43 1 -89 5q-56 6 -72 13q-14 47 -17 128zM413 1243q-1 35 -1 76q0 55 2 121q4 116 4 137q0 35 10 55q20 10 43 10h537q27 0 49 -8q8 -33 8 -53v-410q0 -29 -6 -57q-27 -12 -73 -16q-23 -2 -52.5 -2t-65.5 2l-71 2q-8 0 -74 -1t-116 -2h-17q-42 0 -88 4q-56 5 -72 13 q-14 47 -17 129zM481 469q0 -31 8.5 -42t36.5 -11h430q20 0 37 10q6 20 6 43v328q0 23 -6 43q-18 6 -39 6h-430q-20 0 -37 -6q-6 -20 -6 -45v-326zM481 1210q0 -31 8.5 -42t36.5 -11h430q20 0 37 10q6 20 6 43v326q0 20 -6 43q-16 8 -39 8h-430q-20 0 -37 -6q-6 -20 -6 -47 v-324zM594 563v199h49v-199h-49zM594 1303v198h49v-198h-49zM713 485q0 55 32 56q35 -1 35 -56h-67zM713 1227q0 53 32 53q35 0 35 -53h-67zM840 575v154h49v-154h-49zM840 1315v153h49v-153h-49z" />
<glyph unicode="{" horiz-adv-x="1572" d="M102 209q0 33 20.5 52.5t53.5 19.5t51.5 -19.5t18.5 -52.5t-20.5 -52.5t-53.5 -19.5q-31 0 -50.5 20.5t-19.5 51.5zM209 311v1340h1229v-37h32v-58h-32v-1241h-21v-104q-23 25 -31 74t-2 84h-1122v-158q-45 63 -33 100h-20zM262 414h1122v563h-1122v-563zM262 1022h1122 v575h-1122v-575zM1257 209q0 33 20.5 52.5t53.5 19.5t51.5 -19.5t18.5 -52.5t-20.5 -52.5t-53.5 -19.5q-31 0 -50.5 20.5t-19.5 51.5z" />
<glyph unicode="|" d="M102 2v1933h1958v-1933h-1958zM205 106h1753v1727h-1753v-1727z" />
<glyph unicode="}" horiz-adv-x="1724" d="M102 1370q0 51 33 84t84 33t84 -33t33 -84t-33 -85t-84 -34t-84 34t-33 85zM111 629v454q0 53 30.5 89t79.5 36t78 -32.5t36 -89t7 -105.5t-5 -108.5t-5 -71.5h55l217 225h111v133l200 -137l-221 -223l393 -348v401l-192 -195l-117 109l264 264l-221 223l201 138v-134 h111l217 -225h43q0 10 -5.5 69.5t-5.5 109t8.5 106.5t37 90t75.5 33q51 0 81 -36t30 -89v-455h-363q0 -8 7.5 -88t6.5 -150.5t-11.5 -151.5t-53.5 -130t-113 -49q-37 0 -103 46t-118.5 94t-118 113.5l-69.5 69.5v-448q-57 0 -96 24.5t-55.5 59.5t-22.5 90t-4 98t6 103.5 t4 87.5h-399zM420 803h233l197 194h-234zM745 1024l121 2l-121 82v-84zM874 1257l121 -2v84zM887 1229l196 -195h234l-197 195h-233zM1389 1602q0 53 32.5 84.5t83.5 31.5t84 -32.5t33 -84t-33 -85t-84 -33.5t-83.5 33.5t-32.5 85.5z" />
<glyph unicode="~" horiz-adv-x="1404" d="M102 0v1292h478q35 72 49 142l-146 344q158 -100 158 -254q0 -47 -12 -90l59 -142h438v-448q80 -18 128.5 -85t48.5 -153q0 -160 -175 -235v-371h-1026zM135 33h961v325q-131 -43 -346 -43q-74 0 -149 9.5t-161 34t-140 77.5t-54 129q0 106 49 220t143 263.5t125 211.5 h-428v-1227zM702 1260l213 -508q0 45 54.5 71.5t105.5 26.5h19l2 410h-394z" />
<glyph unicode="&#xa1;" horiz-adv-x="1032" d="M102 823q0 39 26 63.5t62 24.5q39 0 64 -23.5t25 -64.5v-12h151v158h74v-215h-55l86 -88l135 137h260v-92h-209l-105 -103h232v-303h-98v201h-269l-176 176v-127l98 -98l-47 -47l-118 120v215q-25 -10 -45 -10q-39 0 -65 25.5t-26 62.5z" />
<glyph unicode="&#xa2;" horiz-adv-x="1343" d="M102 365v18h21q2 12 4 65.5t8 94.5t19 65q66 14 233 15l-100 69l98 60v18h21v-18l98 -60l-94 -69h544h74t59.5 2t43 -2.5t31.5 -4.5t19.5 -13t15.5 -19t7 -31t6 -41t4.5 -58t6.5 -73h20v-18h-119l-10 -25l-29 -12h152v-31h-1129v31h142l-25 12l-12 25h-109zM145 485h68 v97h-35l-10 -2q-8 -2 -10 -2zM229 383h76v221h-76v-221zM248 328h112l-28 10l-10 27h-39l-11 -25zM319 692l80 -55l74 55l-78 49zM330 498q0 -20 24 -21q10 0 32 -1t32 -1h65q27 0 27 23v77q0 27 -25 27h-133q-23 0 -22 -27v-77zM360 328h611l-25 12l-12 25h-537l-12 -25z M528 498q0 -20 25 -21q12 0 32.5 -1t32.5 -1h66q25 0 25 23v77q0 27 -23 27h-133l-8 -2q-10 -2 -13 -2q-4 -12 -4 -23v-77zM737 492q0 -4 2 -7q0 -4 2 -6l9 -2q8 -2 10 -2h133q20 0 20 21v79l-2 11q-2 8 -2 10l-8 2l-8 2h-139q-16 0 -17 -25v-83zM940 381h78v221h-78v-221z M971 328h112l-24 12l-12 25h-37l-11 -25zM1034 381h76v221h-76v-221zM1128 485h66q-6 31 -10 93q-16 4 -27 4h-29v-97z" />
<glyph unicode="&#xa3;" horiz-adv-x="1187" d="M102 319v97h80v375l49 83l50 -83v-375h79v375l50 83l51 -83v-375h80v377l51 84l49 -84v-375h82v375l51 84l49 -84v-375h80v375l51 84l50 -84v-375h81v-96h-79v-107h-101v107h-80v-107h-100v107h-82v-107h-100v107h-80v-107h-101v104h-79v-104h-99v104h-82z" />
<glyph unicode="&#xa4;" d="M102 2v1915h1958v-1915h-1958zM588 303h301v389l295 -2q164 -2 273.5 89t109.5 249v234q0 158 -109.5 247.5t-271.5 89.5h-598v-1296zM889 942v344h258q29 0 61.5 -21t32.5 -48q0 -16 -2 -51.5t-2 -51.5v-47t-3 -50t-11.5 -36t-27.5 -31t-52 -8h-254z" />
<glyph unicode="&#xa5;" horiz-adv-x="1220" d="M102 1022h56l32 -776h373l35 776h57l-41 -834h-471zM197 629v35q47 29 96 28q18 0 45 -14t43 -14q18 0 45 14t43 14q47 0 94 -28v-35h2q-47 27 -94 26q-16 0 -45 -13t-43 -13t-43 13t-45 13q-53 0 -98 -26zM197 788v39q37 27 96 27q18 0 47 -13.5t41 -13.5q16 0 45 13.5 t43 13.5q51 0 94 -27v-39h2q-57 27 -94 27q-16 0 -45 -13.5t-43 -13.5t-43 13.5t-45 13.5q-61 0 -98 -27zM201 709v41q37 27 96 26q16 0 44 -13t42 -13q16 0 45 13t43 13q57 0 98 -26v-41q-51 31 -96 30q-18 0 -45 -15t-43 -15t-44 15t-42 15q-47 0 -98 -30zM317 1147v31 q0 248 381 247v172h-155v62h372v-62h-157v-172h360v-135h-448q-51 0 -71.5 -1t-58.5 -7t-54.5 -20.5t-31 -43t-14.5 -71.5h-123z" />
<glyph unicode="&#xa6;" horiz-adv-x="2207" d="M102 76q0 31 197 394.5t464 838.5t269 481q72 43 76 43q45 0 283.5 -398.5t464.5 -828.5t249 -526l-28 -57q-74 -25 -78 -25l-1804 2q-92 0 -93 76zM299 188q0 -39 48 -58t125 -22.5t147.5 1t138 10.5t78.5 6l467 -2h516q8 0 33.5 10t27.5 10l23 50q-20 109 -382 755.5 t-417 646.5l-60 -34q-4 -6 -216 -383t-370.5 -670t-158.5 -320z" />
<glyph unicode="&#xa7;" horiz-adv-x="1482" d="M102 264q0 6 4.5 19.5t4.5 15.5l26 16l377 -4q59 0 86 49.5t37 123t25 96.5q6 10 32.5 35.5t40 48t4.5 43.5q2 10 21.5 37.5t19.5 43.5q0 53 -42 101.5t-85 93.5t-43 88q0 37 43 99.5t47 89.5q0 2 -12 17t-25.5 34.5t-15.5 27.5q4 23 34 55.5t52 32.5q41 0 336 -530.5 t311 -620.5l-20 -38q-41 -16 -49 -17h-533l-635 2q-41 0 -41 41zM258 436q6 6 16 6q41 41 68 41q25 0 54.5 -17t29.5 -40q0 -27 -35 -42t-65 -15q-20 0 -44 24.5t-24 42.5zM360 596q0 10 18.5 31.5t16.5 34.5q-2 10 -2 32q0 90 111 90q31 0 31 -12q0 -37 -28 -80t-32 -57 q-2 -6 -5 -29.5t-10 -37t-24 -13.5q-20 0 -48 11.5t-28 29.5zM434 985q0 35 31 67.5t65 32.5q23 0 33 -35.5t10 -64.5q0 -4 -8 -27.5t-8 -25.5l8 -10q72 -9 72 -62q0 -43 -64 -43q-33 0 -32 17q0 2 5 13t11 24.5t8 17.5q-10 12 -28 18q-4 -2 -11 -2q-2 -2 -14 -11t-20 -13 q-10 10 -34 52t-24 52z" />
<glyph unicode="&#xa9;" horiz-adv-x="1433" d="M102 1380q0 39 15 62q10 -2 45 -36t78 -79l43 -47q104 -104 192 -170q39 -29 78 -79t68.5 -96t67.5 -89t92.5 -69.5t123.5 -26.5q55 0 122 66.5t120 66.5q29 0 88 -17.5t96 -13.5l-33 -33q-119 -23 -200.5 -73t-117.5 -100t-94.5 -105.5t-131.5 -81.5 q-59 -23 -189.5 -40.5t-197.5 -49.5q-53 41 -68 104q0 2 39 27.5t82 55.5t55 40q-20 31 -96 178.5t-100 175.5q-16 20 -50 60.5t-42.5 51.5t-29 38.5t-24.5 42t-14 40t-11.5 52.5t-3.5 61.5t-2 83.5z" />
<glyph unicode="&#xaa;" horiz-adv-x="983" d="M102 766l308 557h194l-235 -434h512l-584 -672l307 549h-502z" />
<glyph unicode="&#xab;" horiz-adv-x="2207" d="M102 76q0 18 84 182t214 402.5t256 468t240 435t136 244.5q8 14 34 28.5t42 14.5q45 0 284.5 -402t466 -838.5t246.5 -530.5l-28 -60q-68 -23 -78 -22l-1804 2q-92 0 -93 76zM299 190q0 -39 49 -59t125 -22.5t147.5 1t139 10.5t76.5 7l469 -2h514q8 0 33.5 10t27.5 10 l23 50q-23 117 -382.5 767t-416.5 650q-12 0 -32.5 -12.5t-27.5 -22.5q-745 -1346 -745 -1387z" />
<glyph unicode="&#xac;" horiz-adv-x="1380" d="M102 684v1053h1176v-1053h-1176zM154 414l32 49h639q20 61 74.5 99t118.5 38q94 0 151.5 -57.5t57.5 -149.5t-57.5 -151.5t-149.5 -59.5q-135 0 -189 121h-94l-12 27h-199l-34 49q-100 -55 -115 -49l-37 53l-102 -49zM164 748h1050l3 927h-1053v-927zM233 938v426 q0 31 9.5 50.5t31 27.5t38 11t48 4t43.5 1v-610h-77q-92 0 -93 90zM451 848v610h92q0 129 47 129h209q31 0 40 -44t7 -85h92v-610h-487zM586 1458h221q0 84 -33 84h-151q-37 0 -37 -84zM985 848v610q12 0 45 -1t48.5 -4t36 -11t29.5 -27.5t9 -50.5v-426h2q0 -90 -88 -90h-82 zM1110 395q0 -18 13.5 -32.5t31.5 -14.5q41 0 41 39h2q0 18 -13.5 32.5t-31.5 14.5q-16 0 -29.5 -11t-13.5 -28z" />
<glyph unicode="&#xad;" horiz-adv-x="1601" d="M102 346q47 51 145.5 165t157 180.5t146.5 156.5t166 160q-6 10 -17 16l-34 4q-10 8 -86 72.5t-143.5 127t-145.5 141.5t-125 151.5t-47 121.5q0 25 4 33q10 0 31.5 3t29.5 3q41 0 320.5 -284.5t308.5 -345.5q109 74 159 132t52 89t9 75t34 80q25 35 71 75t76.5 61.5 t98 65.5t78.5 50q-8 -8 -46 -39.5t-59.5 -51t-53.5 -50.5t-53.5 -56.5t-33.5 -47.5q45 20 91 57t99.5 88t81.5 74q-150 -162 -227 -267q45 31 87 68t99.5 91t79.5 75q-10 -12 -69.5 -77.5t-93 -109.5t-56.5 -90q16 8 33.5 21.5t39 33t38 36t40 43t35 40t35 39t27.5 31.5 q-98 -150 -170 -229.5t-120 -103t-90 -37t-105.5 -61.5t-143.5 -144q111 -92 236 -219t198.5 -212t208.5 -245l-53 -64q-406 342 -629 588l-6 64q-63 -84 -154.5 -182.5t-141.5 -147.5t-183 -175t-154 -145z" />
<glyph unicode="&#xae;" horiz-adv-x="1773" d="M102 600v166h41v526h1024v-526h11q6 0 96 32.5t192.5 69.5t110.5 41h94v-309h-92v92h-410v-692h-1024v600h-43zM143 600h33l2 166h-35v-166zM176 33h961v659h-951v-92h-10v-567zM176 766q86 -2 319.5 -9t324 -6t315.5 11l2 498h-961v-494zM1135 692h32l2 74l-34 -4v-70z " />
<glyph unicode="&#xb0;" horiz-adv-x="3293" d="M102 -225l1446 -97h-1446v97zM344 180v647q0 4 6 23q2 0 14.5 6t16.5 6h860q4 0 16.5 -6t14.5 -6q6 -18 6 -23v-647q0 -4 -6 -22q-2 0 -9.5 -4t-14.5 -6.5t-9 -2.5h-856q-14 0 -26.5 10.5t-12.5 24.5zM1696 319v322h1495v-322h-1495zM1757 399q8 -20 8 -22q6 -12 23 -12 h16q13 4 17 16l-9 14l3 13l6 2q0 12 -11 12q-4 0 -10 -2t-10 -2q12 8 16 18q-14 -6 -14 -12q-2 -2 -2 -6h-2q-14 4 -16 4q-14 -10 -15 -23zM2087 805v483q0 8 4 17q20 10 23 10h645q2 0 22 -10q6 -12 6 -17v-483q0 -27 -30 -27h-641q-14 0 -25 10q-4 8 -4 17z" />
<glyph unicode="&#xb1;" horiz-adv-x="718" d="M102 911q0 6 19.5 18.5t21.5 18.5q51 102 58 105h313q12 -2 31 -45q29 -57 46 -71t25 -26h-2q0 -49 -20 -147h-25v-74h-55v74h-311v-74h-53v74h-23q-25 98 -25 147zM166 946q45 0 135 -1t133 -1h119h2q-37 82 -49 90t-94 6q-27 -2 -54 -2l7 2h-146q-6 0 -14 -13 t-15.5 -28.5t-15.5 -33t-8 -19.5z" />
<glyph unicode="&#xb2;" horiz-adv-x="1642" d="M102 883q8 0 25.5 1t26.5 1l286 -2q20 0 70 -43q0 -4 4 -24t4 -30q0 -12 -87 -165.5t-101 -155.5q-92 74 -160 190.5t-68 227.5zM106 1024q39 285 230 418q33 -47 109.5 -179.5t76.5 -152.5q0 -10 -4 -29.5t-4 -23.5q-6 -4 -19.5 -17.5t-24.5 -19.5t-26 -6h-63 q-199 0 -275 10zM453 401q0 18 89 172t101 160q31 16 53 21q43 -14 54 -21q23 -14 104.5 -160.5t81.5 -177.5q-111 -45 -240 -45q-139 0 -243 51zM459 1507q106 43 239 43q150 0 248 -49q-25 -49 -102.5 -187t-91.5 -145q-16 -8 -54 -20q-31 6 -53 18q-14 8 -100 162 t-86 178zM872 791q0 23 9 55q4 2 14 13t16.5 16.5t16.5 10.5t20 5q182 0 275 -4q20 0 53 -4q18 0 18 -4q0 -106 -70.5 -231.5t-160.5 -184.5q-14 2 -102.5 158.5t-88.5 169.5zM877 1116q0 18 75.5 146.5t112.5 177.5q98 -82 163.5 -193.5t65.5 -226.5q-8 -2 -51 -2 q-18 0 -51 1t-51 1q-27 0 -73 -3t-67.5 -3t-52 11t-61.5 36q-10 41 -10 55zM1235 342q4 4 20.5 22.5t24.5 26.5t23.5 20.5t31 18.5t29.5 6q22 0 176 -61l-10 -15q-10 -14 -18.5 -24t-19.5 -20.5t-17 -10.5q-23 0 -88.5 30t-96.5 30q-29 0 -55 -23zM1284 371h16l11 10h-17z M1313 369l14 -2l10 10l-14 2zM1337 362l15 -4l10 11l-14 4zM1362 352l14 -4l10 10l-14 4zM1386 342l13 -6l10 10l-12 6zM1411 332l12 -6l11 10l-13 6zM1434 322l14 -5l10 11l-14 4zM1458 315l15 -4l10 11l-15 4z" />
<glyph unicode="&#xb3;" horiz-adv-x="1589" d="M102 987q0 78 85 161t193.5 133t184.5 50q59 0 93 -18.5t45.5 -42t34 -49t57.5 -35.5q12 -4 49 -7t53 -14q92 -57 113 -57q20 6 63 42t76 36q289 0 338 -236l-14 -8q-123 63 -207 64q-66 0 -213.5 -44t-249.5 -44q-104 0 -221 71.5t-176 71.5q-33 0 -63 -5t-63.5 -19.5 t-50 -22.5t-57.5 -32t-51 -30q-18 12 -19 35z" />
<glyph unicode="&#xb4;" horiz-adv-x="1343" d="M102 0v1292h226q41 166 154.5 274.5t279.5 108.5q88 0 179 -25.5t165 -90t74 -156.5l-33 -19l-25 15q0 115 -113.5 168t-244.5 53q-143 0 -237.5 -92t-131.5 -236h86q31 113 99.5 186.5t175.5 73.5q115 0 209 -74.5t110 -185.5h51v-626q115 -42 115 -148 q0 -113 -115 -205v-313h-1024zM135 33h959v256q-74 -47 -142 -47q-78 0 -137 14t-95 32.5t-71 61.5t-51 73t-49 97.5t-53 104.5q-8 16 -43 78.5t-46.5 84t-37 76t-34.5 88t-18.5 82.5t-9.5 94q0 68 12 132h-184v-1227zM319 1260h68q4 24 8 32h-67q-2 -4 -5.5 -15t-3.5 -17z M373 1122q0 -123 140 -430t226 -346q39 -16 107.5 -31.5t107.5 -15.5q74 0 140 55v260q-25 6 -56 7q-16 -106 -116 -107q-111 0 -117 70q-4 37 -34 66.5t-64.5 48t-69.5 50t-47 70.5l12 19l23 6l12 -6q10 -41 42 -70t85 -57.5t72 -42.5q2 -2 14 -41t16 -47q31 -10 58 -11 q31 0 43 21q-6 18 -21.5 61t-24 70t-16.5 63.5t-8 67.5q0 63 21.5 101t78.5 63q37 -8 61.5 -40t24.5 -69q0 -20 -13 -32.5t-42 -22.5t-35 -12q0 -2 -6 -10.5t-10 -16.5t-4 -10q0 -41 59 -127q35 4 62 -2v586h-15v-9q0 -90 -39 -90q-14 0 -20 13q6 39 2 86h-115 q-74 -31 -123 -88.5t-49 -124.5q0 -25 7.5 -70t7.5 -55q2 -25 -48 -31l-8 6q-14 125 -14 162q0 113 127 201h-285q-18 -39 -41 -39l-14 8l6 31h-86q-14 -63 -14 -138zM473 1260h49q9 12 15 32h-56q-4 -8 -8 -32zM537 1292h327q82 39 154 39q-61 162 -266 162 q-49 0 -85 -15.5t-62.5 -52t-35 -54t-26.5 -64.5zM807 1260h100q55 25 113 24q0 -4 1 -12t1 -12h57q0 12 -4 32h-211q-33 -16 -57 -32zM1094 289q12 8 32 24v72q-16 -20 -32 -31v-65zM1094 614q12 -4 32 -12v64q-8 4 -32 8v-60zM1126 385q54 57 54 123q0 61 -54 94v-217z " />
<glyph unicode="&#xb6;" horiz-adv-x="1445" d="M102 283h240v75h-49l-21 -16h-170l25 51h182v76h-141l72 141q53 -6 159 -14q0 156 -16 184l-23 8v27q27 -4 43 -16q10 -20 11 -25q2 -8 2 -57q2 -20 18.5 -113.5t16.5 -105.5q0 -35 -15 -140h-39v-75h240q6 0 101.5 25.5t198.5 53t116 29.5q20 0 20 -8q0 -6 -10 -12 l-340 -88h457l-6 14l10 29l22 14q41 0 37 -57h82l18 -35h-1210zM328 514q0 -45 43 -45q18 0 30.5 13.5t12.5 31.5h2q0 45 -43 45q-45 0 -45 -45zM354 412h45l2 20h-47v-20zM516 385q8 10 52 67.5t94.5 123t102.5 133t91 112.5t45 45l8 -4l4 -8v-6zM535 344l329 256h23 l-2 -12q-2 -2 -83 -58.5t-169 -117t-98 -68.5zM537 297l346 195l22 -3h-2q0 -4 -6 -16zM784 899q0 8 9.5 27.5t15.5 19.5q31 -30 31 -59h2q-8 -14 -27 -15q-31 0 -31 27zM872 975q16 12 25 16q6 2 8 4t2 6.5t2 6.5q6 6 11 14q14 -9 14 -23q0 -45 -33 -45zM922 586l10 6 q14 -4 20 -12l4 -15h2q-12 -25 -12 -41l-4 -4q-14 16 -20 66zM932 702q0 31 8 39l4 4q2 -2 6 -4t7.5 -4t5.5 -4q41 -29 41 -45q-4 -4 -5 -6q-12 -12 -30 -12q-37 0 -37 32zM1022 543q2 2 5 9t7 11q0 2 4 4l4 2q2 0 5.5 1t5.5 3q0 -4 8 -20q4 -2 7 -7t5 -7v-9q0 -10 -16 -10 q-18 0 -23 8zM1090 446q0 16 15 34t32 18q14 -6 16 -13q0 -6 2 -6q-16 -12 -25 -16q-10 -4 -16 -17q0 -16 -10 -16q-14 4 -14 16z" />
<glyph unicode="&#xb7;" horiz-adv-x="526" d="M102 322q0 57 54.5 110t111.5 53q88 1 156 -108q-55 -23 -147.5 -42.5t-145.5 -19.5q-16 0 -29 7z" />
<glyph unicode="&#xba;" horiz-adv-x="2125" d="M102 969q0 422 268.5 695t690.5 273q424 0 693 -271t269 -697q0 -424 -267 -697.5t-691 -273.5q-420 0 -691.5 274.5t-271.5 696.5zM207 968.5q0 -374.5 240.5 -619.5t615.5 -245q379 0 616.5 242t237.5 621q0 381 -238.5 622.5t-617.5 241.5q-375 0 -614.5 -244 t-239.5 -618.5z" />
<glyph unicode="&#xbb;" horiz-adv-x="2207" d="M102 76q0 18 84 182t214 402.5t256 468t240 435t136 244.5q8 14 34 28.5t42 14.5q45 0 284.5 -402t466 -838.5t246.5 -530.5l-28 -60q-68 -23 -78 -22l-1804 2q-92 0 -93 76zM299 190q0 -39 49 -59t125 -22.5t147.5 1t139 10.5t76.5 7l469 -2h514q8 0 33.5 10t27.5 10 l23 50q-23 117 -382.5 767t-416.5 650q-12 0 -32.5 -12.5t-27.5 -22.5q-745 -1346 -745 -1387z" />
<glyph unicode="&#xbc;" horiz-adv-x="831" d="M102 690q0 141 87 227.5t226.5 86.5t226.5 -87.5t87 -226.5q0 -137 -88 -225t-225 -88q-139 0 -226.5 87t-87.5 226zM170 795h23l155 155h-22zM182 725h23l217 217h-23zM188 647h25l287 287h-25z" />
<glyph unicode="&#xbd;" horiz-adv-x="909" d="M102 696q0 29 138 29h47q20 0 59 -4t51 -4l-196 -88q-98 43 -99 67zM256 578q0 39 83 61.5t140 22.5l-149 -138q14 -10 14 -22q0 -8 -5 -13.5t-15.5 -8.5t-18.5 -5t-19.5 -4t-15.5 -2l60 55q-4 2 -27.5 9.5t-35 16.5t-11.5 28zM428 575l18 -6q8 -2 23 -2q37 0 111.5 4 t111.5 4q115 0 115 -49q0 -33 -33 -52t-59 -9l-269 104q-8 0 -18 6z" />
<glyph unicode="&#xbe;" horiz-adv-x="1740" d="M102 948q0 336 216.5 552t552 216t551.5 -216t216 -552t-216 -553t-551.5 -217t-552 217t-216.5 553zM227 954q0 -287 179.5 -474t463.5 -187q228 0 367 98l-915 918q-94 -147 -95 -355zM416 1432l942 -945q176 203 176 447q0 276 -193.5 470.5t-470.5 194.5 q-141 0 -242.5 -37.5t-211.5 -129.5z" />
<glyph unicode="&#xbf;" horiz-adv-x="1409" d="M102 592v317h29q0 6 2 26.5t4 34t7.5 30t13.5 26.5q25 0 24 -63q0 -2 1 -30t1 -51.5t-2 -51t-8 -44t-16 -16.5q-23 39 -27 117h-10l-2 -144v-137q0 -29 28 -28h410v-41h-53q43 -37 55 -71t7 -74t1 -111l11 -129h-29l-10 122q-4 66 -2 104t1 61.5t-17.5 45t-57.5 52.5 h-219q-37 -29 -53.5 -53.5t-18.5 -51t-1 -65.5t-1 -97l-8 -118h-31l10 129q6 72 1 112.5t7.5 73.5t57.5 70h-19.5h-22.5t-18.5 2t-18.5 5t-12 9t-10.5 16.5t-3.5 22.5zM180 647q29 121 100.5 300t129.5 179q31 0 80 -27.5t112.5 -72.5t73.5 -51h192l50 -84h-234 q-37 0 -69.5 14.5t-83 48t-60.5 39.5l-115 -301q96 0 144.5 -1t95.5 -14t61.5 -24.5t38 -53.5t31.5 -78t33.5 -121t52.5 -160l-102 -35l-133 383q-10 0 -80 -3t-124.5 -4t-110.5 7t-73 26zM395 1223q0 45 29 73.5t74 28.5t73.5 -28.5t28.5 -73.5q0 -47 -28.5 -77t-73.5 -30 q-43 0 -73 32t-30 75zM557 739v135h750v-135h-209v-506q51 -76 192 -47v-41h-663v41q25 0 78 -1t77 -1l138 2q88 0 88 47v506h-451zM592 770h694v78h-694v-78zM827 1063l113 -172h-10z" />
<glyph unicode="&#xc0;" horiz-adv-x="1495" d="M102 481v490q35 -102 181 -103q41 0 76.5 34t50.5 77q20 -41 62 -66.5t89 -25.5q106 0 156 94q12 -45 50 -83t83 -38q168 0 205 123q55 -100 190 -100q88 0 148 90v-492h-1291zM727 1079v181h37v-181h-37z" />
<glyph unicode="&#xc1;" horiz-adv-x="1417" d="M102 539l215 102l-8 195l-207 96l21 45l182 -86l-6 131h55l8 -156l54 -26q35 14 73 14q18 0 47 -13.5t42 -13.5q16 0 44.5 13.5t43.5 13.5q35 0 73 -14l49 22l7 160h57l-8 -133l194 90l23 -45l-219 -103l-11 -188l230 -106l-23 -48l-209 99l-18 -400h-471l-21 396 l-194 -92zM365 809l6 -143l147 69q-16 4 -22 4q-47 0 -99 -30v41q18 14 47 20l-45 23l-4 -5v7zM373 608l14 -362h373l18 366l-88 41q-8 2 -22 2q-16 0 -45 -13t-43.5 -13t-43 13t-45 13t-24.5 -2zM471 815l107 -51l108 49q-6 2 -18 2q-16 0 -45 -13.5t-43.5 -13.5t-43 13.5 t-44.5 13.5h-21zM514 1147v31q0 248 381 247v172h-156v62h373v-62h-158v-172h361v-135h-449q-51 0 -71.5 -1t-58.5 -7t-54 -20.5t-30.5 -43t-14.5 -71.5h-123zM526 682q37 -18 52 -18q16 0 53 18l-51 25zM643 733l137 -65l6 137l-24 -12v-5l-6 3l-41 -19q23 -6 51 -22v-41 q-51 31 -96 30q-18 0 -27 -6z" />
<glyph unicode="&#xc2;" horiz-adv-x="1675" d="M102 651v310l4 4v327h1024v-131h269l-13 -12h-256v-264h70v-13h-70v-53h72v142l287 288h84v-305l-43 -45h-78v45l-123 -125v-123l-45 -45h-80v117h-71v-768h-1024v651h-7zM106 651h33l2 346l-35 -32v-314zM139 33h961v735h-916v-117h-45v-618zM139 997l254 252h78 l-289 -288v-142h918v53h-914v13h256q-68 80 -252 80l11 12q172 0 239 -72l260 262q-70 70 -239 70l12 10q195 -14 248 -86h379v99h-961v-263zM440 885h658l2 264h-400zM1098 768h35v51h-35v-51zM1098 872h35v13h-35v-13zM1098 1149h32l3 12h-35v-12z" />
<glyph unicode="&#xc3;" horiz-adv-x="1753" d="M102 477h1166v156l20 20l21 -20v-156h43v156l20 20l21 -20v-156h43v156l20 20l21 -20v-156h43v156l20 20l21 -20v-156h43v156l20 20l21 -20q0 -18 2 -50t3 -57.5t1 -50.5v-72h-1547zM1151 678l6 70l86 -25l-4 -37zM1272 688q0 20 47 33.5t78 13.5q41 0 211 -33 q28 -4 28 -22q0 -25 -37 -25q-8 0 -28.5 5.5t-28.5 5.5q-78 16 -149 16q-20 0 -56.5 -8t-40.5 -8q-25 0 -24 22z" />
<glyph unicode="&#xc4;" horiz-adv-x="1142" d="M102 911l205 242q49 -31 151.5 -96.5t184.5 -115.5t156 -85q14 -8 184 -29l57 -79l-6 -70l-84 -70q-188 0 -243 27z" />
<glyph unicode="&#xc5;" d="M102 2v1933h1958v-1933h-1958zM193 1808l34 -24l-16 -37l31 25l34 -25l-12 37l31 24h-37l-14 37l-11 -37h-40zM262 1442l29 -21l-15 -28l25 18l29 -18l-11 28l27 21h-31l-12 28l-8 -28h-33zM356 1683l35 -24l-16 -35l31 23l34 -23l-12 35l31 24h-37l-14 37l-11 -37h-41z M494 1440l264 -266l215 217l-264 264zM602 1798l35 -24l-16 -37l30 24l35 -24l-12 37l31 24h-37l-15 37l-10 -37h-41zM635 190h115l254 723l278 -723h117q-23 53 -70 177.5t-89 224.5t-79 168q-2 0 -75.5 72.5t-79.5 80.5l-82 84zM797 1155l364 -371l197 197l-367 369z M877 1784l28 -21l-14 -30l24 18l29 -18l-10 30l27 21h-31l-12 28l-9 -28h-32zM1245 809l367 -371l88 88l-369 369zM1649 451l12 -31l51 53l-31 8z" />
<glyph unicode="&#xc6;" horiz-adv-x="1679" d="M102 1180q0 156 99.5 284.5t249.5 128.5q154 0 271.5 -105.5t117.5 -256.5q0 127 130 244.5t259 117.5q150 0 249 -128.5t99 -284.5q0 -418 -737 -1014q-737 594 -738 1014z" />
<glyph unicode="&#xc7;" horiz-adv-x="1482" d="M102 0v1292h418q10 76 35 178.5t45 102.5h416q6 0 14 -11.5t15.5 -33t13.5 -45t12 -54t10 -52t8.5 -49.5t6.5 -36h30v-194l11 -37h24l10 33h29l12 -35q27 0 27 -53v-621q0 -66 -113 -82v-303h-1024zM135 33h959v268q-12 -2 -33 -2q0 -20 -2 -31h-475q-2 10 -2 31 q-45 0 -77 3t-51.5 16.5t-30.5 23.5t-15.5 40t-5.5 48.5t0 67.5t1 77l-2 242v189q0 29 11.5 40t26 10t30.5 14t23 50h602v21h-602l24 116h578v3h-959v-1227zM309 414v190h74v-190h-74zM322 766v211h61v-211h-61zM354 616v134h29v-134h-29zM422 1008l6 -19q2 -8 21 -8 q26 0 26 26.5t-26.5 26.5t-26.5 -26zM444 700.5q0 -161.5 102.5 -265t262.5 -103.5q181 0 285 127v28q-100 -139 -285 -139q-154 0 -250 98.5t-96 252t96 253t250 99.5q184 0 285 -140v35q-104 125 -285 125q-160 0 -262.5 -104.5t-102.5 -266zM455 377q0 -41 39 -41 q16 0 28.5 12.5t12.5 28.5q0 41 -41 41q-39 0 -39 -41zM473 376.5q0 20.5 20.5 20.5t20.5 -20.5t-20.5 -20.5t-20.5 20.5zM584 238v18h475v-18h-475zM1094 301q22 0 32 2v45q-6 8 -6 25q0 8 6 18v115q-20 -33 -32 -47v-158zM1094 946q20 -29 32 -49v201l-6 22h-26v-174z M1126 348q8 -12 29 -12q35 0 35 37q0 35 -35 35q-16 0 -29 -17v-43zM1126 506q50 88 50 194q0 109 -50 197v-43q31 -72 31 -156t-31 -151v-41zM1260 532v39h24v-39h-24zM1260 580v327h79v-327h-79zM1352 690v101h28v-101h-28z" />
<glyph unicode="&#xc8;" horiz-adv-x="1449" d="M102 1036q0 23 19.5 42.5t42.5 19.5q51 0 155.5 -98.5t139.5 -98.5q39 33 71.5 74t73.5 105.5t55 84.5h467l-409 -538v372q-2 -4 -26.5 -39.5t-49.5 -70.5t-57.5 -74t-65.5 -62.5t-59 -23.5q-55 0 -206 133t-151 174zM102 1225v403h304v-393h-82v-145zM131 1602l193 -109 v-231h61v340h-254zM707 1675h442v-114h-373zM717 307v180h477v95h-385l428 567q12 6 29 6q80 0 80 -135q0 -618 -5 -713h-624zM721 1421l59 74h369v-117q0 -59 -55.5 -104t-116.5 -45q-84 0 -126 53t-42 139h-88z" />
<glyph unicode="&#xc9;" horiz-adv-x="3293" d="M102 -223l1446 -94h-1446v94zM344 178v641q0 4 6 23q2 0 14.5 6t16.5 6h860q4 0 16.5 -6t14.5 -6q6 -18 6 -23v-641q0 -4 -6 -22q-2 0 -9.5 -4.5t-14.5 -6.5t-9 -2h-856q-14 0 -26.5 10.5t-12.5 24.5zM1696 315v320h1495v-320h-1495zM2087 797v479q0 8 4 16q20 10 23 11 h645q2 0 22 -11q6 -12 6 -16v-479q0 -27 -30 -27h-641q-14 0 -25 10q-4 8 -4 17z" />
<glyph unicode="&#xca;" horiz-adv-x="1753" d="M102 481h80v811h1024v-551l37 -10l-4 -39l-33 -2v-209h62v158l20 20l21 -20v-158h43v158l20 20l21 -20v-158h43v158l20 20l21 -20v-158h43v158l20 20l21 -20v-158h43v158l20 20l21 -20q0 -18 2 -50t3 -58.5t1 -51.5v-71h-445v-408h-1024v408h-78zM182 408h33v73h-33v-73z M215 33h959v375h-959v-375zM215 481h959v205l-23 -2l6 72l17 -4v508h-959v-779zM1174 408h32v73h-32v-73zM1271.5 694.5q0.5 22.5 46.5 35.5t79 13q51 0 145 -19.5t94 -37.5q0 -25 -37 -24q-8 0 -28.5 5t-28.5 5q-78 16 -149 16q-20 0 -56.5 -8t-40.5 -8q-25 0 -24.5 22.5z " />
<glyph unicode="&#xcb;" horiz-adv-x="1884" d="M102 668q0 55 30 90t85 47t93 15t93 1l-24 375l242 166h548q35 0 66 -12q23 -18 32 -84t7 -128.5t-6 -143.5t-4 -97q35 -37 87 -55.5t84.5 -20.5t107.5 1t91 3q4 0 30 1t41 0t35.5 -4t31 -14.5t10.5 -29.5q0 -2 -3 -10t-7.5 -16.5t-4.5 -10.5l-38 -22q-92 10 -107 10 q-18 0 -93 -25.5t-83 -35.5q8 -18 33.5 -45t33.5 -43q-51 -80 -215 -80q-39 0 -120.5 19.5t-124.5 19.5q-39 0 -110 -19.5t-107 -19.5q-82 0 -247 35.5t-249 35.5q-238 0 -238 97zM350 670h287l-234 149q-2 -2 -18 -20l-14 -19q0 -2 -2 -12v-10q-2 -8 -9.5 -45t-9.5 -43z M397 1169q29 -4 91.5 -12t111.5 -13t90 -5q182 0 234 16q43 12 204 115l93 59zM723 641q137 -47 221 -47q123 0 123 94h2q0 33 -19.5 88t-23.5 76q-10 47 -18 154zM1083 696q12 5 37 25zM1151 741h27.5t38 5.5t24.5 17.5l64 82z" />
<glyph unicode="&#xcc;" horiz-adv-x="1798" d="M102 1329l39 29l185 -365l43 129l198 -80q-37 -66 -44 -196.5t-29 -188.5q35 -63 95 -185t89 -175h250l37 -98h-353l-217 438q-135 0 -135 119q0 33 18.5 95t18.5 95zM354 391q0 10 11.5 32.5t29 50.5t19.5 30l118 -234q-178 63 -178 121zM444 1139q18 49 37 81.5t32 53 t45 37t44 22.5t65.5 21.5t75.5 23.5q16 6 55.5 19.5t62 20.5t56 14.5t62.5 7.5q49 0 76.5 -27t36 -58.5t36 -58t76.5 -26.5q16 0 45 12t43 12q23 0 47.5 -22.5t46 -62.5t40 -83t36 -97t27.5 -89t21.5 -77t11.5 -44l-111 -41q-88 262 -135 262q-39 0 -39 -112 q-172 -25 -260 -25q-33 0 -116 49t-83 82q0 37 35 82t35 47q0 35 -109 35q-66 0 -87 -3t-44.5 -25.5t-42.5 -75.5q-72 18 -121 45zM535 709q0 63 65.5 176.5t122.5 113.5q18 0 68.5 -25.5t106.5 -59t71 -40.5l4 -28q8 6 17 18.5t16 16.5q10 6 315 6q43 -61 43 -160 q111 41 229 92l103 -250l-8 -22q-2 0 -9.5 -4t-11.5 -4q-23 0 -37 22l43 -102q-51 -63 -162 -64q-53 0 -93 88t-40 150h-14q0 -12 1 -65.5t2 -105.5t0 -111.5t-5 -101.5t-10 -52q-16 -12 -51 -17.5t-65 -5.5t-73 2t-53 2q-80 0 -118 41t-39 104.5t7.5 130t7.5 130t-26 90.5 q-33 -25 -90 -167t-111 -167q-29 6 -117.5 160.5t-88.5 208.5zM1112 1532q0 41 18.5 61.5t40 23.5t66.5 3q31 0 51.5 -10.5t30.5 -20.5t15 -38.5t5 -41v-51.5q0 -55 -29.5 -102t-82.5 -47q-35 0 -74 27.5t-39 60.5z" />
<glyph unicode="&#xcd;" horiz-adv-x="1863" d="M102 756v110q6 -23 23 -39l33 -6q0 16 -2 95t1 137.5t19 89.5q37 12 78 12h1364l65 -4l21 -21q6 -27 7 -56.5t-1 -70t-2 -57.5v-127l35 6q16 20 18 39v-110q0 45 -53 45v-45h-1550v47q-55 0 -56 -45zM217 676q0 23 14.5 37t35 14t34.5 -14t14 -37q0 -20 -14 -34.5 t-35 -14.5q-49 0 -49 49zM283 946q0 -18 28 -59h35q0 25 14.5 40t38.5 15q23 0 37.5 -16.5t14.5 -38.5h264q0 23 15 39t38 16q53 0 53 -55h23q16 12 16 86q-20 4 -54 4h-42q-37 53 -55 82h-187l-41 -82q-20 0 -62 1t-65 1q-72 0 -71 -33zM362 887q0 -35 37 -35q35 0 35 35 t-35 35q-37 0 -37 -35zM395 676q0 23 14.5 37t34.5 14q50 0 50 -51q0 -20 -13.5 -34.5t-36 -14.5t-36 14t-13.5 35zM508 977q25 49 29 59h51v-59h-80zM608 977v59h62q8 -26 22 -59h-84zM733 887q0 -35 37 -35q35 0 35 35t-35 35q-37 0 -37 -35zM983 854h33v25h557v-25h37 v125h-37q-6 -2 -45 -16.5t-76 -28.5t-39 -14q-59 -6 -133 -6.5t-163 3t-134 3.5v-66zM1380 676q0 23 14.5 37t35.5 14q49 0 49 -51q0 -20 -14.5 -34.5t-34.5 -14.5q-49 0 -50 49zM1559 676q0 23 14 37t35 14q49 0 49 -51q0 -20 -13.5 -34.5t-35.5 -14.5q-49 0 -49 49z" />
<glyph unicode="&#xce;" d="M102 2v1933h1958v-1933h-1958zM377 1202l41 -28l-19 -48l39 31l43 -31l-16 45l39 31h-47l-17 47l-14 -47h-49zM641 1094l43 -31l-16 -47l39 31l43 -31l-19 45l39 31h-45l-16 53l-15 -51h-53zM854 922l43 -33l-18 -47l39 30l43 -30l-17 45l41 33h-49l-16 49l-15 -47h-51z M1026 692l41 -30l-16 -48l41 31l43 -31l-19 45l41 33h-47l-16 49l-15 -49h-53zM1139 424l43 -31l-17 -45l39 29l41 -29l-16 43l41 33h-47l-17 49l-14 -49h-53zM1425 412l41 -31l-18 -47l41 31l43 -31l-19 45l41 31h-47l-16 49l-14 -47h-52zM1483 713l43 -31l-17 -47l39 29 l43 -29l-16 45l37 31h-45l-17 49l-14 -47h-53zM1593 1524l52 -39l-23 -58l49 37l53 -37l-20 58l51 37h-61l-21 63l-18 -61h-62z" />
<glyph unicode="&#xcf;" horiz-adv-x="1740" d="M102 1237l111 4l-107 463h66l107 -463l397 -4l-164 -926h-246zM735 719q0 29 51.5 41t96.5 12h616q43 0 91 -12t48 -41q0 -43 -178 -43l-594 -2q-131 0 -131 45zM778 799q33 100 89.5 127.5t176.5 27.5h283q115 0 177 -29.5t95 -125.5h-821zM780 649h822 q-35 -94 -96.5 -124.5t-174.5 -30.5q-27 0 -109.5 -1t-123.5 -1t-106.5 7t-117.5 21q-53 14 -94 129z" />
<glyph unicode="&#xd0;" d="M102 2v1915h1958v-1915h-1958zM205 104h1753v1711h-1753v-1711zM233 958l218 222v-156h743v-133h-741v-154zM575 1167v394h1242v-1207h-1229v404h143v-254l940 4v905h-938v-246h-158z" />
<glyph unicode="&#xd1;" horiz-adv-x="716" d="M102 590l23 65l-19 9l29 147q6 6 14.5 9t18.5 5t16 4q72 68 90 78q96 -37 293 -106q6 -25 12.5 -70t10.5 -65q22 -23 24 -31q-14 -47 -65 -131l-25 8l-24 -66l-51 19l24 65l-297 109l-24 -68zM207 819l358 -135v64.5t-12 35t-19.5 18.5t-47.5 14t-70 24l-129 47 q-20 6 -80 -68z" />
<glyph unicode="&#xd2;" horiz-adv-x="1900" d="M102 442v152l74 2q0 37 27.5 61.5t66.5 24.5q37 0 61.5 -24.5t24.5 -61.5h93q0 37 27.5 61.5t64.5 24.5t61.5 -24.5t24.5 -61.5h96q0 37 27.5 61.5t66.5 24.5q37 0 60.5 -24.5t23.5 -61.5h94q0 37 28 61.5t67 24.5q37 0 60.5 -24.5t23.5 -61.5h96q0 37 27.5 61.5 t66.5 24.5q37 0 60.5 -24.5t23.5 -61.5h94q0 35 27.5 57.5t62.5 22.5q39 0 65.5 -21.5t24.5 -58.5l76 -2v-152h-256v-292h-184v292h-813v-292h-185v292h-258zM195 596h139h2q0 31 -18.5 49.5t-49 18.5t-52 -18.5t-21.5 -49.5zM371 817v486q0 31 10 52t25.5 31.5t40 16.5 t44 6h49t44.5 2v-696h-99q-51 0 -82.5 25.5t-31.5 76.5zM469 596h139h2q0 31 -18.5 49.5t-49 18.5t-52 -18.5t-21.5 -49.5zM645 715v696h115q0 145 61 145h262q61 0 62 -145h115v-696h-615zM715 1026h145l2 252h-51v125h-43v-125h-53v-252zM741 596h140h2q0 68 -66 68 q-31 0 -53.5 -19.5t-22.5 -48.5zM766 1237q0 23 20 23q25 0 25 -23t-22.5 -23t-22.5 23zM815 1411h279h2q0 96 -43 96h-193q-45 0 -45 -96zM858 1696l86 84l88 -84h-49v-111h-74v111h-51zM1016 596h139h2q0 68 -65 68q-31 0 -53.5 -19.5t-22.5 -48.5zM1288 596h142 q0 29 -18.5 48.5t-47.5 19.5q-33 0 -54.5 -18.5t-21.5 -49.5zM1321 715v696q14 0 54 -1t60.5 -3t47 -11.5t39 -33t12.5 -59.5v-486q0 -47 -32 -74.5t-79 -27.5h-102zM1563 596h141q0 68 -66 68q-31 0 -53 -19.5t-22 -48.5z" />
<glyph unicode="&#xd3;" horiz-adv-x="1712" d="M102 352v25q0 25 17 24h14q16 0 17 -24v-25h2q0 -25 -17 -24h-14q-18 0 -19 24zM115 350q0 -12 6 -12h10q8 0 8 12v29q0 12 -6 12h-10q-8 0 -8 -12v-29zM180 315q180 168 353.5 237t420.5 69q281 -1 523 -138l-95 -151q-166 100 -302 133t-347 33q-272 0 -553 -183z M203 754q0 111 96 149v598q0 88 53 88q57 0 58 -88v-598q96 -34 96 -149h2q0 -66 -40 -106t-106 -40q-61 0 -110 43t-49 103zM219 756q0 -53 44 -92t97 -39q59 0 96.5 37t37.5 94q0 47 -27 85t-72 46v82h-78v-80q-98 -29 -98 -133zM315 983h31l2 78h-33v-78zM315 1077h33v80 h-33v-80zM315 1174h31l2 77h-33v-77zM315 1268h31l2 80h-33v-80zM315 1364h31v78h14v-78h33l2 129q0 80 -41 80q-39 0 -39 -80v-129zM319 412q152 70 271 90t309 20q125 0 229.5 -30.5t237.5 -94.5l43 66q-139 74 -244.5 99.5t-263.5 25.5q-184 0 -304 -37t-278 -139z M360 983h35v174h-35v-174zM360 1174h35v174h-35v-174zM762 698l16 19h15v-74h-11v59l-10 -10zM811 643l39 72h12l-37 -72h-14zM874 643v10l5 15l30 24l4 4l-8 11h-10q-8 -4 -8 -15h-13q0 25 17 25h16q14 0 15 -25l-17 -16q-16 -6 -18 -23h33v-10h-46zM1165 754q0 111 97 149 v598q0 88 53 88q57 0 57 -88v-598q98 -34 98 -149q0 -66 -39.5 -106t-105.5 -40q-61 0 -110.5 43t-49.5 103zM1278 1290h31l2 58h-33v-58zM1278 1364h31v78h14v-78h35v129q0 80 -41 80q-39 0 -39 -80v-129zM1323 1290h35v58h-35v-58zM1460 387l17 19h14v-74h-10v59l-11 -10z M1509 332l39 71h13l-37 -71h-15zM1577 387l16 19h17v-74h-13v59l-10 -10z" />
<glyph unicode="&#xd4;" horiz-adv-x="1826" d="M102 743v74h37l15 31q2 0 9 3t13 6t8 3q47 0 43 -43h45l17 31l30 12l31 -10l12 -33h41l15 31l31 12l30 -10l13 -33h45l16 31l31 12l30 -10l13 -33h45l16 31l31 12l31 -10l12 -33h47l14 31l31 12l29 -10l12 -33h49l14 31l31 12l31 -10l12 -33h45l15 31l30 10l33 -10 l12 -31q12 -2 37 -2v-72h-1102zM145 817h70h2q0 14 -9 24.5t-24 10.5q-39 0 -39 -35zM164 1044l129 146l-6 -109h172v-71h-172l6 -109zM283 817h67h2q0 14 -9 24.5t-24 10.5q-37 0 -36 -35zM410 817h69h2q0 14 -9 24.5t-23 10.5q-39 0 -39 -35zM498 926v243q0 20 13 32.5 t25.5 15t37 3.5t30.5 1v-344h-49q-23 0 -40 13t-17 36zM547 817h67h2q0 14 -10 24.5t-22 10.5q-37 0 -37 -35zM633 877v344h59q0 72 29 71h131q18 0 24.5 -24.5t4.5 -46.5h55v-344h-303zM670 1032h71l2 123h-26v62h-21v-62h-26v-123zM682 817h70h2q0 33 -33 33 q-39 0 -39 -33zM694 1135l11 12l12 -12h-2q0 -2 -10 -13q0 2 -11 13zM719 1221h139q0 47 -22 47h-95q-23 0 -22 -47zM817 817h70h2q0 33 -33 33q-39 0 -39 -33zM952 817h70q0 33 -33 33q-37 0 -37 -33zM969 877v344q6 0 31.5 -1t38 -3.5t24.5 -13.5t12 -34v-243h2 q0 -49 -57 -49h-51zM1087 817h70q0 33 -33 33q-37 0 -37 -33zM1298 788v342q0 39 22.5 66t57.5 27h262q37 0 60.5 -27t23.5 -66v-342q0 -4 -12 -28l-26 -15l-29 15q-6 6 -10.5 35.5t-5.5 70.5t0 79t2.5 76t1.5 46h-15v-846q0 -2 -3 -7t-3 -7q-2 0 -9 -4t-9 -4h-58 q-2 0 -18 8q-4 6 -4 530h-31q0 -526 -2 -530q-2 0 -9 -4t-9 -4h-58q-4 0 -20 8q-4 6 -4 860h-15q0 -8 1 -45t2 -76t0 -80t-4 -70.5t-9 -35.5l-29 -15l-26 15q-14 14 -15 28zM1421 1346q0 41 24.5 65.5t63.5 24.5q41 0 67 -26t26 -64.5t-26 -65.5t-65 -27q-37 0 -63.5 28 t-26.5 65z" />
<glyph unicode="&#xd5;" horiz-adv-x="1040" d="M102 1413q59 80 120 133t121 82t127 43.5t138.5 17.5t154.5 3h175v-162h-96q-10 -41 -23.5 -65.5t-36 -40t-41 -22.5t-59.5 -19.5t-72 -24.5q-20 -8 -80.5 -31.5t-102.5 -38t-83 -24.5l-14 12q10 41 59 79t101.5 61.5t95.5 56t43 65.5q0 8 -17 33q-55 -2 -168 -2 q-4 -8 -28.5 -58.5t-44 -86t-48 -68.5t-53.5 -33l-12 14q23 63 66 113q-109 -96 -144 -96q-20 0 -26 14q16 23 59 70q-51 -41 -76 -41q-23 0 -35 16z" />
<glyph unicode="&#xd6;" horiz-adv-x="1773" d="M102 594v164q115 0 338.5 -7.5t404.5 -7.5t333 15q6 0 96 32.5t192.5 69.5t110.5 41h94v-307h-92v92h-1393v-92h-84z" />
<glyph unicode="&#xd7;" horiz-adv-x="1495" d="M102 1008v20q356 45 676 45q238 0 615 -41v-20q0 -31 -54.5 -66t-89.5 -35q-143 0 -190 101q-37 -123 -205 -123q-45 0 -83 38t-50 83q-47 -94 -156 -95q-49 0 -91 25t-60 68q-35 -111 -131 -111q-53 0 -117 30.5t-64 80.5zM733 1294v11q0 18 8 34q17 -41 27 -61h-2 q0 -10 -6 -10h-21q-10 14 -6 26z" />
<glyph unicode="&#xd8;" horiz-adv-x="1245" d="M102 219v291h920v-291h-920zM102 598v156h920v-156h-920zM395 1247v273h314v-273h-314zM446 1384q0 -49 29 -79.5t78 -30.5t79 30.5t30 79.5q0 47 -31 77t-78 30t-77 -29.5t-30 -77.5zM737 1356v76h264v32h27v-301h-27v193h-264zM1040 389v1184h62v-1184h-62zM1116 1163 v301h27v-301h-27z" />
<glyph unicode="&#xd9;" horiz-adv-x="1183" d="M102 217v41q35 -8 109 0t102 35l31 156q-33 0 -49 12q25 70 24 110l-4 17l-6 6q-20 -6 -48 -34t-42 -34q-14 0 -18 11q23 43 93.5 103t94.5 114q-47 31 -47 65q0 33 22.5 58.5t53.5 25.5q43 0 54 -27.5t17 -31.5l15 4l24 -12q14 -14 15 -29q0 -23 -15.5 -33t-43 -16 t-35.5 -10q12 -10 19 -19.5t14 -21t10.5 -18.5t9.5 -23.5t10 -24.5q20 6 27 4q6 4 75.5 146.5t112.5 148.5l6 6l-16 10q-45 0 -45 70q0 104 57 104q51 0 70.5 -17t19.5 -66q0 -25 -20 -86q51 -137 65 -216q47 0 70 3v-138h-57l12 -100l-39 -4l-10 -10q12 -35 43.5 -113 t46.5 -127q100 0 151 -2v-37h-979zM362 256h37l47 39h3q0 4 -4.5 41t-8.5 55q0 6 -7 26.5t-13 22.5q-4 0 -6 2q-10 0 -17.5 -19.5t-7.5 -31.5l-10 -67zM475 438l23 -182h20q0 16 30 28.5t48 12.5q4 16 12 67.5t20.5 89.5t33.5 58q-12 14 -35 20q8 25 29.5 71t33.5 84t12 73 v18l-6 6q-23 0 -78 -133q-76 -41 -75 -73q0 -20 16 -60.5t16 -58.5q0 -31 -100 -21zM653 283l4 -13q4 -14 5 -16q37 2 110 2q0 25 78 41q-29 100 -59 164q-16 29 -17 47h-55q-8 0 -14.5 -8t-8.5 -17.5t-4 -23.5v-13q0 -35 -2 -40q-37 -94 -37 -123z" />
<glyph unicode="&#xda;" horiz-adv-x="2142" d="M102 977q0 428 271.5 702.5t697.5 274.5q428 0 698.5 -274.5t270.5 -702.5t-270.5 -703.5t-696.5 -275.5t-698.5 275.5t-272.5 703.5zM248 989q0 -365 230.5 -605.5t592.5 -240.5q281 0 463 125l-1163 1174q-123 -205 -123 -453zM500 1591l1179 -1198 q104 113 159.5 265.5t55.5 312.5h2q0 360 -232 597.5t-593 237.5q-328 0 -571 -215z" />
<glyph unicode="&#xdb;" horiz-adv-x="1736" d="M102 1487q0 121 140 121q135 0 227 -66q111 -80 220.5 -210t109.5 -228q0 -49 -24.5 -81t-72.5 -32h-311q-74 0 -144.5 99.5t-107.5 213t-37 183.5zM141 262q0 2 13 205q0 14 3 90t6 113t18.5 102.5t38 100t66.5 62.5t105 28h311q64 -1 64 -91q0 -119 -149.5 -311 t-270.5 -264q-2 -2 -47 -29.5t-78 -44t-49 -16.5q-31 0 -31 55zM727 1669l10 2q88 -164 113 -344l-10 -2q-18 145 -113 344zM793 922h151q0 -86 -17.5 -198t-60.5 -112q-51 0 -59 117zM811 942q0 35 3 80t15.5 101.5t32.5 64.5q-47 8 -47 57q0 25 17.5 41.5t42 16.5 t40 -16.5t15.5 -41.5q0 -20 -14.5 -36.5t-36.5 -20.5q31 -12 39 -92l14 -154h-121zM901 1321q29 184 113 344l10 -2q-92 -197 -113 -344zM938 1104q0 37 43 119q84 160 220 272.5t294 112.5q139 0 139 -121q0 -29 -8 -65t-14 -54t-23.5 -64.5t-21.5 -54.5q-4 -10 -19.5 -55 t-23.5 -63.5t-28.5 -47t-45.5 -45.5q-12 -8 -54 -27.5t-50 -19.5h-312q-47 0 -71.5 33t-24.5 80zM971 872q0 90 63 91h312q53 0 94 -18.5t65.5 -54.5t40 -74t22.5 -93t9 -94t3 -94.5t3 -77.5q12 -191 12 -195q0 -55 -30 -55q-14 0 -41 12t-48.5 24.5t-50 31t-34.5 22.5 q-117 68 -268.5 263.5t-151.5 311.5z" />
<glyph unicode="&#xdc;" horiz-adv-x="1138" d="M102 1118q0 213 124 377t331 164q88 0 179 -25.5t165 -90t74 -154.5l-33 -19l-24 14q0 59 -36 105.5t-93.5 69t-116 34t-113.5 11.5q-184 0 -287.5 -148.5t-103.5 -343.5q0 -123 140.5 -427t226.5 -343q102 -45 223 -45q76 0 146.5 65.5t70.5 141.5q0 57 -41 83.5 t-100 26.5q-16 -104 -117 -104q-111 0 -117 68q-4 37 -33.5 66.5t-64.5 47t-70 49t-47 70.5l12 18l23 7l12 -7q12 -41 44 -68.5t84 -56t71 -42.5q2 -2 8 -20.5t13 -40t10 -28.5q31 -10 57 -10q31 0 43 21q-6 18 -21.5 61t-23.5 68.5t-16.5 62.5t-8.5 68q0 63 21.5 100 t79.5 62q35 -8 60.5 -39t25.5 -68q0 -20 -13.5 -32.5t-42 -22.5t-35.5 -13q0 -2 -6 -10t-10 -16t-4 -10q0 -39 59 -125q78 10 143.5 -35t65.5 -123q0 -96 -95 -184t-193 -88q-78 0 -137.5 14t-95.5 31.5t-69.5 60.5t-50 71.5t-50.5 96.5t-54 104q-6 12 -43 77t-47.5 84.5 t-36 75.5t-34.5 88t-18.5 81t-9.5 94zM262 1217q23 133 94.5 226t194.5 93q125 0 224 -86t99 -211q0 -90 -38 -90q-14 0 -21 12q8 45 0 111q-98 0 -191.5 -69.5t-93.5 -166.5q0 -25 7.5 -68.5t7.5 -54.5q2 -25 -47 -30l-9 6q-14 119 -14 160q0 106 113.5 188t224.5 82 q-63 160 -266 160q-76 0 -125 -42t-65.5 -93.5t-36 -93.5t-44.5 -42z" />
<glyph unicode="&#xdd;" horiz-adv-x="1556" d="M102 0v1280h215v281q0 39 25 62.5t61 23.5l289 2h156l244 -2q10 0 50 3t69.5 3t63.5 -6.5t53.5 -28t19.5 -57.5v-406l-74 12v394h-885q0 -186 2 -281h735v-311q2 2 7.5 4t7.5 2q37 10 63 16v-84h-78v-26h170v-103h-170v-45h78v-209h-78v-47h170v-102h-170v-51h78v-150 h-78v-174h-1024zM135 33h959v342h-152v102h152v301h-152v103h152v366h-758q-4 -2 -10.5 -7t-8.5 -7v14h-182v-1214zM213 276q16 0 47 1.5t47.5 1.5t47 -1.5t44.5 -1.5v-102h-98q-16 0 -53 19q-35 20 -35 83zM213 315v209h102v-209h-102zM213 584v102h186v-102h-186zM213 719 v209h102v-209h-102zM213 989v10q6 2 25.5 14.5t29.5 16.5q23 6 67 17.5t56 13.5v-72h-178zM371 375v102h354v-102h-354zM375 778v103h350v-103h-350zM459 174v150h102v-150h-102zM459 524v209h102v-209h-102zM459 907v154q29 -4 41 -10q4 -4 39 -23q4 -2 12 -9t10 -7v-105 h-102zM616 584v102h431v-102h-431zM621 174v102h421v-102h-421zM782 315v209h99v-209h-99zM784 719v205h97v-205h-97zM1102 907h24v62l-24 -13v-49zM1264 174v102q16 0 47.5 1.5t48 1.5t47.5 -1.5t47 -1.5q0 -66 -33 -83q-37 -18 -55 -19h-102zM1268 584v102h186v-102h-186z M1356 719v188h96v-188h-96zM1358 315v209h96v-209h-96z" />
<glyph unicode="&#xde;" horiz-adv-x="1798" d="M102 561v41h1594v-41h-1594zM397 629q20 51 59.5 106.5t91.5 119t77 97.5q10 14 40.5 68.5t53.5 79.5q25 27 126 59.5t231 86.5t216 130l219 -186q-92 -61 -221 -190.5t-241.5 -233.5t-194.5 -131q-6 4 -10 10q2 18 18 51q-41 -4 -63 -4q-84 0 -84 47q0 115 28 174 q-55 -76 -156.5 -187.5t-144.5 -111.5q-20 0 -45 15z" />
<glyph unicode="&#xdf;" horiz-adv-x="1822" d="M102 973q0 356 224.5 586.5t580.5 230.5q358 0 585.5 -230.5t227.5 -589t-223 -587.5t-582 -229q-356 0 -584.5 230t-228.5 589zM217 971q0 -305 194.5 -504t500 -199t498 198t192.5 503q0 309 -192.5 504.5t-502.5 195.5q-305 0 -497.5 -196.5t-192.5 -501.5zM485 770 h150q0 -119 51 -180.5t168 -61.5q223 0 223 117q0 80 -57 136.5t-139 95t-165 81.5t-140.5 120t-57.5 184q0 147 122 225t278 78q68 0 128 -10.5t121.5 -36t97 -76.5t35.5 -125q0 -37 -8 -51h-125q4 14 4 47q0 129 -251 129q-76 0 -123 -43t-47 -117q0 -57 62 -105.5 t151.5 -86t177.5 -83.5t150.5 -124.5t62.5 -180.5q0 -80 -30 -137t-72 -88t-109.5 -49t-123.5 -22.5t-134 -4.5q-399 0 -400 369z" />
<glyph unicode="&#xe0;" horiz-adv-x="1327" d="M102 254v1139h123v-1000h877v1000h123v-1139h-1123zM285 635v414q0 16 3 28.5t10 21.5t14 15t20.5 10t20.5 6.5t24.5 3.5t25 1h25.5h23l86 125l88 -74l24 22l29 -73h264q41 0 66.5 -22.5t25.5 -63.5v-414q0 -72 -92 -72h-565q-92 0 -92 72zM383 979q70 -39 88 -135 q29 178 68 379zM442 676l70 -90h240v280q0 2 -50.5 144.5t-56.5 156.5l-14 -18l-72 65q-10 -55 -31.5 -166.5t-31.5 -168.5q-27 -152 -54 -203zM713 1049q6 -14 21.5 -53.5t25.5 -70t14 -53.5q4 -29 4 -68.5t-2 -88.5t-2 -70l160 148z" />
<glyph unicode="&#xe1;" horiz-adv-x="1327" d="M102 254v1139h123v-1000h877v1000h123v-1139h-1123zM285 635v414q0 39 25.5 62.5t66.5 23.5h131q-16 -66 -62.5 -118t-56.5 -112l119 -33l-33 -124l-121 32l-41 -149q10 -20 32 -29.5t40 -10.5t50 0t42 1q8 27 33 101.5t39 134t14 106.5q0 16 -11 47t-11 47q0 20 26 107 h375q41 0 66.5 -22.5t25.5 -63.5v-414q0 -72 -92 -72h-565q-92 0 -92 72zM662 702q0 -31 21 -75.5t48 -44.5q0 25 -11 65.5t-11 63.5q0 70 10 100q-23 -8 -40 -45t-17 -64zM715 743q0 -41 40 -74.5t40 -64.5q0 -14 -7 -24q31 12 31 51q0 37 -30.5 80t-30.5 67q0 43 10 90 q4 -4 22.5 -25.5t25.5 -28.5t24.5 -20.5t33 -18.5t33.5 -5q31 0 61.5 31.5t30.5 60.5q0 6 -6 12q-8 -4 -22.5 -29.5t-50.5 -25.5q-55 0 -103.5 36t-48.5 89q-10 -2 -31 -2q4 -70 -4 -119q-2 -10 -10 -36.5t-8 -43.5zM776 803q4 -33 27.5 -55.5t56.5 -22.5q18 0 45 -27 q39 -37 74 -47q-8 8 -29.5 36t-29.5 38q-10 12 -31 24.5t-38 20.5t-43 18.5t-32 14.5z" />
<glyph unicode="&#xe2;" horiz-adv-x="1445" d="M102 276q16 0 47 1.5t47.5 1.5t47 -1.5t45.5 -1.5v-102h-99q-16 0 -53 19q-35 20 -35 83zM102 315v209h103v-209h-103zM102 584v102h187v-102h-187zM102 719v209h103v-209h-103zM102 989v10q6 2 25.5 14.5t30.5 16.5q23 6 66.5 17.5t56.5 13.5v-72h-179zM207 1233v328 q0 39 24.5 62.5t61.5 23.5l289 2h155l244 -2q10 0 50 3t69.5 3t63.5 -6.5t53.5 -28t19.5 -57.5v-406l-74 12v394h-884q0 -186 2 -281q-55 -33 -74 -47zM260 375v102h354v-102h-354zM264 778v103h350v-103h-350zM348 174v150h103v-150h-103zM348 524v209h103v-209h-103z M348 907v154q29 -4 41 -10q4 -4 39 -23q4 -2 12.5 -9t10.5 -7v-105h-103zM506 584v102h430v-102h-430zM510 174v102h422v-102h-422zM672 315v209h98v-209h-98zM674 719v205h96v-205h-96zM831 375v102h355v-102h-355zM831 778v103h355v-103h-355zM991 174v150h103v-150h-103z M991 524v209h103v-209h-103zM991 907v49q8 2 20.5 9.5t18.5 9.5q37 10 64 16v-84h-103zM1153 174v102q16 0 48 1.5t48.5 1.5t47 -1.5t46.5 -1.5q0 -66 -32 -83q-37 -18 -56 -19h-102zM1157 584v102h186v-102h-186zM1245 719v188h96v-188h-96zM1247 315v209h96v-209h-96z" />
<glyph unicode="&#xe3;" horiz-adv-x="716" d="M102 903q0 6 19.5 17.5t21.5 17.5q2 2 10.5 21.5t15.5 35t16.5 30.5t15.5 17h313q12 -4 31 -45q29 -59 46 -71.5t23 -22.5q0 -57 -22 -147h-25v-72h-55v72h-311v-72h-54v72h-22q-23 109 -23 147zM166 936q45 0 134 -1t134 -1h119q-35 82 -49 92q-12 6 -92 4 q-27 -2 -54 -2l4 2h-145q-20 0 -51 -94z" />
<glyph unicode="&#xe4;" horiz-adv-x="1802" d="M102 952.5q0 350.5 224.5 574.5t574.5 224q352 0 575.5 -222.5t223.5 -576.5q0 -350 -224.5 -574t-574.5 -224t-574.5 224t-224.5 574.5zM203 803q0 -76 90 -231.5t158 -155.5q66 0 168 167.5t102 200.5q0 16 -10 58q-4 2 -18.5 17t-24.5 18q-25 8 -74 10t-131 0l-84 -2 q-41 0 -57.5 -1t-51 -7.5t-51 -24.5t-16.5 -49zM209 1110q0 -18 7 -32.5t20.5 -25t29 -17.5t38 -11t39.5 -6t43 -3t40 -1h37.5h30.5h153q27 0 70 43q0 4 4 23.5t4 29.5l-6 27q-2 2 -23.5 45t-49.5 91t-59.5 99t-65.5 84t-58 33q-63 0 -158.5 -153.5t-95.5 -225.5zM643 350 q0 -94 258 -94h10q236 -2 236 94q0 51 -31 107l-145 258q-4 10 -14.5 16t-16.5 9t-21.5 7.5t-19.5 6.5q-61 -18 -72 -39q-2 -4 -27.5 -45t-48 -81t-49 -89t-43 -89t-16.5 -61zM655 1552q0 -55 85 -211.5t108 -173.5q29 -18 53 -18q16 0 40 12.5t32 26.5q2 2 42 67.5 t65.5 110.5t51 101t25.5 83q0 96 -256 97h-10q-236 2 -236 -95zM1075 793l6 -27l13 -25q12 -25 27.5 -53.5t38 -67t45 -73.5t46 -65.5t46 -49t40.5 -18.5q63 0 159.5 153.5t96.5 225.5q0 16 -6 30.5t-19.5 24.5t-24.5 17t-33.5 11.5t-36 7.5t-40 4t-35.5 1h-36h-27h-182 q-27 0 -70 -43q-8 -33 -8 -53zM1079 1116q0 -29 11 -55q23 -23 49 -33t40.5 -12t56.5 0t56 2h113h10q37 0 58.5 1t55.5 8t51 25.5t17 49.5q0 78 -90 231.5t-157 153.5q-57 0 -164 -167t-107 -204z" />
<glyph unicode="&#xe5;" horiz-adv-x="1724" d="M102 1808h39l11 37l14 -37h39l-31 -24l12 -37l-32 25l-33 -25l16 37zM172 1442h31l8 28l12 -28h33l-27 -21l11 -28l-27 18l-27 -18l15 28zM266 1683h39l10 37l15 -37h39l-31 -24l12 -35l-33 23l-32 -23l16 35zM403 1440l213 215l267 -264l-213 -217zM512 1798h39l10 37 l14 -37h39l-30 -24l12 -37l-33 24l-33 -24l17 37zM545 190l286 807l82 -84q10 -10 82 -80.5t74 -72.5q37 -68 79 -168t90 -225.5t71 -176.5h-115l-279 723l-253 -723h-117zM707 1155l192 195l369 -369l-195 -197zM786 1784h31l8 28l13 -28h32l-26 -21l10 -30l-27 18l-26 -18 l14 30zM1155 809l84 86l371 -369l-86 -88zM1559 451l30 30l33 -8l-49 -53z" />
<glyph unicode="&#xe6;" horiz-adv-x="1163" d="M102 352v160h78q31 61 67 90t97 29q45 0 80 -25.5t51.5 -56.5t44 -56.5t62.5 -25.5q37 0 66.5 25.5t47 56.5t50 56.5t73.5 25.5q123 0 164 -119h78v-160h-959z" />
<glyph unicode="&#xe7;" horiz-adv-x="1720" d="M102 633v538q0 88 246 89q23 0 49.5 -2.5t78.5 -9.5t85 -26.5t33 -50.5v-538h-45l-33 41h-37v-90h-28v90h-205v-90h-29v90h-37l-33 -41h-45zM164 735q0 -33 29 -33q32 0 32 33q0 31 -28 31q-33 0 -33 -31zM256 707h178v432q0 70 -88 69q-90 0 -90 -69v-432zM473 733 q0 -31 27 -31q28 0 28 31q0 29 -28 29q-27 0 -27 -29zM631 584v49h225q0 18 -2 96t-4 162t-5 172t-11.5 149.5t-20.5 73.5q-25 6 -55.5 7t-71.5 -1t-55 -2v56h606v-56q-20 0 -83.5 3t-112 2t-80.5 -9q-14 -16 -23.5 -111.5t-12.5 -194.5t-5 -214t-2 -133h147q-37 0 -37 34.5 t37 34.5q35 0 35 -34q0 -12 -11.5 -23.5t-23.5 -11.5h371q-37 0 -37 34.5t37 34.5q35 0 34 -34q0 -14 -10 -24.5t-24 -10.5h182v-49h-987zM973 754q20 4 54 4h42l55 76h183q6 -10 45 -76q23 0 64.5 1t62.5 1h9h10h10.5t11.5 -1t9 -3t8 -4t7 -5.5t5 -8.5t1 -11q0 -18 -28 -59 h-35q0 23 -14.5 38t-36.5 15q-53 0 -54 -53h-264q0 53 -53 53t-53 -53h-23q-16 12 -16 86zM1141 758h84v59h-62q-18 -47 -22 -59zM1245 758h80q-25 49 -29 59h-51v-59z" />
<glyph unicode="&#xe8;" horiz-adv-x="1126" d="M102 254l197 385h190v-289h37v-96h-424zM588 782q33 16 53 17q53 0 82 -17q45 0 71.5 -3t49 -19.5t33 -28.5t40 -51t52.5 -66q-10 -25 -27 -77q53 -70 82 -103q0 -18 -27 -82l9 -8l-17 -20l-28 30q-20 -16 -37 -16q-8 0 -18.5 7t-23 18.5t-16.5 13.5q6 37 23 53 q-31 35 -89.5 104.5t-88.5 102.5q-12 -14 -35 -14q-20 0 -39 18t-19 39q0 25 21 41q-8 10 -25.5 30.5t-25.5 30.5z" />
<glyph unicode="&#xe9;" horiz-adv-x="1888" d="M102 170v1446h1684v-1446h-1684zM186 498q0 -31 29 -50.5t59 -19.5h1348q31 0 59.5 19.5t28.5 50.5v987q0 8 -18 45q-35 25 -70 24h-1348q-35 0 -69 -24q-18 -37 -19 -45v-987zM274 197h517v18h-517v-18zM274 231h517v21h-517v-21zM274 272h517v21h-517v-21zM274 309h517 v21h-517v-21zM1626 297h105v37h-105v-37z" />
<glyph unicode="&#xea;" horiz-adv-x="1189" d="M102 758q0 43 37 73.5t90.5 54t106.5 52.5t90 81t37 126q0 88 -56.5 147.5t-124 84t-124 63.5t-56.5 92q0 43 31 73.5t74 30.5q45 0 77.5 -37.5t55 -91t49.5 -107.5t79 -92t128 -38q90 0 149.5 57t83 126t62.5 126t94 57q43 0 72.5 -29.5t29.5 -74.5q0 -43 -36.5 -76 t-90 -56.5t-106.5 -52t-90 -79.5t-37 -123t37 -124t90 -81t106.5 -52.5t90 -55t36.5 -74.5q0 -45 -28.5 -75t-73.5 -30q-55 0 -94 57.5t-62.5 126t-83 126t-149.5 57.5q-76 0 -128 -38t-79 -92t-48.5 -107.5t-55 -91.5t-80.5 -38q-43 0 -73 31t-30 74zM117 1139 q0 47 36.5 76.5t86.5 29.5q47 0 83.5 -30.5t36.5 -75.5q0 -47 -36.5 -77t-83.5 -30q-51 0 -87 29t-36 78zM487 786.5q0 49.5 30 85t79 35.5t77.5 -35.5t28.5 -85t-28.5 -85t-77.5 -35.5q-47 0 -78 35.5t-31 85zM487 1501q0 49 30 86t79 37t77.5 -39t28.5 -88 q0 -47 -29.5 -82t-76.5 -35t-78 36t-31 85zM831 1139q0 51 37 78.5t90 27.5q45 0 81 -30.5t36 -75.5q0 -49 -37 -78t-86 -29t-85 29t-36 78z" />
<glyph unicode="&#xeb;" horiz-adv-x="1189" d="M102 -266q0 43 37 74.5t90.5 55t106.5 51.5t90 80t37 126q0 88 -56.5 147.5t-124 84t-124 64.5t-56.5 91q0 43 31 73.5t74 30.5q45 0 77.5 -37.5t55 -91t49.5 -107.5t79 -92t128 -38q90 0 149.5 57t83 126t62.5 126t94 57q43 0 72.5 -29.5t29.5 -74.5q0 -43 -36.5 -76 t-90 -56.5t-106.5 -52t-90 -79.5t-37 -123t37 -124t90 -81t106.5 -52.5t90 -55t36.5 -74.5q0 -45 -28.5 -75t-73.5 -30q-55 0 -94 57.5t-62.5 126t-83 126t-149.5 57.5q-76 0 -128 -38t-79 -92t-48.5 -107.5t-55 -91.5t-80.5 -38q-43 0 -73 31t-30 74zM117 110.5 q0 47.5 36.5 77t86 29.5t85 -30.5t35.5 -77.5q0 -45 -37.5 -75t-82.5 -30q-49 0 -86 29.5t-37 77zM487 -237.5q0 49.5 30 85t79 35.5t77.5 -35.5t28.5 -85t-28.5 -85t-77.5 -35.5q-47 0 -78 35.5t-31 85zM487 477q0 49 30 86t79 37t77.5 -39t28.5 -88q0 -47 -29.5 -82 t-76.5 -35t-78 36t-31 85zM831 111q0 47 37 76.5t86.5 29.5t85 -30.5t35.5 -78t-38 -76t-85 -28.5t-84 31t-37 76z" />
<glyph unicode="&#xec;" horiz-adv-x="1638" d="M102 268v68q0 123 88 137q2 0 10.5 1t17.5 2t21.5 3t21.5 5t18.5 6.5t14.5 8.5t5 11q0 10 -8 18l-25 11q-31 -4 -102 -21l-17 23q-8 82 66 121.5t166 44t170 24t78 66.5q0 31 -26 49t-56 18q-39 0 -116 -41t-118 -41q-45 0 -96 35t-59 76q31 0 55 25q0 4 -24.5 39.5 t-50 90t-25.5 99.5q0 63 39.5 106t103.5 43q51 0 77.5 -24.5t47.5 -77.5l-6 -31l-31 -33l-29 -8l-26 13q0 8 9 22t11 21l-18 32q-35 14 -41 15q-31 0 -52.5 -21.5t-25.5 -52.5l33 -33l20 -4q-20 -20 -20 -49q35 -96 153 -96q43 0 127 22.5t127 22.5q68 0 144 -39 q-80 -33 -80 -94q0 -84 121 -84q29 0 98.5 4t105.5 2q-2 35 3.5 101.5t5.5 94.5q0 129 -86 129q-61 0 -95 -79q-47 94 -39 145q4 23 25 111t21 137q0 51 -23 106.5t-66 55.5q-37 0 -57 -25l-4 20l-33 31q-33 -4 -53 -25.5t-20 -54.5q0 -2 14 -37l33 -18q6 2 20 11.5t23 9.5 q2 0 8 -16.5t6 -20.5q-16 -47 -74 -58q-106 39 -106 119q0 78 51 114t131 36q29 0 77 -26t85 -49.5t41 -23.5l20 25l2 31q47 -12 78 -61.5t31 -100.5q0 -41 -40 -116t-40 -114q0 -35 18.5 -57t51.5 -22q47 0 65.5 74.5t21.5 164.5t41 165t117 75l25 -4l8 -13q0 -16 -10 -50 t-10 -52l8 -25q8 -8 18 -8q25 25 33 57.5t8 55t12.5 43t58.5 31t132 10.5q-47 -94 -139 -232.5t-162 -240t-121 -227.5t-41 -228l-45 -41l-65 2q-94 4 -248 -81t-340.5 -213t-272.5 -171z" />
<glyph unicode="&#xed;" horiz-adv-x="1187" d="M102 -268q0 47 38 79.5t92.5 55t107.5 50.5t91 79t38 125q0 76 -38 127t-91 77.5t-107.5 48t-92.5 54.5t-38 80q0 104 107 104q45 0 76.5 -36.5t53 -90t49.5 -106.5t80 -90t126 -37q72 0 123 37t78.5 90t51 106.5t56.5 90t76 36.5q106 0 106 -102q0 -47 -37.5 -80 t-92 -55.5t-107.5 -49t-91 -77.5t-38 -127t38 -127t91 -78t107.5 -49.5t92 -56t37.5 -80.5q0 -100 -108 -101q-41 0 -73 37t-56.5 90.5t-53 106.5t-79.5 90t-121 37q-90 0 -149.5 -56.5t-83 -124t-62.5 -124t-92 -56.5q-104 0 -105 103zM115 121q0 47 36.5 76.5t86.5 29.5 q47 0 82.5 -30.5t35.5 -77.5q0 -45 -37.5 -75t-82.5 -30q-47 0 -84 31t-37 76zM498 -231q0 49 30.5 82.5t77.5 33.5q43 0 74 -39t31 -84t-31 -82.5t-76 -37.5q-49 0 -77.5 37.5t-28.5 89.5zM498 479q0 49 29.5 85t78.5 36q43 0 74 -39t31 -82q0 -47 -31 -85t-76 -38 q-49 0 -77.5 36t-28.5 87zM831 121q0 47 35 76.5t84 29.5q47 0 85 -31.5t38 -76.5t-38 -75t-85 -30q-49 0 -84 30t-35 77z" />
<glyph unicode="&#xee;" horiz-adv-x="1228" d="M102 0v1280h1024v-1280h-1024zM135 33h959v1214h-959v-1214z" />
<glyph unicode="&#xef;" horiz-adv-x="1277" d="M102 410v188h76v-188h-76zM115 758v209h61v-209h-61zM147 610v131h29v-131h-29zM195 809v186q0 29 11 40.5t25.5 10t31 14t22.5 50.5h628l17 -59h24l11 32h28l13 -34q27 0 26 -54v-614h2q0 -84 -178 -84q0 -20 -2 -31h-475q-6 14 -2 31q-41 0 -69.5 4t-49 8t-33 19.5 t-18.5 26t-8 38t-2 46t1 60.5t1 70zM215 997l8 -18q0 -8 19 -8q26 -1 26 26h2q0 27 -26 27q-29 0 -29 -27zM238 694.5q0 -159.5 102 -263t262 -103.5q162 0 264.5 103t102.5 263h2q0 162 -103.5 264.5t-263.5 102.5q-162 0 -264 -103.5t-102 -263zM248 373q0 -41 39 -41 q16 0 29.5 12.5t13.5 28.5q0 18 -12.5 29.5t-28.5 11.5q-41 0 -41 -41zM256 692q0 152 97.5 250t248.5 98q154 0 252 -97t98 -251q0 -152 -98 -250t-250 -98q-154 0 -251 97.5t-97 250.5zM266 372.5q0 20.5 20.5 20.5t20.5 -20h2q0 -20 -20 -21q-23 0 -23 20.5zM285 1128 l24 117h584l18 -117h-626zM311 1266q4 25 11.5 65.5t18.5 96t25.5 93.5t26.5 38h416q16 0 34.5 -59.5t34 -145.5t15.5 -88h-582zM377 236v18h477v-18h-477zM913 369q0 -37 35 -37q37 0 37 37q0 35 -35 34q-14 0 -25.5 -11t-11.5 -23zM1053 526v39h26v-39h-26zM1053 573v326 h80v-326h-80zM1145 684v98h31v-98h-31z" />
<glyph unicode="&#xf0;" horiz-adv-x="1789" d="M102 823l2 244q0 33 25 60.5t59 27.5h88v-663h-88q-35 0 -59.5 26.5t-24.5 61.5zM287 391v98h663v-98q0 -35 -18.5 -56.5t-53 -28.5t-63.5 -8t-69.5 2t-51.5 3h-151q-8 0 -49 -3t-69 -1t-63.5 8t-55 27.5t-19.5 56.5zM571 588q0 41 79 149.5t206 255.5l125 148h481 l-403 -523v369q-8 -10 -77 -99t-127 -163t-123.5 -139.5t-96.5 -65.5q-27 0 -45.5 20.5t-18.5 47.5zM1049 1657h442v-113h-373zM1059 305v176h477v94h-383l426 560q12 6 29 6q80 0 80 -133v-441q0 -86 -5 -262h-624zM1063 1405l59 74h369v-117q0 -59 -56.5 -103.5 t-115.5 -44.5q-82 0 -124 53.5t-42 137.5h-90z" />
<glyph unicode="&#xf1;" horiz-adv-x="1007" d="M102 598q18 74 52 115t104 67q12 84 39 130t96 79q-18 70 -18 92q0 92 88 170q-37 82 -37 142q0 18 5 40.5t11.5 43t12.5 38t12 29.5l4 10l-8 11q-31 39 -39 112h293q-66 -35 -209 -159q-14 -43 -14 -74q0 -63 38 -64q33 0 51.5 32t30 89.5t13.5 63.5l18 12l14 -14v-9 q0 -20 -10 -64t-10 -46l25 -31h8q35 0 49 43t19 99.5t14 70.5l10 2l16 -24q0 -43 15 -78l10 -4q39 18 55.5 65t3.5 90h35q6 -16 6 -55q0 -80 -63 -174q53 -102 53 -164q0 -86 -72 -178q12 -51 13 -107q0 -137 -140 -231l2 -45q4 -74 -68.5 -176.5t-146.5 -77.5zM225 633 q0 -37 45 -37q33 0 77 43t59 47l10 -4q0 -2 2 -6t2 -6q0 -14 -30 -46t-34 -49q2 -23 27 -22q35 0 68.5 44t46.5 48q18 -4 18 -20q0 -12 -16.5 -31t-16.5 -33q0 -18 39 -18q61 0 107.5 63.5t46.5 126.5q0 18 -2 27q-127 -18 -250 -25q-199 -12 -199 -102zM371 856 q0 -37 43 -37q27 0 75 60.5t62 64.5q12 -4 12 -16q0 -16 -19.5 -43t-19.5 -45q0 -20 31 -21q37 0 76 62l37 63h6q16 0 16 -20q0 -14 -9 -33t-9 -25q0 -8 8 -12q6 -8 18 -8q45 0 76 63.5t31 114.5q0 2 -6 57q-14 -6 -41 -17t-49.5 -19.5t-42.5 -14.5q-8 -2 -59.5 -14 t-81 -22.5t-71.5 -29t-62.5 -46t-20.5 -62.5zM483 1126q0 -35 29 -34q33 0 55.5 36.5t39 73.5t32.5 37l4 -2h4l4 -10q-2 -4 -16 -43t-14 -56q0 -29 30.5 -28.5t47 44.5t25.5 88t24 44q6 0 11 -11.5t5 -17.5q0 -4 -9.5 -26.5t-9.5 -36.5q0 -10 8.5 -18.5t16.5 -8.5 q37 0 64.5 50t27.5 89q0 63 -43 129q-31 -25 -128 -80t-152.5 -106t-55.5 -113z" />
<glyph unicode="&#xf2;" horiz-adv-x="561" d="M102 1051q0 141 115 395l16 -129q12 27 23 51l18 -133q4 14 14.5 36.5t14.5 33.5l19 -144q25 61 36 90l19 -151q8 33 39 108l43 -338q-43 43 -64 82l17 -123q-20 20 -58 66l17 -117q-18 18 -47 51l16 -118q-6 6 -17.5 18t-17.5 19l17 -121q-102 111 -161 210t-59 214z " />
<glyph unicode="&#xf3;" horiz-adv-x="1466" d="M102 254l197 385h57l-61 59l526 525l68 -68l-522 -526l-5 4v-379h-260zM1104 254v385h61l199 -385h-260z" />
<glyph unicode="&#xf4;" horiz-adv-x="1515" d="M102 215v1321l62 6v55h473q10 66 51 122.5t100 56.5q63 0 109.5 -56.5t56.5 -122.5h459v-1321h-49v-61h-1262zM219 332h1139v1204h-385q14 -57 45 -83t64.5 -32t67.5 -15t60.5 -50t36.5 -121h-901q10 82 38 123t63.5 49t70.5 13t63.5 31t39.5 85h-402v-1204zM258 961 l268 266h64l-266 -266l436 -443l508 506l-203 203h57l205 -203l-565 -565zM426 1292h727h2q-6 39 -32.5 54.5t-57.5 15.5t-65.5 18.5t-55.5 61.5q-8 16 -31.5 95t-52.5 129t-69 50q-43 0 -73 -61.5t-53.5 -144.5t-39.5 -107q-16 -23 -67.5 -30t-91.5 -21.5t-40 -59.5z M752 1567q0 37 36 37q39 0 39 -41h2q0 -37 -36 -37q-41 0 -41 41z" />
<glyph unicode="&#xf5;" horiz-adv-x="716" d="M102 903q14 18 23.5 24.5t17 17.5t25.5 48l8 15q8 14 15.5 24t11.5 10h313q14 -8 57 -104q2 -2 9.5 -8t17.5 -12.5t12 -8.5l2 -2v-4q-16 -125 -22 -147h-25v-72h-53v72h-311v-72h-56v72h-22q-23 109 -23 147zM166 936q45 0 134 -1t134 -1h119q-6 12 -15.5 33.5 t-11.5 26.5t-8 17.5t-8 13.5t-11.5 6t-14.5 3t-18 -1t-26.5 -1t-36 -3t-45.5 -1l4 2h-145q-20 0 -51 -94z" />
<glyph unicode="&#xf6;" horiz-adv-x="1728" d="M102 498v987q0 31 29 50t59 19h1348q35 0 70 -24q18 -37 18 -45v-987q0 -31 -28.5 -50.5t-59.5 -19.5h-1348q-31 0 -59.5 19.5t-28.5 50.5z" />
<glyph unicode="&#xf7;" horiz-adv-x="1576" d="M102 0v1280h1024v-324q8 16 11 27q55 -100 190 -100q88 0 148 90v-492h-349v-481h-1024zM135 33h959v448h-910v490q35 -102 181 -103q41 0 76.5 34t50.5 77q20 -41 62 -66.5t89 -25.5q106 0 156 94q12 -45 50 -83t83 -38q109 0 162 51v336h-248v13h-37v-13h-674v-1214z M809 1079v168h37v-168h-37z" />
<glyph unicode="&#xf8;" horiz-adv-x="2125" d="M102 969q0 422 268.5 695t690.5 273q424 0 693 -271t269 -697q0 -424 -267 -697.5t-691 -273.5q-420 0 -691.5 274.5t-271.5 696.5zM291 967q0 -340 215 -559.5t555 -219.5t555 219.5t215 559.5q0 342 -214 559t-556 217t-556 -217t-214 -559z" />
<glyph unicode="&#xf9;" d="M102 2v1915h1958v-1915h-1958zM205 104h1753v1711h-1753v-1711z" />
<glyph unicode="&#xfa;" horiz-adv-x="1003" d="M102 264q39 39 64 39q28 0 67 -49l-47 4l4 -4h-47l13 6zM102 307q41 41 64 41q20 0 51 -35l41 2l-21.5 21.5t-19.5 21.5l-115 -6q41 41 64 41q20 0 51 -35l143 9q35 27 48 26q16 0 38 -22l175 10q25 12 28 12q12 0 27 -10l225 12q-33 -8 -82 -49l82 4q-33 -8 -76 -44 t-65 -46q-10 0 -24.5 14.5t-31 35t-28.5 28.5l-55 -2q-10 -8 -33 -25.5t-40.5 -31t-29.5 -19.5q-8 0 -19.5 9.5t-27.5 28.5t-25 28l-86 -4q-70 -55 -84 -62q-8 0 -16 7t-22.5 23.5t-20.5 22.5zM297 317l63 5q35 27 48 26q16 0 38 -22l41 2q-25 31 -41 43l-86 -4 q-47 -37 -63 -50zM330 254q57 49 78 49q22 0 65 -49h-41h-47h-55zM559 332l62 4q25 12 28 12q12 0 27 -10l41 2q-33 37 -41 43l-55 -2q-8 -6 -18.5 -14.5t-24 -18.5t-19.5 -16zM571 254q57 49 78 49q23 0 66 -49h-41h-47h-56zM813 254q57 51 88 51z" />
<glyph unicode="&#xfb;" horiz-adv-x="1167" d="M102 745l33 64l422 -236l-35 -63zM109 201v98l14 23q10 6 211 6q-14 37 -15 47q0 18 8.5 32.5t17.5 20.5t30 16q39 -2 119 -2q68 0 105.5 2t87.5 13.5t77 35t46 67.5t19 108q0 109 -53 190.5t-155 99.5l-76 -133l-37 11l-27 -11q-12 -12 -37 -63l-69 35q35 66 37 71 q-8 27 -33 47q72 121 334 578q10 18 37.5 25.5t47 25t19.5 60.5l4 6q29 -16 45 -43q45 -6 56 -8l4 -5l-4 -4q-37 -27 -50 -59q12 -61 13 -64q0 -35 -219 -395q127 -29 203.5 -134t76.5 -238.5t-59.5 -210t-188.5 -119.5h367v-129h-956z" />
<glyph unicode="&#xfc;" horiz-adv-x="1343" d="M102 197l17 34q16 4 33.5 52.5t64.5 48.5q51 0 67.5 -8.5t28 -35t29.5 -44.5q20 18 22.5 40.5t-5 54.5t-7.5 46q0 12 8.5 39t8.5 39q0 16 -5.5 113.5t3.5 111.5l-60 49l41 54q0 115 51.5 159.5t178.5 59.5l59 -27q14 6 19.5 23.5t4 34t9 29.5t37.5 13q41 0 60 -31.5 t19 -74.5q0 -35 -25.5 -51.5t-55.5 -3.5l-9 -15q8 -33 17 -47q-4 -18 -22.5 -68.5t-18.5 -74.5q0 -88 35 -158q53 -12 114.5 -48t93.5 -77q76 41 99 41q47 0 71.5 -23.5t41 -63.5t30.5 -54q16 -16 30.5 -26.5t20.5 -12.5t12.5 -11.5t10.5 -28.5t10 -58h-1139zM449 309 q0 -23 25.5 -49.5t47.5 -26.5h74l-59 78q4 4 16 12.5t16 12.5l-2 6q-2 6 -2 8q0 18 3 54t3 55q0 10 -29.5 66.5t-39.5 56.5q-18 0 -19 -76q0 -70 -16 -125q-18 -61 -18 -72zM530 731q0 -4 7 -10q18 -23 53 -23q6 19 6 62l-6 4q-12 0 -36 -11.5t-24 -21.5zM631 313 q2 -14 9 -25.5t21.5 -24.5t18.5 -19q37 37 61 37q10 0 18.5 -6.5t16.5 -15.5t15 -13q23 10 22.5 29.5t7.5 27.5q8 10 24.5 10t30 20t27.5 81q-18 18 -38.5 33.5t-47 28.5t-43 21.5t-51.5 21.5t-47 20q0 -14 1 -45t1 -48q0 -133 -47 -133z" />
<glyph unicode="&#xfd;" horiz-adv-x="1540" d="M102 528v131q100 0 295 -6t354.5 -6t292.5 12q20 0 320 115h74v-246h-74v74h-1196v-74h-66zM102 772v260l265 262h69l-260 -262v-125h926v125l262 262h74v-260l-39 -39h-72v23l-110 -111v-94l-41 -41h-74v88h-926v-88h-74zM180 954v13h230q-59 70 -228 69l11 13 q154 0 217 -64l235 234q-63 63 -217 63l12 10q55 -4 84 -8t73 -21.5t69 -48.5h614l-12 -10h-623l-235 -237h690v-13h-920z" />
<glyph unicode="&#xfe;" horiz-adv-x="1261" d="M102 559q0 100 51.5 221t117 216.5t130 214t84.5 208.5l-145 340q158 -96 158 -250q0 -47 -13 -90l287 -676q0 45 54.5 72t105.5 27q98 0 162.5 -71t64.5 -171q0 -289 -553 -289q-74 0 -147.5 9.5t-160.5 33t-141.5 76.5t-54.5 129z" />
<glyph unicode="&#xff;" horiz-adv-x="208" />
<glyph unicode="&#x152;" horiz-adv-x="1642" d="M102 651v1067l314 2l282 -901l504 -106q12 -2 88 9t96 11q70 0 105 -30.5t49 -100.5q-207 -98 -480.5 -145t-486.5 -13l27 -90l-344 -106l-43 137q-119 74 -80 291zM1122 367v90h357v-90h-95v-142h-170v142h-92z" />
<glyph unicode="&#x153;" horiz-adv-x="1855" d="M102 981q0 340 242 579.5t582 239.5q350 0 588.5 -226.5t238.5 -576.5q0 -356 -270 -643l-4 2q-43 -43 -68 -57q-8 14 -10 31.5t0 44t2 33.5q0 94 -51 200h82q33 135 32 226q0 481 -538 481q-252 0 -392.5 -120t-140.5 -370q0 -80 27 -213h84q-45 -102 -45 -280 q0 -12 -10 -29q-160 117 -254.5 299t-94.5 379zM496 266q0 809 899 809l10 -33h2q-424 0 -615.5 -200.5t-189.5 -624.5q-70 18 -106 49z" />
<glyph unicode="&#x178;" horiz-adv-x="2160" d="M102 2v1933h1956v-1933h-1956zM205 106h1751v1727h-950l-801 -809v-918zM205 1159l665 674h-139l-526 -537v-137zM205 1432l393 401h-393v-401zM281 883q0 100 61 162.5t161.5 62.5t162 -62.5t61.5 -162.5q0 -98 -62.5 -162t-160.5 -64t-160.5 63.5t-62.5 162.5zM334 881 q0 -72 48 -121t122 -49t120 48t46 122q0 80 -45 125t-125 45q-74 0 -120 -48.5t-46 -121.5zM485 221v383h160q47 0 76 -26.5t29 -73.5q0 -84 -50 -94q52 -25 52 -119q0 -12 -1 -36t-1 -34h-43q-2 12 0 36t2 30q0 96 -56 96h-123v-162h-45zM535 424h131q2 0 8 4t12 9t8 7 q15 17 15 60q0 29 -16.5 46t-45.5 17h-112v-143zM795 221l92 383h74l92 -383h-52l-40 162h-74l-39 -162h-53zM893 424h61l-26 127zM1018 565v39h248v-39h-99v-344h-53v344h-96zM1237 221l94 383h74l90 -383h-51l-39 162h-74l-41 -162h-53zM1335 424h62l-27 127zM1466 604h56 l69 -168l72 168h53q-6 -12 -32.5 -63.5t-45 -91t-24.5 -62.5v-166h-49v160q-10 35 -51 123t-48 100z" />
<glyph unicode="&#x2000;" horiz-adv-x="977" />
<glyph unicode="&#x2001;" horiz-adv-x="1954" />
<glyph unicode="&#x2002;" horiz-adv-x="977" />
<glyph unicode="&#x2003;" horiz-adv-x="1954" />
<glyph unicode="&#x2004;" horiz-adv-x="651" />
<glyph unicode="&#x2005;" horiz-adv-x="488" />
<glyph unicode="&#x2006;" horiz-adv-x="325" />
<glyph unicode="&#x2007;" horiz-adv-x="325" />
<glyph unicode="&#x2008;" horiz-adv-x="244" />
<glyph unicode="&#x2009;" horiz-adv-x="390" />
<glyph unicode="&#x200a;" horiz-adv-x="108" />
<glyph unicode="&#x2010;" horiz-adv-x="1601" d="M102 346q47 51 145.5 165t157 180.5t146.5 156.5t166 160q-6 10 -17 16l-34 4q-10 8 -86 72.5t-143.5 127t-145.5 141.5t-125 151.5t-47 121.5q0 25 4 33q10 0 31.5 3t29.5 3q41 0 320.5 -284.5t308.5 -345.5q109 74 159 132t52 89t9 75t34 80q25 35 71 75t76.5 61.5 t98 65.5t78.5 50q-8 -8 -46 -39.5t-59.5 -51t-53.5 -50.5t-53.5 -56.5t-33.5 -47.5q45 20 91 57t99.5 88t81.5 74q-150 -162 -227 -267q45 31 87 68t99.5 91t79.5 75q-10 -12 -69.5 -77.5t-93 -109.5t-56.5 -90q16 8 33.5 21.5t39 33t38 36t40 43t35 40t35 39t27.5 31.5 q-98 -150 -170 -229.5t-120 -103t-90 -37t-105.5 -61.5t-143.5 -144q111 -92 236 -219t198.5 -212t208.5 -245l-53 -64q-406 342 -629 588l-6 64q-63 -84 -154.5 -182.5t-141.5 -147.5t-183 -175t-154 -145z" />
<glyph unicode="&#x2011;" horiz-adv-x="1601" d="M102 346q47 51 145.5 165t157 180.5t146.5 156.5t166 160q-6 10 -17 16l-34 4q-10 8 -86 72.5t-143.5 127t-145.5 141.5t-125 151.5t-47 121.5q0 25 4 33q10 0 31.5 3t29.5 3q41 0 320.5 -284.5t308.5 -345.5q109 74 159 132t52 89t9 75t34 80q25 35 71 75t76.5 61.5 t98 65.5t78.5 50q-8 -8 -46 -39.5t-59.5 -51t-53.5 -50.5t-53.5 -56.5t-33.5 -47.5q45 20 91 57t99.5 88t81.5 74q-150 -162 -227 -267q45 31 87 68t99.5 91t79.5 75q-10 -12 -69.5 -77.5t-93 -109.5t-56.5 -90q16 8 33.5 21.5t39 33t38 36t40 43t35 40t35 39t27.5 31.5 q-98 -150 -170 -229.5t-120 -103t-90 -37t-105.5 -61.5t-143.5 -144q111 -92 236 -219t198.5 -212t208.5 -245l-53 -64q-406 342 -629 588l-6 64q-63 -84 -154.5 -182.5t-141.5 -147.5t-183 -175t-154 -145z" />
<glyph unicode="&#x2012;" horiz-adv-x="1601" d="M102 346q47 51 145.5 165t157 180.5t146.5 156.5t166 160q-6 10 -17 16l-34 4q-10 8 -86 72.5t-143.5 127t-145.5 141.5t-125 151.5t-47 121.5q0 25 4 33q10 0 31.5 3t29.5 3q41 0 320.5 -284.5t308.5 -345.5q109 74 159 132t52 89t9 75t34 80q25 35 71 75t76.5 61.5 t98 65.5t78.5 50q-8 -8 -46 -39.5t-59.5 -51t-53.5 -50.5t-53.5 -56.5t-33.5 -47.5q45 20 91 57t99.5 88t81.5 74q-150 -162 -227 -267q45 31 87 68t99.5 91t79.5 75q-10 -12 -69.5 -77.5t-93 -109.5t-56.5 -90q16 8 33.5 21.5t39 33t38 36t40 43t35 40t35 39t27.5 31.5 q-98 -150 -170 -229.5t-120 -103t-90 -37t-105.5 -61.5t-143.5 -144q111 -92 236 -219t198.5 -212t208.5 -245l-53 -64q-406 342 -629 588l-6 64q-63 -84 -154.5 -182.5t-141.5 -147.5t-183 -175t-154 -145z" />
<glyph unicode="&#x2013;" horiz-adv-x="1572" d="M102 0v1292h1024v-239h242q12 -2 31 -45q29 -57 46 -71t25 -26h-2q0 -49 -20 -147h-25v-74h-55v74h-240v-764h-1026zM135 33h959l2 731h-39v-74h-53v74h-23q-25 98 -25 147q0 6 19.5 18.5t21.5 18.5q51 102 58 105h41v207h-961v-1227zM1020 946h74l2 94h-23q-6 0 -14 -13 t-15.5 -28.5t-15.5 -33t-8 -19.5zM1094 764h34v182h-34v-182zM1094 1040h32l2 13h-34v-13zM1126 946q55 -2 162 -2h119h2q-37 82 -49 90t-94 6q-27 -2 -54 -2l7 2h-93v-94z" />
<glyph unicode="&#x2014;" horiz-adv-x="208" />
<glyph unicode="&#x2018;" horiz-adv-x="1703" d="M102 365q0 121 134 182q31 14 155.5 65.5t189 82t149.5 90t130 122.5q10 14 37 54t41 59.5t37.5 50.5t48.5 54.5t51 41.5q92 68 350 78q-6 -55 -46 -101t-84 -70.5t-79.5 -63.5t-35.5 -84q0 -61 43 -206t43 -226.5t-19 -167.5q10 0 51 4t64 4q80 0 240 -139h-308 q-4 0 -59 22q-25 37 -39 53q-39 -76 -102 -75h-340q23 20 31 41.5t20 40t53 38.5l-2 9l-362 6l-2 -13q86 -51 104 -122h-365q-129 82 -129 170zM1194 1174q0 -29 27 -29q28 0 28 29q0 12 -8 20q-4 6 -20 6q-27 0 -27 -26z" />
<glyph unicode="&#x2019;" horiz-adv-x="1908" d="M102 713v243h21q8 68 22 88q14 0 15 -96q0 -10 1 -32.5t1 -34.5q0 -31 -17 -31q-10 20 -22 90h-8v-213q0 -8 8 -20q6 -4 326 -5v-32h-41q27 -20 38 -40t11 -35t-2 -51t0 -67q0 -16 3 -49t5 -49h-21l-8 96q-2 45 -1 74t0 48t-13 35.5t-43 37.5h-168q-47 -29 -47 -45 q-8 -164 -15 -246h-24l8 102q4 47 2 75t-1 44t11.5 31.5t38.5 38.5h-14h-14t-13.5 1t-13.5 2t-10 4t-8.5 8t-4.5 12.5t-2 15.5zM160 758q4 25 15 52.5t27.5 61t22.5 50.5q0 2 18.5 66.5t40 98t50.5 33.5q18 0 49 -14t55.5 -30.5t57 -40t43.5 -29.5h143l39 -62h-178 q-18 0 -43 9.5t-40.5 18.5t-41 25.5t-35.5 22.5l-88 -229h92.5t64 -4.5t47 -8.5t28 -19.5t19.5 -28.5t9 -45t8 -61.5t6 -84t15 -105.5q8 -2 20 -3t19.5 -2t15.5 -4t11 -13.5t3 -26.5h-141l-49 324h-250q-41 0 -53 49zM326 1194q0 35 21.5 56.5t56 21.5t56 -21.5t21.5 -56.5 q0 -82 -78 -82q-35 0 -56 23.5t-21 58.5zM508 856v80h289l-99 141l119 135v60q6 14 17 14l12 -14v-105q0 -20 -70 -90l15 -22q86 25 217 24q20 0 61 -7t51 -9l15 20l-17 17l-25.5 25.5t-19.5 24.5t-10 26v104q6 14 14 14t17 -14v-61l116 -136l-96 -147h287v-80h-184l22 -477 h-51l-25 477h-47v-475l-33 2v102h-39l7 -102l-60 -2l-6 106h-59l-4 -108h-64l8 102h-41v-102h-32v477h-48l-24 -477h-51l22 477h-184zM651 1071l82 -127h-6zM829 680l2 -156h35l4 156h-41zM870 1180q0 37 25 61.5t61 24.5q39 0 62.5 -23.5t23.5 -62.5t-23.5 -63.5t-62 -24.5 t-62.5 24.5t-24 63.5zM932 524h53l-8 156h-41zM1038 678l9 -154h38l-2 154h-45zM1188 944l39 62h143q10 6 43 29.5t57.5 40t55 30.5t49.5 14q20 0 38.5 -23.5t29 -50t20.5 -62.5t14 -44q8 -18 24.5 -55t29 -68.5t18.5 -58.5l-6 -25q-14 -16 -57.5 -23.5t-83 -7.5t-93 3.5 t-63.5 3.5l-49 -324h-142q0 20 6.5 30.5t12.5 12.5t24.5 3t26.5 3q8 51 14.5 106.5t6.5 84t8 60.5t8 45t20.5 28.5t28.5 19.5t47 8.5t64.5 4.5h91.5l-88 229q-12 -6 -47 -29.5t-60.5 -35t-52.5 -11.5h-178zM1427 1194q0 35 21.5 56.5t56.5 21.5t56.5 -21.5t21.5 -56.5 q0 -82 -78 -82q-35 0 -56.5 23.5t-21.5 58.5zM1446 379q4 41 14 246q0 18 41 45h-41v32h312q23 0 22 25v213h-8q-8 -68 -23 -90q-16 0 -16 35q0 10 1 31.5t1 31.5q0 96 14 96q12 -14 23 -88h20v-243q0 -51 -80 -43q41 -27 43 -45q10 -205 17 -246h-25q-4 27 -14 246 q0 16 -47 45h-168q-31 -20 -43 -37t-13 -36t0 -48t-1 -74l-9 -96h-20z" />
<glyph unicode="&#x201a;" horiz-adv-x="2125" d="M102 969q0 422 268.5 695t690.5 273q424 0 693 -271t269 -697q0 -424 -267 -697.5t-691 -273.5q-420 0 -691.5 274.5t-271.5 696.5zM207 968.5q0 -374.5 240.5 -619.5t615.5 -245q379 0 616.5 242t237.5 621q0 381 -238.5 622.5t-617.5 241.5q-375 0 -614.5 -244 t-239.5 -618.5z" />
<glyph unicode="&#x201c;" horiz-adv-x="2111" d="M102 975q0 418 266.5 688t682.5 270q420 0 689 -270t269 -692q0 -420 -264 -690.5t-684 -270.5t-689.5 271.5t-269.5 693.5zM197 973q0 -379 241.5 -623t620.5 -244q377 0 615.5 244t238.5 621q0 381 -240.5 623.5t-621.5 242.5q-375 0 -614.5 -243.5t-239.5 -620.5z M293 973q0 334 213 551t545 217q340 0 553 -214t213 -556q0 -336 -212 -553t-546 -217q-338 0 -552 217t-214 555zM416 827h1259v299h-1259v-299z" />
<glyph unicode="&#x201d;" horiz-adv-x="1822" d="M102 973q0 356 224.5 586.5t580.5 230.5q358 0 585.5 -230.5t227.5 -589t-223 -587.5t-582 -229q-356 0 -584.5 230t-228.5 589zM182 971q0 -322 206 -530t525.5 -208t522 208t202.5 530q0 326 -202.5 530.5t-528.5 204.5q-317 0 -521 -208t-204 -527zM262 971 q0 285 181.5 470t463.5 185q291 0 471.5 -181t180.5 -474q0 -285 -180.5 -470.5t-465.5 -185.5q-287 0 -469 183.5t-182 472.5zM367 848h1071v254h-1071v-254z" />
<glyph unicode="&#x201e;" horiz-adv-x="1568" d="M102 1313v131h361v174h-158v61h373v-61h-154v-174q180 0 278.5 -58.5t98.5 -220.5h-119q0 43 -14 73t-29.5 44t-54.5 21.5t-59.5 8.5t-71.5 1h-451zM182 711q0 51 32 66.5t87 15.5q-14 29 -14 53q0 31 30.5 48t81 19t97.5 0t95 -7t60 -5q-43 14 -71.5 49t-28.5 78l436 2 h191q90 0 112 -92h172v-41h-198q-8 43 -23.5 67.5t-43.5 33t-50.5 8.5t-68.5 -3.5t-77 -3.5l-227 2h-180q0 -47 65.5 -71.5t124.5 -24.5v-33h-446q-16 -16 -16 -28q0 -14 7 -32.5t17 -18.5h438v-35h-524q-18 0 -29.5 -14.5t-11.5 -32.5q0 -2 3 -10.5t7 -16.5t4 -10 q6 -8 58.5 -13.5t128.5 -5.5t147.5 1t138 3.5t78.5 2.5v-35l-491 -2q-27 -16 -31 -50q2 -16 46 -25t115 -10t137.5 0t136 4t87.5 3v-29h-335q-18 -29 -19 -55q0 -2 14 -31l21 -12h389l354 2q41 0 58.5 22.5t25.5 67.5h174v-33h-145q-27 -92 -113 -92h-450l-307 2 q-43 33 -52.5 55.5t9.5 73.5q-4 0 -32 -2t-49.5 -1t-48 5t-41 18.5t-14.5 36.5q0 37 27 52q-68 27 -68 84z" />
<glyph unicode="&#x2022;" horiz-adv-x="1228" d="M102 -229v1292h1024v-1292h-1024zM135 -197h959v1227h-959v-1227zM532 596l23 66l-18 8l28 149q6 6 14.5 9t18.5 5.5t16 4.5q72 68 91 77q96 -37 292 -106q8 -25 13.5 -72t9.5 -65q22 -23 24 -31q-14 -51 -65 -133l-25 10l-24 -67l-51 18l24 68l-297 108l-24 -67z M637 827q321 -123 358 -137q0 41 -2 57.5t-3 32t-15 21.5t-24.5 12t-43.5 15.5t-61 19.5l-129 47q-20 6 -80 -68z" />
<glyph unicode="&#x2026;" horiz-adv-x="1753" d="M102 952q0 344 216.5 562.5t558.5 218.5t558 -218.5t216 -562.5t-216 -564t-558 -220t-558.5 221t-216.5 563zM217 963q0 -291 185.5 -485.5t474.5 -194.5q225 0 370 102l-934 938q-96 -164 -96 -360zM420 1444l944 -961q170 191 170 463q0 291 -184.5 480.5 t-475.5 189.5q-258 0 -454 -172z" />
<glyph unicode="&#x202f;" horiz-adv-x="390" />
<glyph unicode="&#x2039;" horiz-adv-x="1273" d="M102 0v1292h1024v-800q16 -21 45 -54h-2q0 -29 -26 -82l10 -8l-16 -20l-9 8v-336h-1026zM135 33h961v317q-16 -8 -24.5 -8t-19 7t-22.5 17.5t-18 14.5q6 35 24 53q-33 37 -93 108.5t-85 100.5q-14 -14 -35 -14q-23 0 -41 18.5t-18 39t22 42.5q-16 20 -53 62q37 16 53 16 q53 0 82 -16q35 0 60.5 -4.5t41 -7.5t33 -19.5t25.5 -25.5t30.5 -38.5t37.5 -48.5v613h-961v-1227zM248 256l196 389h191v-291h37v-98h-424zM1087 543l7 -8l2 28q-2 -4 -9 -20z" />
<glyph unicode="&#x203a;" horiz-adv-x="1798" d="M102 12v1293h1024v-97l27 27l68 -68l-93 -96v-1059h-1026zM135 45h959l2 993l-398 -403l-4 4v-383h-260l197 389h57l-61 60l469 471v96h-961v-1227zM1436 256v389h61l199 -389h-260z" />
<glyph unicode="&#x205f;" horiz-adv-x="488" />
<glyph unicode="&#x2122;" horiz-adv-x="1155" d="M102 244l15 8h231q-33 0 -55.5 23.5t-22.5 56.5t21.5 54.5t54.5 21.5q35 0 56.5 -21.5t21.5 -54.5v8h16v-21h-14v13q0 -35 -21.5 -57.5t-58.5 -22.5h174q-35 0 -56.5 22.5t-21.5 57.5q0 33 21.5 54.5t54.5 21.5q35 0 56.5 -21.5t21.5 -54.5v8h16v-21h-14v13 q0 -35 -21.5 -57.5t-58.5 -22.5h174q-35 0 -56.5 22.5t-21.5 57.5q0 33 21.5 54.5t54.5 21.5q35 0 57.5 -21.5t22.5 -54.5q0 -35 -21.5 -57.5t-58.5 -22.5h170q-35 0 -56.5 22.5t-21.5 57.5q0 33 21.5 54.5t54.5 21.5q35 0 57.5 -21.5t22.5 -54.5q0 -35 -21.5 -57.5 t-58.5 -22.5h176l10 -2l9 -6l-17 -8h-917zM119 403v72q0 -6 10 -26l25 -5l-4 95v92l40 20v150q12 6 23.5 12t19 10t15.5 13.5t12 13.5t14.5 16.5t14.5 18.5q6 8 36.5 14t41.5 35q14 41 23 55.5t14.5 19.5t32 10t48.5 13l25 31q-4 14 -20.5 44t-16.5 58q0 53 36 105.5 t85 52.5q47 0 120.5 -93t73.5 -122q0 -8 -11 -33.5t-24.5 -52.5t-15.5 -29q-31 -55 -53 -69.5t-60 -14.5t-69 -12q-18 -6 -48 -30.5t-50 -28.5q-43 14 -54 14q-23 0 -61.5 -27.5t-56.5 -31.5l-23 6q-4 -47 -4 -142h94q0 20 9.5 34t19.5 18t33 12q63 -12 61 -66q51 2 152 2 q0 70 28 70q16 0 24.5 -26.5t6.5 -43.5q72 0 107 -2v150l125 10v-35q-16 -2 -28.5 -6t-22 -7t-14.5 -11t-9 -11.5t-5 -17.5t-1 -17v-24.5v-28.5l47 -16v-139h84v137l-41 10v17h76v-164l45 -10v-56q0 -2 -5.5 -12t-5.5 -14h-858q-6 4 -15 15t-11 11l-25 -12z" />
<glyph unicode="&#x25fc;" horiz-adv-x="1464" d="M0 0v1464h1464v-1464h-1464z" />
</font>
</defs>
</svg>
